<svg width="26" height="26" viewBox="0 0 26 26" fill="none" xmlns="http://www.w3.org/2000/svg">
<mask id="mask0_437_24508" style="mask-type:luminance" maskUnits="userSpaceOnUse" x="2" y="3" width="21" height="21">
<path d="M22.2783 3.18469H2.27832V23.1847H22.2783V3.18469Z" fill="white"/>
</mask>
<g mask="url(#mask0_437_24508)">
<path d="M22.2783 3.18469H2.27832V23.1847H22.2783V3.18469Z" fill="url(#paint0_linear_437_24508)"/>
</g>
<mask id="mask1_437_24508" style="mask-type:luminance" maskUnits="userSpaceOnUse" x="2" y="3" width="20" height="20">
<path d="M3.87198 3.68744C3.48331 3.68744 3.23193 4.01486 3.17067 4.47324C3.17067 4.47324 2.67215 7.09893 2.67215 12.6714C2.67215 18.2438 3.17067 21.8961 3.17067 21.8961C3.21715 22.3376 3.48542 22.6819 3.87198 22.6819H21.1829C21.5695 22.6819 21.8779 22.3756 21.8842 21.8961C21.8842 21.8961 21.692 17.6249 21.692 13.4508C21.692 9.27679 21.8842 4.47324 21.8842 4.47324C21.8948 4.04654 21.5695 3.68744 21.1829 3.68744H3.87198Z" fill="white"/>
</mask>
<g mask="url(#mask1_437_24508)">
<path d="M21.8948 3.68744H2.67215V22.684H21.8948V3.68744Z" fill="url(#paint1_linear_437_24508)"/>
</g>
<g style="mix-blend-mode:multiply">
<mask id="mask2_437_24508" style="mask-type:luminance" maskUnits="userSpaceOnUse" x="2" y="3" width="20" height="20">
<path d="M21.8896 3.68744H2.667V22.6819H21.8896V3.68744Z" fill="white"/>
</mask>
<g mask="url(#mask2_437_24508)">
<mask id="mask3_437_24508" style="mask-type:luminance" maskUnits="userSpaceOnUse" x="2" y="3" width="20" height="20">
<path d="M3.84785 3.68744C3.47185 3.698 3.22681 4.02331 3.16767 4.47324C3.16767 4.47324 2.66915 7.09893 2.66915 12.6714C2.66915 18.2438 3.16767 21.8961 3.16767 21.8961C3.21414 22.3376 3.48241 22.6819 3.86898 22.6819H21.1778C21.5644 22.6819 21.8728 22.3756 21.8791 21.8961C21.8791 21.8961 21.6869 17.6249 21.6869 13.4508C21.6869 9.27679 21.8791 4.47324 21.8791 4.47324C21.8876 4.05288 21.5749 3.70011 21.1968 3.68744H3.84785Z" fill="white"/>
</mask>
<g mask="url(#mask3_437_24508)">
<path d="M21.8897 3.68744H2.66703V22.6819H21.8897V3.68744Z" fill="url(#paint2_linear_437_24508)"/>
</g>
</g>
</g>
<path d="M17.836 8.73392C16.5982 9.45846 16.2222 9.51549 14.8787 10.3224L14.9442 10.1724C15.6497 9.40354 15.9539 9.08246 16.4186 8.40227C15.1808 8.46987 13.381 8.61773 12.0946 8.90079L12.1622 8.76349C13.3282 8.19526 15.4934 7.63125 16.5982 7.4855C16.3278 7.10527 14.1351 5.92023 13.5901 5.69209L13.6535 5.55267C15.316 5.74067 17.5192 6.51803 18.4803 7.10527C18.8859 6.97853 19.302 6.96585 20.054 6.90037C20.054 6.90037 19.9421 7.35242 19.1225 7.91642C19.3253 8.46142 18.8373 11.4779 18.4338 12.2785C18.4148 11.0153 18.305 9.42255 17.836 8.7318" fill="#009A7B"/>
<path d="M8.79927 19.5472L8.86264 19.4036C8.20569 19.1522 7.54874 18.9494 7.01642 18.4509C7.1833 17.984 7.37552 17.6186 7.68604 17.1581L7.75153 17.0166C7.18752 17.1011 6.67633 17.3102 6.18625 17.4053C5.8018 16.7293 5.65394 15.8041 5.4596 14.9232L5.39623 15.0605C5.28638 16.0681 5.24413 16.7884 5.38566 17.589C4.97797 17.7031 4.62309 17.72 4.29568 17.8594L4.23442 17.9946C4.75406 18.3136 5.18076 18.5607 5.77012 18.8375C6.08486 19.5113 6.41017 19.9718 6.94037 20.4914L7.00374 20.3499C6.90869 19.9697 6.78617 19.6507 6.83264 19.2282C7.48748 19.4184 8.04937 19.5176 8.79715 19.5451" fill="#009A7B"/>
<path d="M10.6223 9.50281C10.6223 9.50281 10.3582 9.96964 10.147 10.5907H10.0963C11.6383 10.7998 13.0916 11.423 13.4571 11.6384L13.3916 11.7778C11.7946 11.4948 10.9518 11.5286 10.3561 11.5814C9.7604 11.6405 9.64 11.7124 9.64 11.7124C9.29779 12.4622 9.09712 13.6853 9.01473 14.1374L8.94925 14.2768C8.65774 13.5734 8.23527 12.1707 8.23527 12.1707C7.43045 12.6017 5.57367 14.3444 5.57367 14.3444C6.59606 12.3038 7.63324 11.3723 7.63324 11.3723C7.27625 11.0132 6.34258 10.8294 5.66028 10.8019L5.72576 10.6625C6.15246 10.5379 7.03544 10.4851 7.62479 10.4576C8.32399 10.4365 8.74646 10.4766 8.74646 10.4766C9.36961 9.9802 10.2969 9.54717 10.6244 9.50281" fill="#009A7B"/>
<path d="M12.5825 18.2776C12.2593 18.7128 11.9847 19.0613 11.6277 19.4605C11.0996 19.6063 10.4702 19.5408 9.9822 19.5556L9.91883 19.6929C10.2843 19.883 10.6434 19.995 11.0257 20.0752C10.7152 20.3583 10.2991 20.5738 10.0097 20.7702L9.94418 20.9075C10.5694 20.7575 11.3912 20.4935 12.0037 20.1344C12.3227 20.1471 12.6227 20.1238 12.8381 20.0816C12.8381 20.0816 12.9036 19.9401 12.9036 19.9443C12.8656 19.8049 12.741 19.7183 12.7029 19.5197C13.2754 19.074 13.6915 18.6684 14.1732 18.1847L14.2386 18.0474C13.7634 18.3748 13.1888 18.8226 12.6332 19.0845C12.61 18.8163 12.5931 18.5818 12.5783 18.2776" fill="#009A7B"/>
<path d="M17.8994 8.59448C16.6658 9.32114 16.2855 9.38029 14.9463 10.1851C15.7279 9.33804 15.9983 8.97471 16.4841 8.26706C15.2462 8.33255 13.4486 8.48041 12.1643 8.76559C13.2817 8.16778 15.4976 7.5045 16.6658 7.34818C16.3954 6.97429 14.2006 5.78502 13.6535 5.55688C15.392 5.69419 17.5149 6.34058 18.5437 6.97007C18.9492 6.84332 19.3696 6.83698 20.1258 6.7715C19.9315 7.10103 19.9252 7.29115 19.1858 7.78122C19.3907 8.32832 18.9007 11.3448 18.4972 12.1412C18.4824 10.8801 18.3726 9.28734 17.8994 8.59659" fill="white"/>
<path d="M8.86264 19.4035C8.15288 19.1437 7.64169 18.8374 7.07979 18.3093C7.24878 17.8467 7.4389 17.4834 7.75364 17.0166C7.17696 17.1032 6.75237 17.1686 6.25597 17.2637C5.85039 16.5539 5.66872 15.8738 5.46171 14.9211C5.35187 15.9287 5.30962 16.649 5.45115 17.4496C4.99488 17.5763 4.67168 17.6862 4.29779 17.8594C4.82377 18.1784 5.24836 18.4276 5.8356 18.7001C6.15035 19.3761 6.47776 19.8302 7.00586 20.3499C6.88334 19.9084 6.84954 19.5556 6.90024 19.0867C7.55719 19.281 8.11697 19.3824 8.86264 19.4014" fill="white"/>
<path d="M10.7089 9.38245C10.4892 9.66973 10.2315 10.2042 10.1618 10.4534C11.989 10.7006 13.455 11.6406 13.455 11.6406C11.858 11.3575 11.0152 11.3934 10.4174 11.4462C9.82377 11.5012 9.70337 11.573 9.70337 11.573C9.27244 12.5172 9.01262 14.1395 9.01262 14.1395C8.72111 13.4382 8.30075 12.0335 8.30075 12.0335C7.49382 12.4644 5.63915 14.2071 5.63915 14.2071C6.65943 12.1644 7.6945 11.2371 7.6945 11.2371C7.33962 10.8759 6.40383 10.6963 5.72154 10.6647C6.0743 10.521 6.98474 10.352 7.68393 10.3203C8.38524 10.2992 8.80561 10.3394 8.80561 10.3394C9.42876 9.84717 10.3772 9.43103 10.7046 9.38456" fill="white"/>
<path d="M12.6459 18.1424C12.3248 18.5776 12.046 18.9219 11.689 19.3211C11.0743 19.4944 10.5821 19.5577 9.98431 19.5577C10.3519 19.7457 10.7089 19.8598 11.0933 19.9401C10.711 20.2907 10.3857 20.5358 10.0139 20.7745C10.6392 20.6245 11.4588 20.3604 12.0713 19.9992C12.3903 20.0119 12.6903 19.9929 12.9078 19.9485C12.8508 19.7626 12.8149 19.6253 12.7705 19.3866C13.3451 18.9367 13.7655 18.5375 14.245 18.0495C13.7359 18.4044 13.2944 18.6705 12.7051 18.9494C12.6776 18.679 12.6628 18.4509 12.6501 18.1424" fill="white"/>
<defs>
<linearGradient id="paint0_linear_437_24508" x1="11.9488" y1="2.69251" x2="11.9488" y2="23.8057" gradientUnits="userSpaceOnUse">
<stop stop-color="#009A7B"/>
<stop offset="0.6" stop-color="#77C1B1"/>
<stop offset="1" stop-color="#009A7B"/>
</linearGradient>
<linearGradient id="paint1_linear_437_24508" x1="12.1441" y1="-1.63152" x2="12.1441" y2="22.0883" gradientUnits="userSpaceOnUse">
<stop stop-color="#009A7B"/>
<stop offset="0.3" stop-color="#77C1B1"/>
<stop offset="0.55" stop-color="#009A7B"/>
<stop offset="0.84" stop-color="#009A7B"/>
<stop offset="1" stop-color="#00A184"/>
</linearGradient>
<linearGradient id="paint2_linear_437_24508" x1="12.1368" y1="-1.63152" x2="12.1368" y2="22.0883" gradientUnits="userSpaceOnUse">
<stop stop-color="white"/>
<stop offset="0.3" stop-color="white"/>
<stop offset="0.55" stop-color="white"/>
<stop offset="0.84" stop-color="#B1B3B5"/>
<stop offset="0.87" stop-color="#B9BBBD"/>
<stop offset="0.92" stop-color="#D2D3D4"/>
<stop offset="0.99" stop-color="#F9F9F9"/>
<stop offset="1" stop-color="white"/>
</linearGradient>
</defs>
</svg>
