<svg width="26" height="26" viewBox="0 0 26 26" fill="none" xmlns="http://www.w3.org/2000/svg">
<g clip-path="url(#clip0_397_6623)">
<path d="M24.3253 9.77712C24.5415 9.12442 24.4897 8.41261 24.1813 7.79809C23.8729 7.18356 23.3331 6.71662 22.6806 6.49986L9.09994 1.94071C8.77669 1.831 8.43482 1.7868 8.0943 1.81068C7.75378 1.83456 7.42143 1.92604 7.11665 2.07978" fill="white"/>
<path d="M7.11665 2.07977C6.50167 2.38754 6.03406 2.92691 5.81663 3.57933L1.6747 16.0293C1.4602 16.682 1.51278 17.3931 1.82095 18.0072C2.12913 18.6213 2.66784 19.0884 3.31938 19.3066L16.9061 23.8657C17.2296 23.9741 17.5713 24.0176 17.9116 23.9937C18.2519 23.9699 18.5842 23.8791 18.8894 23.7266C19.194 23.5753 19.4653 23.3647 19.6874 23.1072C19.9096 22.8497 20.0782 22.5505 20.1834 22.2271L24.3314 9.77711" fill="white"/>
<path d="M13.7619 14.04C13.0142 14.8778 12.0801 15.5282 11.0349 15.9386L10.4302 16.1744V10.406L11.0349 10.6418C12.0814 11.0501 13.0176 11.6983 13.7679 12.5344C14.2428 11.7574 14.5422 10.8862 14.6453 9.98147C14.7484 9.07676 14.6526 8.16045 14.3647 7.29662C14.0767 6.43279 13.6036 5.64228 12.9783 4.98035C12.353 4.31843 11.5907 3.80107 10.7446 3.46446L8.76133 2.78724C8.55131 2.71832 8.32976 2.69149 8.10937 2.7083C7.88897 2.72511 7.67405 2.78522 7.47692 2.88519C7.27978 2.98517 7.1043 3.12304 6.96051 3.29092C6.81672 3.45879 6.70746 3.65338 6.63897 3.86353L2.48494 16.3256C2.34932 16.7546 2.38812 17.2198 2.59295 17.6204C2.79779 18.021 3.15218 18.3249 3.57938 18.4661L13.006 21.6103C13.9462 20.6064 14.5288 19.3203 14.6632 17.9514C14.7977 16.5826 14.4766 15.2077 13.7498 14.04H13.7619ZM8.30783 10.0613V16.5312H7.3706V10.0795L8.30783 10.0613Z" fill="#2293C8"/>
<path d="M13.2177 13.2841C12.6867 12.664 12.0423 12.151 11.319 11.7725V14.7958C12.0454 14.4142 12.6903 13.8946 13.2177 13.266" fill="#E43D30"/>
<path d="M22.3844 7.32821L13.7316 4.43793C14.8185 5.62647 15.4701 7.14853 15.58 8.75536C15.6898 10.3622 15.2514 11.9587 14.3363 13.2841C15.2255 14.5699 15.6669 16.1125 15.5926 17.674C15.5183 19.2355 14.9324 20.7292 13.9251 21.9247L17.1782 23.0071C17.3882 23.0768 17.6099 23.1043 17.8306 23.0879C18.0512 23.0714 18.2664 23.0114 18.4638 22.9114C18.6611 22.8113 18.8367 22.6731 18.9803 22.5048C19.1239 22.3365 19.2328 22.1414 19.3006 21.9308L23.4727 9.47476C23.6103 9.04655 23.5731 8.58134 23.3692 8.18043C23.1654 7.77952 22.8114 7.47539 22.3844 7.33426V7.32821ZM20.0927 16.5191H18.9196L16.501 13.2841L18.9196 10.0552H20.129L17.7103 13.2962L20.0927 16.5191Z" fill="#215C9C"/>
</g>
<defs>
<clipPath id="clip0_397_6623">
<rect width="22.9167" height="22.1971" fill="white" transform="translate(1.54167 1.80768)"/>
</clipPath>
</defs>
</svg>
