<svg width="26" height="26" viewBox="0 0 26 26" fill="none" xmlns="http://www.w3.org/2000/svg">
<g clip-path="url(#clip0_397_6654)">
<path d="M13.0044 4.81061C6.09747 4.81061 1.54459 8.43535 1.54459 12.9092C1.54459 17.383 6.09455 21.0048 13.0044 21.0048C19.9142 21.0048 24.4613 17.3772 24.4613 12.9092C24.4613 8.4412 19.9084 4.81061 13.0044 4.81061Z" fill="white"/>
<path d="M15.0539 15.9337C17.0215 15.5911 23.6649 14.2238 22.8451 10.4351C22.5523 9.07363 21.1527 7.57747 19.0388 6.53807C17.1264 5.71641 15.0622 5.30736 12.981 5.33762C6.5718 5.33762 2.1126 8.72814 2.1126 12.9092C2.1126 15.8195 4.27632 18.3463 7.75759 19.6111C8.48664 17.667 11.4263 16.5603 15.0539 15.9337Z" fill="#007DC5"/>
<path d="M13.0044 17.2747C10.1263 17.6348 8.80871 18.563 7.96255 19.6902C9.57384 20.2256 11.2626 20.4908 12.9605 20.4749C19.3726 20.4749 23.8318 17.0873 23.8318 12.9092C23.8317 12.5428 23.7974 12.1771 23.7293 11.8171C23.5273 16.7242 16.1607 16.8823 13.0044 17.2747Z" fill="url(#paint0_linear_397_6654)"/>
<path d="M6.78554 8.95654H4.63646L4.65988 9.01803C4.74529 9.35346 4.77399 9.70082 4.74479 10.0457C4.74479 10.1336 4.74479 15.0232 4.74479 15.0232H4.78578C4.78578 15.0232 5.76663 15.0583 6.68599 15.0583C8.60669 15.0583 9.90668 13.7583 9.90668 11.82C9.89497 10.075 8.67403 8.95654 6.78554 8.95654ZM5.66415 9.49821C5.78712 9.49821 6.16774 9.46014 6.44004 9.46014C8.08259 9.46014 8.84677 10.2565 8.84677 11.9635C8.84677 13.7202 8.1675 14.5986 6.77089 14.5986C5.74613 14.5986 5.66415 14.5488 5.66415 13.9428V9.49821Z" fill="white"/>
<path d="M15.6658 14.9675C15.6336 14.6103 15.619 14.3819 15.619 14.1623V12.0396H14.6001L14.6323 12.1069C14.7135 12.3135 14.7485 12.5354 14.7348 12.7569C14.7348 12.7716 14.7348 14.2209 14.6996 14.5751C14.44 14.6321 14.1749 14.6606 13.9091 14.6601C12.2871 14.6601 11.4643 13.729 11.4643 11.8961C11.4643 10.4966 12.3895 9.45132 13.7159 9.3547C14.3564 9.28798 14.9981 9.47042 15.5077 9.86416L15.5809 9.92857V9.07069H15.5458C15.0856 8.97112 14.617 8.91525 14.1463 8.90381C11.8039 8.90381 10.4191 10.1306 10.4191 12.1889C10.4191 14.379 12.1202 15.1607 13.7129 15.1607C14.3539 15.1628 14.994 15.1158 15.6278 15.0202H15.6688L15.6658 14.9675Z" fill="white"/>
<path d="M19.3111 11.6853C19.6318 11.608 19.9179 11.4268 20.1249 11.17C20.332 10.9131 20.4483 10.5951 20.4559 10.2653C20.4559 9.4455 19.7151 8.95654 18.4766 8.95654H16.6379V9.00924C16.6846 9.27396 16.7032 9.54287 16.6935 9.81149V15.0612H16.7375C16.7375 15.0612 17.4607 15.0466 18.3478 15.0466C19.8937 15.0466 20.7809 14.3761 20.7809 13.2049C20.7926 12.4817 20.1924 11.8757 19.3111 11.6853ZM17.6217 11.9781H18.096C19.191 11.9781 19.7473 12.4085 19.7473 13.2576C19.7473 14.1067 19.2701 14.5869 18.2834 14.5869C17.8091 14.5869 17.6217 14.4141 17.6217 13.972V11.9781ZM17.6217 9.42793H18.2219C19.1676 9.42793 19.5717 9.72073 19.5717 10.3854C19.5717 11.1466 19.0769 11.5038 18.0111 11.5038H17.6188L17.6217 9.42793Z" fill="white"/>
</g>
<defs>
<linearGradient id="paint0_linear_397_6654" x1="7.70196" y1="16.1445" x2="23.9635" y2="16.1445" gradientUnits="userSpaceOnUse">
<stop offset="0.1" stop-color="#007DC5"/>
<stop offset="0.23" stop-color="#0083CB"/>
<stop offset="0.4" stop-color="#0095DA"/>
<stop offset="0.75" stop-color="#00B49D"/>
<stop offset="1" stop-color="#72BF44"/>
</linearGradient>
<clipPath id="clip0_397_6654">
<rect width="22.9167" height="16.1913" fill="white" transform="translate(1.54166 4.81061)"/>
</clipPath>
</defs>
</svg>
