<svg width="26" height="26" viewBox="0 0 26 26" fill="none" xmlns="http://www.w3.org/2000/svg">
<g clip-path="url(#clip0_397_6618)">
<path d="M16.5449 14.8297C16.4915 14.5175 16.4006 14.2128 16.2742 13.9221C15.9071 13.0591 15.2775 12.3321 14.4738 11.8435C13.8391 11.4712 13.1148 11.2774 12.3782 11.2825C11.6415 11.2877 10.92 11.4917 10.2906 11.8727C9.70426 12.2225 9.22907 12.7299 8.91972 13.3366C8.81441 13.544 8.72588 13.7593 8.65496 13.9807C8.46345 14.5556 8.39029 15.1629 8.43982 15.7665C8.48935 16.3701 8.66057 16.9576 8.94325 17.494C9.13665 17.8222 9.43191 18.079 9.78461 18.2259C9.96064 18.2989 10.1515 18.3295 10.3416 18.3152C10.5318 18.301 10.7159 18.2423 10.879 18.1439C11.0584 18.0023 11.1924 17.8116 11.2645 17.5952C11.3366 17.3789 11.3437 17.1463 11.2849 16.926C11.1483 16.3662 11.1625 15.7805 11.3261 15.2279C11.3911 15.0473 11.4956 14.8833 11.6321 14.7478C11.7168 14.6665 11.8142 14.5993 11.9204 14.5487C12.1421 14.4378 12.3925 14.3969 12.6382 14.4316C12.8513 14.4774 13.0505 14.573 13.2193 14.7104C13.388 14.8478 13.5216 15.0232 13.609 15.222C13.7723 15.6118 13.8583 16.0294 13.862 16.4517C13.865 18.3586 13.5814 20.2553 13.0206 22.0788C12.9676 22.2661 12.9147 22.4477 12.8676 22.635C12.8205 22.8224 12.7499 22.9571 12.8676 23.0976C12.9087 23.1557 12.966 23.2005 13.0324 23.2264C13.3148 23.3377 13.5384 23.1679 13.7266 22.9805C14.7954 21.8412 15.583 20.47 16.0271 18.9754C16.212 18.4277 16.3594 17.8682 16.4684 17.3007C16.6365 16.4819 16.6663 15.6408 16.5566 14.8122" fill="#008375"/>
<path d="M24.4525 6.152C24.4503 6.0876 24.435 6.02431 24.4074 5.966C24.3799 5.90769 24.3407 5.85558 24.2923 5.81284C24.2438 5.7701 24.1871 5.73763 24.1256 5.71742C24.0642 5.69721 23.9992 5.68967 23.9347 5.69528C23.6636 5.7326 23.401 5.81577 23.1581 5.9412C18.2015 7.70661 12.879 8.20591 7.67828 7.39335C6.80162 7.26453 5.91319 7.09473 5.03065 6.9542C4.47759 6.86636 3.93042 6.7434 3.37736 6.70242C2.87729 6.60692 2.35946 6.70538 1.92999 6.97762C1.70937 7.21907 1.57256 7.52469 1.53972 7.8494C1.50688 8.17411 1.57975 8.50073 1.7476 8.78109C2.12234 9.41983 2.66561 9.9443 3.31852 10.2976C3.92449 10.725 4.64163 10.969 5.38367 11.0003C7.34487 10.8715 9.30607 10.6763 11.2673 10.4148C14.5915 9.98732 18.0687 9.58328 21.1929 8.30094C22.2265 7.89186 23.2002 7.34632 24.0877 6.67899C24.2465 6.56188 24.476 6.3628 24.476 6.13444" fill="#008375"/>
<path d="M10.5083 4.49489C10.5083 4.9996 10.7098 5.48364 11.0684 5.84053C11.427 6.19741 11.9133 6.39791 12.4205 6.39791C12.9276 6.39791 13.414 6.19741 13.7726 5.84053C14.1312 5.48364 14.3326 4.9996 14.3326 4.49489C14.3324 4.3373 14.2983 4.18159 14.2326 4.03817C14.0679 3.6927 13.8796 3.52289 13.9031 3.10715C13.9031 2.55089 13.203 2.52161 12.8147 2.52161C12.383 2.50761 11.9539 2.59383 11.5615 2.77341C11.2567 2.92779 10.9988 3.16022 10.8142 3.44678C10.6208 3.73927 10.5147 4.08038 10.5083 4.43049V4.47733" fill="#D50037"/>
</g>
<defs>
<clipPath id="clip0_397_6618">
<rect width="22.9167" height="20.7341" fill="white" transform="translate(1.54167 2.53918)"/>
</clipPath>
</defs>
</svg>
