<svg width="26" height="26" viewBox="0 0 26 26" fill="none" xmlns="http://www.w3.org/2000/svg">
<path d="M23.7665 7.50718C23.9076 7.6294 24 7.80804 24 8.00547C24 8.17627 23.9326 8.33923 23.8214 8.45205L21.9833 10.2964L15.7359 4.03795H15.7907C15.7046 3.97998 15.6215 3.91103 15.5353 3.83895C13.8415 2.18582 12.3184 2.64493 12.1194 2.67471C13.3667 2.11687 16.814 0.708183 20.3929 4.11003L20.3819 4.11317L23.765 7.50718H23.7665Z" fill="#0066B1"/>
<path d="M10.7091 3.17925C11.0601 3.08367 11.4284 3.03196 11.806 3.03196C12.7493 3.03196 13.619 3.35161 14.3162 3.88908L14.357 3.92042C14.6014 4.11629 14.8255 4.33723 15.0214 4.58637L21.3769 10.9341L18.851 13.4584C18.8338 13.4835 18.8103 13.5086 18.7852 13.5243C18.6755 13.6198 18.5376 13.6763 18.3841 13.6763C18.2007 13.6763 18.0346 13.5948 17.9218 13.4694L16.557 12.1015L13.094 8.64164C13.0517 8.58836 12.9875 8.55546 12.9138 8.55546C12.8402 8.55546 12.7712 8.59307 12.7289 8.64477L7.60186 13.7718C7.60186 13.7718 7.59089 13.7844 7.58776 13.7953C7.55015 13.8329 7.52665 13.8878 7.52665 13.9442C7.52665 14.01 7.55485 14.0727 7.60029 14.1119L12.7446 19.2593C12.7869 19.3016 12.8496 19.3329 12.9138 19.3329C12.9781 19.3329 13.0423 19.3016 13.0862 19.2546L18.2039 14.1354C18.3167 14.0084 18.4796 13.9254 18.6645 13.9254C18.7084 13.9254 18.7601 13.9129 18.8056 13.9254H23.3999C23.4359 13.9176 23.4735 13.9254 23.508 13.9254C23.7493 13.9254 23.942 14.1197 23.942 14.3579C23.7211 20.2198 18.8964 24.905 12.9749 24.905C7.05343 24.905 2.00001 19.9879 2.00001 13.9238C2.00001 8.64007 5.73875 4.22441 10.7091 3.17925Z" fill="#0066B1"/>
</svg>
