<svg width="26" height="26" viewBox="0 0 26 26" fill="none" xmlns="http://www.w3.org/2000/svg">
<g clip-path="url(#clip0_397_6774)">
<path d="M1.5441 17.404C1.5441 21.2332 3.89022 24.367 12.7739 24.367H13.2285C22.1146 24.367 24.4583 21.2332 24.4583 17.404V8.40849C24.4583 4.57689 22.1122 1.44305 13.2285 1.44305H12.7739C3.88779 1.44792 1.5441 4.58176 1.5441 8.40849V17.404Z" fill="url(#paint0_linear_397_6774)"/>
<path d="M13.2261 24.3646C13.8655 24.3646 14.4684 24.3476 15.0422 24.316V20.4382C16.6687 20.426 18.8495 19.7745 19.822 17.6715C20.9744 15.177 19.839 13.2685 18.7377 12.3228C19.4281 11.4597 19.8585 9.87455 19.2725 8.20187C18.2757 5.35734 15.4434 5.20904 14.4806 5.2066H13.2139V24.3549L13.2261 24.3646ZM15.0422 7.16617H15.2853C15.9626 7.20524 16.5993 7.50162 17.0653 7.99468C17.5312 8.48775 17.7912 9.14023 17.7919 9.81863C17.7919 11.6566 16.0609 12.5294 15.881 12.5902C15.9612 12.5902 18.356 13.3196 18.356 15.5466C18.356 17.2606 16.8048 18.5029 15.0373 18.5029L15.0422 7.16617Z" fill="white"/>
<path d="M9.4115 12.4492C8.87177 11.9824 7.96736 11.0172 8.00869 9.81374C8.04515 8.72455 8.56301 7.88335 9.43338 7.50408C10.2114 7.16371 11.1547 7.15884 11.7309 7.15884H11.8646V5.21387H11.7649C11.021 5.21387 9.79077 5.21387 8.67241 5.70011C7.08483 6.39301 6.10261 7.91982 6.04183 9.7797C5.99078 11.27 6.72501 12.7482 8.1108 13.9419C9.42852 15.0798 10.0995 15.7386 9.76889 17.1657C9.49173 18.3643 7.62455 19.9714 7.02647 20.4041H9.7227C10.3694 19.9179 11.4245 18.7169 11.6847 17.5742C12.2974 14.9387 10.6976 13.5578 9.4115 12.4492Z" fill="white"/>
</g>
<defs>
<linearGradient id="paint0_linear_397_6774" x1="13.0413" y1="9.57718" x2="13.0413" y2="24.2374" gradientUnits="userSpaceOnUse">
<stop stop-color="#92C83E"/>
<stop offset="0.6" stop-color="#009D54"/>
<stop offset="1" stop-color="#007360"/>
</linearGradient>
<clipPath id="clip0_397_6774">
<rect width="22.9167" height="22.9167" fill="white" transform="translate(1.54166 1.44794)"/>
</clipPath>
</defs>
</svg>
