<svg width="26" height="26" viewBox="0 0 26 26" fill="none" xmlns="http://www.w3.org/2000/svg">
<path d="M14.1938 8.7031L15.0375 7.00623C15.0375 7.00623 15.1625 6.84373 14.1938 6.48123C13.225 6.11873 9.95313 5.43123 7.81251 7.37185C5.67188 9.31248 6.84376 11.5687 7.81251 12.3375C8.78126 13.1062 10.7781 14.1562 10.7781 15.6469C10.7762 15.9961 10.6983 16.3408 10.5499 16.657C10.4015 16.9732 10.1862 17.2534 9.91875 17.4781C11.0875 16.7906 13.2531 15.5656 12.4563 13.1844C11.8313 11.3594 9.83126 10.9656 9.30626 9.74685C8.78126 8.5281 10.5 6.68748 12.9813 7.41248C14.2313 7.77185 14.1938 8.7031 14.1938 8.7031Z" fill="#0071BB"/>
<path d="M22.1469 15.0938C22.8344 12.9531 23.5875 10.4688 21.3406 10.3281C19.7781 10.2281 18.0844 11.1688 17.0719 11.8469C17.0719 11.8469 18.6531 8.0969 18.9656 7.45002C19.2781 6.80315 19.1656 6.30627 18.2469 6.30627H16.3375C16.9844 6.7594 16.5531 7.72815 16.5531 7.72815L13.5531 14.5438C12.6625 16.2469 11.35 17.6688 9.26562 18.0406C8.50254 18.1093 7.73344 18.0253 7.00312 17.7938C5.18749 17.0938 4.62499 15.1375 4.72499 13.7125L3.16249 17.15C3.16249 17.15 4.68124 19.5531 7.25312 19.7375C9.30624 19.8844 10.7719 19.3688 11.9656 18.1906C11.3125 19.7031 13.0281 19.6563 13.0281 19.6563H14.6437C14.4601 19.5604 14.3176 19.401 14.2428 19.2078C14.1681 19.0146 14.1662 18.8008 14.2375 18.6063C14.2906 18.4594 14.7937 17.1469 14.7937 17.1469C17.2219 12.2063 19.875 11.8313 20.1687 12.5C20.7187 13.7188 19.0281 17.025 18.625 18.175C17.9625 19.6969 19.6844 19.6469 19.6844 19.6469H21.2969C21.1216 19.5435 20.989 19.3809 20.9231 19.1883C20.8572 18.9958 20.8623 18.786 20.9375 18.5969C21.0312 18.3188 22.0625 15.4063 22.1469 15.0938Z" fill="#0071BB"/>
</svg>
