<svg width="26" height="26" viewBox="0 0 26 26" fill="none" xmlns="http://www.w3.org/2000/svg">
<g clip-path="url(#clip0_397_6645)">
<path fill-rule="evenodd" clip-rule="evenodd" d="M10.1332 9.68392C10.8762 9.97184 11.6161 10.2814 12.3375 10.6313C10.0279 11.5601 7.78332 12.6715 5.65948 13.9502C4.93812 13.5787 4.19509 13.2071 3.45515 12.879C5.59757 11.6437 7.82357 10.5725 10.1332 9.68392Z" fill="#0067B1"/>
<path fill-rule="evenodd" clip-rule="evenodd" d="M7.37155 8.71488C4.98146 9.47649 2.67186 10.4672 0.467529 11.6622C1.16722 11.9316 1.87001 12.1978 2.54802 12.4858C4.67186 11.2288 6.91644 10.1793 9.24462 9.35265C8.62542 9.12664 8.00932 8.90064 7.36846 8.71488H7.37155Z" fill="#0067B1"/>
<path fill-rule="evenodd" clip-rule="evenodd" d="M15.1394 9.58174C13.2446 8.67462 11.2849 7.91301 9.28796 7.29382C8.5666 7.50125 7.86691 7.72725 7.1858 7.95326C9.24772 8.57246 11.2663 9.35574 13.2044 10.2814C13.8421 10.0338 14.483 9.80775 15.1425 9.58174H15.1394Z" fill="#EE2A24"/>
<path fill-rule="evenodd" clip-rule="evenodd" d="M18.2106 8.67461C16.2942 7.82941 14.2942 7.12972 12.2539 6.57245C11.5945 6.69629 10.9567 6.8418 10.3158 7.00588C12.3344 7.60341 14.3127 8.34644 16.2106 9.25356C16.87 9.04613 17.5511 8.8418 18.2106 8.67771V8.67461Z" fill="#EE2A24"/>
<path fill-rule="evenodd" clip-rule="evenodd" d="M23.1579 10.3217C18.3158 11.9502 13.7802 14.2783 9.68115 17.1855C10.7121 17.8232 11.6997 18.4827 12.6688 19.204C16.5418 16.1328 20.8514 13.5787 25.4675 11.6406C24.7059 11.1669 23.9412 10.7335 23.1579 10.3217Z" fill="#EE2A24"/>
<path fill-rule="evenodd" clip-rule="evenodd" d="M19.8174 8.75513C14.7895 10.074 10.0712 12.2164 5.80499 15.0616C6.75235 15.5353 7.69972 16.0307 8.62852 16.5663C12.8112 13.6808 17.4489 11.4146 22.3932 9.9316C21.548 9.51983 20.7028 9.10807 19.8174 8.75822V8.75513Z" fill="#EE2A24"/>
</g>
<defs>
<clipPath id="clip0_397_6645">
<rect width="25" height="25" fill="white" transform="translate(0.5 0.40625)"/>
</clipPath>
</defs>
</svg>
