<svg width="26" height="26" viewBox="0 0 26 26" fill="none" xmlns="http://www.w3.org/2000/svg">
<g clip-path="url(#clip0_397_6630)">
<path d="M11.0215 8.16628C11.6898 8.6095 12.335 9.03755 12.9801 9.46518C14.4539 10.4418 15.9301 11.4146 17.4005 12.3966C17.9433 12.7594 18.5003 13.1095 19.0013 13.5266C19.7223 14.127 20.1073 14.922 20.0817 15.8897C20.0564 16.8457 19.7251 17.6934 19.1748 18.4589C19.1649 18.4728 19.1471 18.4808 19.1227 18.4993C18.5798 18.1399 18.0349 17.7797 17.4903 17.4191C15.0021 15.7705 12.5139 14.1215 10.0256 12.4729C9.33411 12.0149 8.63389 11.5696 7.95355 11.0952C7.18459 10.5593 6.732 9.79675 6.57506 8.87071C6.39701 7.82081 6.56719 6.8341 7.20447 5.95862C7.45126 5.61904 7.75976 5.35193 8.10676 5.1219C9.78256 4.01133 11.4509 2.88854 13.1304 1.78471C13.8108 1.3377 14.5329 1.32927 15.2381 1.72446C15.9226 2.10827 16.2709 2.7297 16.2791 3.51629C16.2866 4.23336 16 4.83204 15.4046 5.23818C14.5694 5.80821 13.7222 6.36013 12.8795 6.91878C12.2944 7.30681 11.7081 7.69357 11.1225 8.0816C11.0936 8.10098 11.0683 8.12668 11.0207 8.16628H11.0215Z" fill="#0473EA"/>
<path d="M6.96016 12.467C6.98335 12.4805 7.00654 12.4936 7.02973 12.5071C7.1026 12.5559 7.17548 12.6048 7.24836 12.6541L7.25002 12.6549C7.73615 12.9798 8.2227 13.3046 8.70884 13.6299L8.71629 13.6353C8.89932 13.7537 9.08234 13.8717 9.26495 13.9901C9.44798 14.1106 9.63101 14.2311 9.81403 14.3516C9.82687 14.3621 9.84012 14.3726 9.85295 14.3832L9.85503 14.3848C10.241 14.6406 10.6265 14.8963 11.0124 15.1525C11.0356 15.166 11.0584 15.1799 11.0815 15.1933C11.1234 15.2241 11.1648 15.2548 11.2066 15.2856L11.2128 15.2907C11.4099 15.4192 11.6074 15.5477 11.8045 15.6762C11.8087 15.6837 11.8149 15.6875 11.8236 15.6875C11.9263 15.7554 12.0294 15.8228 12.1321 15.8906C12.1379 15.8986 12.1457 15.9028 12.1557 15.9037C12.1714 15.9214 12.1838 15.9441 12.2029 15.9568C12.6646 16.2643 13.1263 16.5727 13.5901 16.8769C13.9578 17.1175 14.3288 17.3525 14.6982 17.5902C14.7342 17.6146 14.7702 17.6395 14.8067 17.6639C15.0845 17.8472 15.3624 18.0304 15.6398 18.2137L15.6406 18.2145C16.1951 18.5819 16.75 18.9493 17.3044 19.3167C17.3264 19.331 17.3487 19.3449 17.3707 19.3592C17.5425 19.4764 17.7139 19.5939 17.8854 19.711C17.897 19.7153 17.9081 19.719 17.9197 19.7233C17.9317 19.7329 17.9438 19.7422 17.9558 19.7519C17.9595 19.762 17.9665 19.7683 17.9769 19.7704C18.0357 19.8088 18.0945 19.8475 18.1533 19.8859L18.1587 19.8901C18.1877 19.9074 18.2166 19.9246 18.2456 19.9419L18.2473 19.9428C18.3189 19.9908 18.391 20.0388 18.4626 20.0864C18.4858 20.1008 18.509 20.1151 18.5322 20.1298C18.7272 20.2608 18.9218 20.3919 19.1169 20.5229C19.1396 20.5364 19.1624 20.5499 19.1852 20.5633C19.2208 20.5907 19.2568 20.6177 19.2924 20.6451C19.3189 20.6683 19.3458 20.6914 19.3723 20.7146C19.7367 21.0702 19.9603 21.5033 20.0564 22.0063C20.0585 22.0421 20.0606 22.0784 20.0626 22.1142C20.0635 22.1837 20.0639 22.2532 20.0647 22.3227C20.0622 22.4137 20.0597 22.5047 20.0568 22.5962C20.0208 22.7247 19.9893 22.8544 19.9488 22.9812C19.7877 23.4856 19.4552 23.8491 19.0287 24.1344C19.0187 24.1339 19.0109 24.1373 19.0046 24.1453C18.7872 24.2191 18.5703 24.2932 18.3529 24.3669C18.3293 24.3678 18.3057 24.3686 18.2821 24.3699C18.1235 24.3716 17.9649 24.3737 17.8063 24.3754C17.7595 24.3707 17.7123 24.3665 17.6655 24.3619C17.5682 24.3387 17.4709 24.3155 17.374 24.2924L17.3723 24.2915C17.3131 24.2667 17.2539 24.2414 17.1943 24.2165C17.1624 24.2009 17.1309 24.1853 17.099 24.1698C16.9984 24.112 16.8974 24.0543 16.7967 23.9966L16.7951 23.9953C16.6137 23.8748 16.4323 23.7548 16.2506 23.6343L16.2456 23.6317C16.1392 23.5584 16.0323 23.4856 15.9259 23.4122C15.9027 23.3983 15.8795 23.3844 15.8564 23.3705C15.7835 23.3221 15.7102 23.2736 15.6373 23.2248L15.6361 23.2235C15.5644 23.175 15.4924 23.1266 15.4207 23.0786C15.4162 23.0706 15.4096 23.0659 15.4004 23.0651C15.2319 22.9484 15.0655 22.8283 14.894 22.7162C14.5657 22.5014 14.2344 22.2911 13.9044 22.0788C13.4451 21.7734 12.9859 21.4683 12.5267 21.1629C12.5226 21.1544 12.5159 21.1502 12.5068 21.1494C12.3089 21.0179 12.111 20.8861 11.913 20.7546C11.9093 20.7466 11.9035 20.7424 11.8948 20.742C11.6004 20.5482 11.306 20.3544 11.012 20.1606C10.9917 20.1467 10.9714 20.1328 10.9511 20.1193C10.8621 20.0611 10.7726 20.003 10.6836 19.9449C10.6103 19.8977 10.5366 19.8509 10.4633 19.8037L10.4588 19.8016C10.448 19.7924 10.4376 19.7835 10.4269 19.7742C10.4037 19.7595 10.3801 19.7443 10.3569 19.7296C10.3205 19.7056 10.2836 19.6815 10.2472 19.658C10.2426 19.6483 10.2347 19.6441 10.2244 19.6453C9.90886 19.4347 9.59332 19.224 9.27779 19.0129C9.25419 18.9973 9.231 18.9822 9.2074 18.9666C9.14487 18.9245 9.08193 18.8823 9.0194 18.8402C9.0165 18.8322 9.01071 18.8288 9.00242 18.8301C8.97178 18.8099 8.94073 18.7892 8.91008 18.769C8.87406 18.7441 8.83845 18.7197 8.80242 18.6948C8.68482 18.6182 8.56681 18.5415 8.44921 18.4644L8.44051 18.4715L8.44962 18.4648C8.33906 18.3928 8.22891 18.3207 8.11835 18.2491L8.11918 18.2499C7.82808 18.0553 7.53739 17.8606 7.24629 17.6664L7.24505 17.6656C7.14153 17.5754 7.03842 17.4848 6.9349 17.3947L6.93283 17.393C6.69556 17.0728 6.42433 16.7724 6.23261 16.4265C6.08354 16.1573 6.03385 15.8308 5.94027 15.53C5.93696 15.3589 5.93364 15.1879 5.93033 15.0168C5.93116 14.9658 5.93199 14.9153 5.93281 14.8643C5.93489 14.8158 5.93737 14.767 5.93944 14.7185C5.98085 14.5155 5.99783 14.3031 6.06905 14.1118C6.23178 13.6733 6.42102 13.2452 6.59949 12.8129C6.64256 12.7485 6.68562 12.6836 6.72869 12.6191C6.76844 12.5656 6.80819 12.5121 6.84794 12.4586L6.96099 12.4679L6.96016 12.467Z" fill="#38D200"/>
<path d="M13.9818 8.14691C14.4526 7.8343 14.9002 7.53727 15.3474 7.24025C15.7404 6.97946 16.1359 6.72246 16.5255 6.45704C17.5872 5.73365 19.0191 6.14822 19.5396 7.33252C19.8717 8.08835 19.6912 9.01902 19.0912 9.64256C18.5616 10.1932 17.6589 10.3929 16.9512 10.0685C16.5818 9.89913 16.2427 9.65941 15.899 9.43696C15.2953 9.04598 14.6982 8.64405 14.099 8.24591C14.065 8.22316 14.0356 8.19325 13.9814 8.14691H13.9818Z" fill="#38D200"/>
<path d="M11.629 22.3219C11.4066 22.4693 11.2012 22.6058 10.9954 22.7419C10.3292 23.1826 9.6691 23.6338 8.99456 24.0615C8.04382 24.6639 6.8144 24.369 6.22309 23.4135C5.74109 22.6349 5.83592 21.5943 6.44959 20.9282C7.08687 20.2364 8.08067 20.0476 8.8753 20.5212C9.60202 20.9543 10.2973 21.4422 11.0058 21.9065C11.2078 22.0388 11.4078 22.174 11.629 22.3215V22.3219Z" fill="#0473EA"/>
</g>
<defs>
<clipPath id="clip0_397_6630">
<rect width="14.1667" height="22.9365" fill="white" transform="translate(5.91667 1.43799)"/>
</clipPath>
</defs>
</svg>
