<svg width="26" height="26" viewBox="0 0 26 26" fill="none" xmlns="http://www.w3.org/2000/svg">
<g clip-path="url(#clip0_397_6662)">
<path d="M23.4167 2.48956H2.58334V23.3229H23.4167V2.48956Z" fill="#0091D0"/>
<path d="M2.58334 2.48956L7.79015 7.69942L13 2.48956H2.58334Z" fill="#0091D0"/>
<path d="M2.58334 2.48956V12.9062L7.79015 7.69942L2.58334 2.48956Z" fill="#009AD8"/>
<path d="M13 12.9062L7.79319 7.69635L2.58334 12.9062H13Z" fill="#0091D0"/>
<path d="M13 12.9062V2.48956L7.79319 7.69637L13 12.9062Z" fill="#0082C9"/>
<path d="M13 2.48956V12.9062L18.2068 7.69942L13 2.48956Z" fill="#0071BB"/>
<path d="M23.4167 12.9062L18.2099 7.69635L13 12.9062H23.4167Z" fill="#004C98"/>
<path d="M2.58334 12.9062L7.79015 18.1161L13 12.9062H2.58334Z" fill="#0082C9"/>
<path d="M2.58334 12.9062V23.3229L7.79015 18.1161L2.58334 12.9062Z" fill="#0071BB"/>
<path d="M13 23.3229L7.79319 18.113L2.58334 23.3229H13Z" fill="#0066B3"/>
<path d="M13 23.3229V12.9062L7.79319 18.1131L13 23.3229Z" fill="#00529C"/>
<path d="M13 12.9062L18.2068 18.1161L23.4167 12.9062H13Z" fill="#1B3281"/>
<path d="M13 12.9062V23.3229L18.2068 18.1161L13 12.9062Z" fill="#004C98"/>
<path d="M23.4167 23.3229L18.2099 18.113L13 23.3229H23.4167Z" fill="#1B3281"/>
<path d="M23.4167 23.3229V12.9062L18.2099 18.1131L23.4167 23.3229Z" fill="#1B3281"/>
<path d="M13 2.48956L18.2068 7.69942L23.4167 2.48956H13Z" fill="#0066B3"/>
<path d="M23.4167 12.9062V2.48956L18.2099 7.69637L23.4167 12.9062Z" fill="#00529C"/>
<path d="M23.4167 15.5112L16.7461 9.16016L6.62463 19.306L10.316 22.9973L16.7461 16.6676L23.4167 23.3016V15.5112Z" fill="white"/>
</g>
<defs>
<clipPath id="clip0_397_6662">
<rect width="20.8333" height="20.8333" fill="white" transform="translate(2.58334 2.48956)"/>
</clipPath>
</defs>
</svg>
