<svg width="26" height="26" viewBox="0 0 26 26" fill="none" xmlns="http://www.w3.org/2000/svg">
<g clip-path="url(#clip0_397_6538)">
<path d="M12.5093 2.06457C10.3648 2.16182 8.29726 2.89295 6.56829 4.16544C4.83933 5.43794 3.52659 7.19464 2.79618 9.21332C2.06576 11.232 1.95047 13.422 2.46488 15.5062C2.9793 17.5904 4.10032 19.4752 5.68612 20.9222C7.27192 22.3692 9.25124 23.3134 11.3737 23.6353C13.4962 23.9572 15.6665 23.6423 17.61 22.7306C19.5536 21.8189 21.183 20.3512 22.2923 18.5132C23.4015 16.6752 23.9408 14.5496 23.8417 12.4051C23.778 10.9811 23.4343 9.5836 22.8302 8.29252C22.2261 7.00144 21.3734 5.8421 20.3209 4.88077C19.2685 3.91943 18.0368 3.17497 16.6965 2.68994C15.3561 2.2049 13.9333 1.98881 12.5093 2.05402V2.06457Z" fill="url(#paint0_radial_397_6538)"/>
<path fill-rule="evenodd" clip-rule="evenodd" d="M12.5195 2.26746C6.63942 2.53377 2.08892 7.51489 2.35549 13.3952C2.62057 19.2736 7.60293 23.8241 13.4825 23.5575C19.3604 23.2912 23.9111 18.3096 23.6443 12.4312C23.3869 6.71594 18.6729 2.25653 13.0102 2.25629C12.8474 2.25629 12.6838 2.26001 12.5195 2.26746Z" fill="white"/>
<path fill-rule="evenodd" clip-rule="evenodd" d="M12.5125 2.11768C6.72865 2.37829 2.2144 7.14223 2.2 12.8709V12.9235C2.20025 13.0802 2.20397 13.237 2.21117 13.3949C2.48096 19.3527 7.52935 23.9635 13.4886 23.6949C19.4464 23.4261 24.0595 18.3767 23.7887 12.4177C23.5271 6.62672 18.7487 2.10651 13.0098 2.10651C12.8448 2.10651 12.679 2.11023 12.5125 2.11768ZM13.798 22.4058C13.7876 22.162 14.1452 22.1002 14.1452 22.1002C17.3396 21.4718 16.4058 19.376 15.2745 18.3075C14.7995 17.857 10.354 14.0218 10.354 14.0218C6.11349 10.3706 6.45377 7.52123 6.45377 7.52123C6.65729 4.01268 9.72877 3.14274 12.0524 3.34428C12.3232 3.3681 12.4739 3.53365 12.4262 3.75927C12.3748 4.00722 12.0149 4.02583 12.0149 4.02583C11.2763 4.06852 10.6148 4.14497 10.1125 4.48277C8.23907 5.74189 8.7933 7.88484 11.2885 10.2695C11.6014 10.5691 11.936 10.8848 12.278 11.2048C12.278 11.2048 12.7806 11.648 13.7769 12.5964C15.698 14.3663 16.7498 15.3207 16.7498 15.3207C20.1328 18.1385 18.9789 20.714 17.6833 21.6095C16.6982 22.2923 15.6056 22.6138 14.1725 22.6897C14.1604 22.6914 14.147 22.6924 14.1331 22.6924C14.0015 22.6924 13.8082 22.612 13.798 22.4058ZM14.589 12.0035C13.4924 11.7731 13.269 10.7766 13.269 10.7766C13.1799 10.4277 13.1578 9.98636 13.2313 9.42344C13.3815 8.24449 13.6982 7.68976 14.0601 6.77639C14.5483 5.54904 13.3616 4.831 13.5589 4.37977C13.8248 3.76846 14.6711 4.54532 15.6163 4.60141C16.4311 4.64683 16.9188 4.60563 17.551 4.69101C18.3936 4.8027 19.3983 5.08689 19.8458 5.61332C20.2566 6.0921 19.6294 6.68108 18.8736 6.31275C18.3239 6.04445 17.6299 6.20851 18.0375 6.78309C18.5259 7.32987 18.7627 7.34626 19.2613 7.47631C20.6361 7.83893 20.6656 9.15613 19.7337 9.83768C18.6748 10.6133 17.6021 10.2926 17.1712 8.77067C16.9575 8.01267 16.4202 7.62573 15.8719 7.8434C15.3256 8.0571 15.6483 9.0561 16.0635 9.98114C16.7848 11.8223 15.3239 12.0114 14.7682 12.0114C14.684 12.0114 14.6207 12.007 14.589 12.0035ZM10.5642 22.062C9.37235 21.9449 7.94644 21.5691 6.70644 20.4946C5.56521 19.507 4.85735 18.1509 4.51533 16.961C4.16289 15.7409 4.0167 14.3132 4.59599 14.4266C4.7747 14.4619 5.08271 15.245 5.41878 15.8173C5.76502 16.406 6.04573 16.7312 6.3123 16.93C6.43193 17.0213 6.83922 16.1147 7.43044 15.5996C7.77444 15.3164 8.15121 15.2184 8.21152 16.066C8.28697 17.1065 8.09884 18.3452 8.40239 18.3452C8.68707 18.3452 9.32519 18.1295 10.7327 18.0111C11.2624 17.9655 11.5627 18.0655 11.0579 18.7771C10.8064 19.131 10.4699 19.6321 9.67317 20.2032C10.8675 21.3216 12.3019 21.1893 12.3274 21.6639C12.3433 21.9379 11.8072 22.0891 11.1023 22.0891C10.931 22.0891 10.7499 22.0804 10.5642 22.062Z" fill="#0046FF"/>
</g>
<defs>
<radialGradient id="paint0_radial_397_6538" cx="0" cy="0" r="1" gradientUnits="userSpaceOnUse" gradientTransform="translate(14.6943 9.35338) scale(10.3109 10.3109)">
<stop stop-color="white"/>
<stop offset="1" stop-color="#CF9C51"/>
</radialGradient>
<clipPath id="clip0_397_6538">
<rect width="22" height="22" fill="white" transform="translate(2 1.90625)"/>
</clipPath>
</defs>
</svg>
