<svg width="26" height="26" viewBox="0 0 26 26" fill="none" xmlns="http://www.w3.org/2000/svg">
<g clip-path="url(#clip0_397_6710)">
<path d="M22.2686 14.6906C21.2587 17.2056 19.5594 17.9193 19.5594 17.9193C24.5554 12.8601 21.5015 7.02415 21.5015 7.02415C20.7635 5.7181 21.7006 5.15004 21.7006 5.15004C19.5546 5.68412 20.244 7.46114 20.244 7.46114C21.0871 9.3266 21.2587 11.4264 20.7295 13.4039L20.0255 13.0107C20.0255 13.0107 21.7006 6.4124 14.8693 4.09645V2.85352H13.4127V11.0346L20.1178 14.8556C19.9915 15.1033 19.8653 15.3412 19.7294 15.5548L12.9952 11.6706L6.23668 15.5548C6.09553 15.3284 5.9659 15.0951 5.84826 14.8556L12.5533 11.0346V2.83411H11.0968V4.07704C4.26546 6.39299 5.94051 12.9912 5.94051 12.9912L5.23165 13.3845C4.70534 11.4067 4.87681 9.30788 5.71717 7.44171C5.71717 7.44171 6.38719 5.66469 4.2606 5.13062C4.2606 5.13062 5.19766 5.69869 4.45967 7.00474C4.45967 7.00474 1.41059 12.831 6.40176 17.8999C6.40176 17.8999 4.70728 17.1861 3.69254 14.6711C3.48906 14.2897 3.16416 13.9872 2.76929 13.8113C2.37442 13.6354 1.93216 13.5963 1.51254 13.7001C1.758 13.856 1.97017 14.059 2.13683 14.2974C2.30348 14.5357 2.42133 14.8046 2.48359 15.0887C2.48359 15.0887 3.94016 19.7011 9.52853 20.4052V22.9493H12.2814V19.1962C10.3127 19.0675 8.47009 18.1819 7.13975 16.7249L7.8292 16.3219C9.24722 17.5961 11.0577 18.348 12.9612 18.4534H13.0146C14.9174 18.3453 16.7271 17.5938 18.1466 16.3219L18.836 16.7249C17.5056 18.1819 15.6631 19.0675 13.6943 19.1962V22.9493H16.4424V20.4052C22.0404 19.7011 23.4922 15.0887 23.4922 15.0887C23.5544 14.8046 23.6723 14.5357 23.8389 14.2974C24.0056 14.059 24.2177 13.856 24.4632 13.7001C24.0394 13.6004 23.5945 13.6434 23.1977 13.8225C22.8008 14.0016 22.4742 14.3068 22.2686 14.6906ZM18.6903 12.2629L14.9033 10.1558V5.63071C14.9033 5.63071 19.4623 6.85909 18.6903 12.2532V12.2629ZM11.0725 5.61614V10.1412L7.29027 12.2629C6.53285 6.85908 11.0725 5.61614 11.0725 5.61614ZM13.0146 13.3457L16.7822 15.5548H16.7482C15.7131 16.4679 14.3803 16.9717 13 16.9717C11.6197 16.9717 10.2869 16.4679 9.25177 15.5548H9.21778L13.0146 13.3457Z" fill="#0056A7"/>
</g>
<defs>
<clipPath id="clip0_397_6710">
<rect width="22.9167" height="20.1443" fill="white" transform="translate(1.54167 2.83411)"/>
</clipPath>
</defs>
</svg>
