<svg width="26" height="26" viewBox="0 0 26 26" fill="none" xmlns="http://www.w3.org/2000/svg">
<g clip-path="url(#clip0_397_6702)">
<path d="M1.57432 12.8695C1.56518 12.8724 1.5572 12.8781 1.55153 12.8858C1.54586 12.8935 1.5428 12.9028 1.5428 12.9124C1.5428 12.922 1.54586 12.9313 1.55153 12.939C1.5572 12.9467 1.56518 12.9524 1.57432 12.9552L5.10938 15.2902L6.12174 10.5264L1.57432 12.8695Z" fill="#E72511"/>
<path d="M22.5234 10.5223H21.6254C21.5702 10.5257 21.5162 10.5396 21.4662 10.5632L16.9759 12.8736C16.9351 12.8736 16.931 12.9308 16.9759 12.9593L20.4497 15.2453C20.4973 15.272 20.5504 15.2873 20.6049 15.2902H21.4988C21.5478 15.2902 21.5519 15.2902 21.4988 15.2453L17.9474 12.9103L22.5234 10.5632C22.5602 10.5428 22.5561 10.5223 22.5234 10.5223Z" fill="#F08300"/>
<path d="M20.5926 10.5223H14.3593L13.347 15.2902H19.5721C19.6211 15.2902 19.6252 15.2902 19.5721 15.2453L16.0289 12.9103L20.5804 10.5632C20.6457 10.5428 20.6416 10.5223 20.5926 10.5223Z" fill="#E72511"/>
<path d="M24.4216 10.5223H23.5276C23.4723 10.525 23.4182 10.5389 23.3684 10.5632L18.8782 12.8736C18.8373 12.8736 18.8373 12.9308 18.8782 12.9593L22.3561 15.2453C22.402 15.2724 22.4539 15.2878 22.5071 15.2902H23.4052C23.4501 15.2902 23.4582 15.2902 23.4052 15.2453L19.8579 12.9103L24.4134 10.5632C24.4706 10.5428 24.4665 10.5223 24.4216 10.5223Z" fill="#FABE00"/>
<path d="M20.3191 7.4036H5.65638C5.30747 7.38673 4.96368 7.49266 4.68477 7.70296C4.40586 7.91327 4.20945 8.21464 4.12969 8.55473C4.09347 8.71632 4.10506 8.88497 4.16305 9.04008C4.22103 9.1952 4.32291 9.33009 4.45626 9.4283L9.72619 12.9062L20.3395 7.44441C20.3681 7.41992 20.364 7.4036 20.3191 7.4036Z" fill="#E72511"/>
<path d="M17.9923 18.364L9.73027 12.9062L2.98263 16.3882C2.81221 16.4777 2.66218 16.6015 2.54204 16.7519C2.42189 16.9022 2.33423 17.0759 2.28459 17.2618C2.1458 17.8945 2.50095 18.4089 3.32144 18.4089H17.9842C18.0332 18.4089 18.0332 18.3885 17.9923 18.364Z" fill="#E72511"/>
</g>
<defs>
<clipPath id="clip0_397_6702">
<rect width="22.9167" height="11.0052" fill="white" transform="translate(1.54166 7.40363)"/>
</clipPath>
</defs>
</svg>
