<svg width="26" height="26" viewBox="0 0 26 26" fill="none" xmlns="http://www.w3.org/2000/svg">
<path fill-rule="evenodd" clip-rule="evenodd" d="M8.60108 14.8909C8.00788 14.8909 7.52538 14.3835 7.52538 13.7598C7.52538 13.136 8.00788 12.6285 8.60108 12.6285C9.19428 12.6285 9.67678 13.136 9.67678 13.7598C9.67678 14.3835 9.19428 14.8909 8.60108 14.8909ZM8.78143 11.539C8.35739 11.539 7.96496 11.697 7.6765 11.984L7.5772 12.0827V9.84766H6.4475V13.6672C6.4475 15.0923 7.25764 15.9778 8.56179 15.9778C9.83702 15.9778 10.7625 15.0461 10.7625 13.7625C10.7625 12.4741 9.92928 11.539 8.78143 11.539ZM4.64363 9.8478L2.45324 12.5609V9.8478H1.33331V15.8076H2.45324V13.1183L4.68812 15.8076H6.1278L3.65514 12.8277L6.06086 9.8478H4.64363ZM23.4077 11.6702H24.6666L22.992 13.7388L24.6666 15.8075H23.4077L21.9612 14.0208V15.8075H20.8311V9.84766H21.9612V13.4568L23.4077 11.6702ZM18.7116 11.5505C18.0339 11.5505 17.6156 11.8902 17.4159 12.1283V11.6913H16.3561V15.8075H17.4541L17.454 13.5659C17.454 13.0056 17.8183 12.6141 18.2739 12.6141C18.7296 12.6141 19.0938 13.0056 19.0938 13.5659V15.8075H20.1917V13.2129C20.1917 12.2497 19.5399 11.5505 18.7116 11.5505ZM12.3634 13.7656C12.3634 14.3877 12.8398 14.8938 13.4255 14.8938C14.0113 14.8938 14.4877 14.3877 14.4877 13.7656C14.4877 13.1434 14.0113 12.6374 13.4255 12.6374C12.8398 12.6374 12.3634 13.1434 12.3634 13.7656ZM11.242 13.7682C11.242 12.4832 12.1462 11.5505 13.3918 11.5505C14.6465 11.5505 15.5571 12.4832 15.5571 13.7682V15.8391H14.5423V15.2512L14.479 15.344C14.4747 15.3503 14.0388 15.9778 13.223 15.9778C12.0751 15.9778 11.242 15.0485 11.242 13.7682Z" fill="#0F0060"/>
</svg>
