<svg width="26" height="26" viewBox="0 0 26 26" fill="none" xmlns="http://www.w3.org/2000/svg">
<g clip-path="url(#clip0_397_6713)">
<path d="M23.0731 10.6498H23.6635C23.6822 10.6498 23.7001 10.6424 23.7133 10.6292C23.7264 10.616 23.7339 10.5981 23.7339 10.5795V9.46623C23.7339 9.45705 23.732 9.44797 23.7285 9.43951C23.7249 9.43105 23.7197 9.42339 23.7132 9.41696C23.7066 9.41054 23.6989 9.40549 23.6903 9.4021C23.6818 9.39871 23.6727 9.39705 23.6635 9.39723H22.8342C21.8749 9.39723 21.3667 9.70374 21.0761 10.3552L19.2729 14.7724C19.2366 14.8942 19.1592 14.9996 19.054 15.0707C18.9488 15.1418 18.8221 15.1743 18.6957 15.1626V9.46623C18.6957 9.45705 18.6938 9.44797 18.6903 9.43951C18.6867 9.43105 18.6815 9.42339 18.675 9.41696C18.6684 9.41054 18.6607 9.40549 18.6521 9.4021C18.6436 9.39871 18.6345 9.39705 18.6253 9.39723H17.2984C17.2893 9.39705 17.2802 9.39871 17.2716 9.4021C17.2631 9.40549 17.2553 9.41054 17.2488 9.41696C17.2422 9.42339 17.237 9.43105 17.2335 9.43951C17.2299 9.44797 17.2281 9.45705 17.2281 9.46623V16.2931C17.2285 16.3256 17.2416 16.3566 17.2647 16.3795C17.2878 16.4023 17.319 16.4151 17.3515 16.4151H18.839C19.797 16.4151 20.2362 16.1086 20.5254 15.4571L22.3061 11.0943C22.4494 10.7852 22.6551 10.6498 23.0731 10.6498Z" fill="#D71920"/>
<path d="M6.87434 12.9069C7.40509 12.6853 7.84562 12.1877 7.84562 11.365C7.84562 10.1403 6.79472 9.39728 5.52755 9.39728H1.61058C1.59228 9.39728 1.57473 9.40455 1.56179 9.41749C1.54885 9.43043 1.54158 9.44798 1.54158 9.46627V10.5795C1.5414 10.5887 1.54306 10.5978 1.54644 10.6063C1.54983 10.6149 1.55489 10.6226 1.56131 10.6292C1.56774 10.6357 1.5754 10.6409 1.58386 10.6445C1.59232 10.648 1.6014 10.6499 1.61058 10.6499H5.25686C5.84467 10.6499 6.24274 11.0094 6.24274 11.446C6.24274 11.8825 5.84467 12.2488 5.25686 12.2488H3.09006V11.4248C3.09024 11.4155 3.08854 11.4063 3.08507 11.3976C3.0816 11.389 3.07643 11.3812 3.06986 11.3746C3.06329 11.3681 3.05547 11.3629 3.04685 11.3594C3.03824 11.356 3.02901 11.3543 3.01973 11.3544H1.61058C1.6014 11.3544 1.59232 11.3563 1.58386 11.3598C1.5754 11.3634 1.56774 11.3686 1.56131 11.3751C1.55489 11.3817 1.54983 11.3894 1.54644 11.398C1.54306 11.4065 1.5414 11.4156 1.54158 11.4248V16.3435C1.54158 16.3618 1.54885 16.3794 1.56179 16.3923C1.57473 16.4053 1.59228 16.4125 1.61058 16.4125H5.47182C6.91547 16.4125 7.94912 15.7398 7.94912 14.3665C7.95207 14.0396 7.84889 13.7207 7.65509 13.4575C7.46129 13.1943 7.18732 13.0011 6.87434 12.9069ZM5.33249 15.1931H3.09006V13.5478H5.33249C5.9349 13.5478 6.34358 13.9167 6.34358 14.3705C6.34358 14.8242 5.9349 15.1931 5.33249 15.1931Z" fill="#D71920"/>
<path d="M24.4451 16.3343L22.1721 13.4284C22.1712 13.4267 22.1698 13.4253 22.1682 13.4244C22.1666 13.4234 22.1647 13.4229 22.1628 13.4229C22.1609 13.4229 22.1591 13.4234 22.1574 13.4244C22.1558 13.4253 22.1545 13.4267 22.1535 13.4284L21.5418 14.9251C21.5395 14.9294 21.5383 14.9342 21.5383 14.939C21.5383 14.9439 21.5395 14.9487 21.5418 14.953L22.5357 16.2799C22.5644 16.3233 22.6041 16.3584 22.6506 16.3817C22.6972 16.405 22.7491 16.4156 22.8011 16.4126H24.4013C24.4109 16.4141 24.4208 16.4126 24.4297 16.4084C24.4385 16.4041 24.4457 16.3972 24.4505 16.3887C24.4553 16.3802 24.4573 16.3704 24.4564 16.3606C24.4554 16.3509 24.4514 16.3417 24.4451 16.3343Z" fill="#D71920"/>
<path d="M10.4371 11.3571H9.11023C9.09158 11.3571 9.07369 11.3645 9.0605 11.3777C9.04731 11.3908 9.0399 11.4087 9.0399 11.4274V16.3461C9.0399 16.3553 9.04173 16.3644 9.04528 16.3729C9.04883 16.3813 9.05403 16.389 9.06058 16.3954C9.06713 16.4018 9.07489 16.4069 9.08341 16.4103C9.09194 16.4137 9.10105 16.4153 9.11023 16.4151H10.4371C10.4555 16.4151 10.4732 16.4079 10.4864 16.395C10.4995 16.3821 10.5071 16.3646 10.5074 16.3461V11.4247C10.5068 11.4065 10.499 11.3893 10.4859 11.3767C10.4728 11.3641 10.4553 11.357 10.4371 11.3571Z" fill="#D71920"/>
<path d="M15.8973 9.39723H14.5704C14.5613 9.39723 14.5524 9.39901 14.544 9.40248C14.5356 9.40595 14.528 9.41103 14.5216 9.41744C14.5152 9.42385 14.5101 9.43145 14.5066 9.43982C14.5032 9.4482 14.5014 9.45717 14.5014 9.46623V15.1626C14.3749 15.1743 14.2483 15.1418 14.143 15.0707C14.0378 14.9996 13.9605 14.8942 13.9242 14.7724L12.1183 10.3552C11.829 9.70374 11.3222 9.39723 10.3615 9.39723H9.11157C9.1024 9.39705 9.09328 9.39871 9.08476 9.4021C9.07623 9.40549 9.06847 9.41054 9.06192 9.41696C9.05537 9.42339 9.05017 9.43105 9.04662 9.43951C9.04307 9.44797 9.04124 9.45705 9.04124 9.46623V10.5795C9.04124 10.5981 9.04865 10.616 9.06184 10.6292C9.07503 10.6424 9.09292 10.6498 9.11157 10.6498H10.1213C10.5406 10.6498 10.745 10.7825 10.8883 11.0943L12.669 15.4571C12.9595 16.1086 13.3974 16.4151 14.3568 16.4151H15.8429C15.8754 16.4151 15.9066 16.4023 15.9297 16.3795C15.9528 16.3566 15.9659 16.3256 15.9663 16.2931V9.46623C15.9663 9.44793 15.959 9.43038 15.9461 9.41744C15.9331 9.4045 15.9156 9.39723 15.8973 9.39723Z" fill="#D71920"/>
</g>
<defs>
<clipPath id="clip0_397_6713">
<rect width="22.9167" height="7.01791" fill="white" transform="translate(1.54167 9.39728)"/>
</clipPath>
</defs>
</svg>
