<svg width="26" height="26" viewBox="0 0 26 26" fill="none" xmlns="http://www.w3.org/2000/svg">
<path d="M13.0002 1.59424C6.75197 1.59424 1.68759 6.65782 1.68759 12.9061C1.68759 19.154 6.75197 24.2183 13.0002 24.2183C19.2477 24.2183 24.3124 19.154 24.3124 12.9061C24.3124 6.65782 19.2477 1.59424 13.0002 1.59424ZM4.11998 12.9061C4.11998 8.45495 7.3947 4.77311 11.6658 4.12981V8.28458L9.81585 8.29088C8.42505 8.29088 7.58146 9.31206 7.58146 10.7016V15.056C7.58146 16.4463 8.72107 17.5186 10.111 17.5186L11.6586 17.5191L11.6657 21.6898C7.3947 21.0455 4.11998 17.3563 4.11998 12.9061ZM10.2691 15.0833C10.2691 15.0833 10.1455 15.0705 10.0838 14.9632C10.0235 14.858 10.0399 14.802 10.0399 14.802V11.0245C10.0399 11.0245 10.0338 10.8908 10.1071 10.8096C10.1758 10.7324 10.3035 10.7292 10.3035 10.7292H15.6437C15.6437 10.7292 15.7289 10.7173 15.8273 10.7713C15.9117 10.8165 15.9593 10.9945 15.9593 10.9945V14.8712C15.9593 14.8712 15.9117 14.9787 15.8664 15.0164C15.8232 15.0532 15.7356 15.082 15.7356 15.082L14.3225 15.0848L10.2691 15.0833ZM14.2994 21.697L14.2914 17.49H15.9578C17.3486 17.49 18.3697 16.4463 18.3697 15.0561V10.7017C18.3697 9.31218 17.2617 8.29742 15.8718 8.29742L14.2914 8.29902L14.2906 4.1195C18.5837 4.74468 21.8797 8.44027 21.8797 12.9062C21.8797 17.3704 18.5905 21.0715 14.2994 21.697Z" fill="#B30738"/>
</svg>
