<svg width="26" height="26" viewBox="0 0 26 26" fill="none" xmlns="http://www.w3.org/2000/svg">
<g clip-path="url(#clip0_397_6742)">
<path d="M23.4167 20.3356C23.4165 20.7262 23.3394 21.1129 23.1898 21.4736C23.0402 21.8344 22.8209 22.1621 22.5446 22.4382C22.2683 22.7142 21.9404 22.9331 21.5795 23.0824C21.2186 23.2316 20.8318 23.3083 20.4412 23.3081H5.55917C4.7704 23.3085 4.01379 22.9955 3.45574 22.4381C2.89768 21.8806 2.58388 21.1244 2.58333 20.3356V5.47548C2.58399 4.68682 2.89786 3.93071 3.45591 3.37344C4.01396 2.81616 4.77051 2.50335 5.55917 2.50378H20.4412C20.8317 2.50351 21.2185 2.58017 21.5793 2.72937C21.9402 2.87857 22.2682 3.09739 22.5445 3.37334C22.8208 3.64929 23.04 3.97697 23.1897 4.33766C23.3393 4.69834 23.4164 5.08498 23.4167 5.47548V20.3356Z" fill="#FFE400"/>
<path d="M17.4683 14.9871C17.3749 14.262 17.0124 13.5984 16.4526 13.1281C16.3698 13.0551 16.2799 12.9872 16.1805 12.9064C16.2633 12.8443 16.3321 12.7967 16.3963 12.7432C16.7992 12.4097 17.1104 11.9791 17.3005 11.4918C17.4806 11.0311 17.5377 10.5315 17.4662 10.042C17.387 9.44665 17.1239 8.89086 16.7136 8.45221C16.4212 8.1266 16.0599 7.87019 15.656 7.70163C15.2638 7.54282 14.844 7.46327 14.4208 7.46759H9.67869C9.64599 7.46572 9.61321 7.46572 9.58052 7.46759C9.52851 7.46996 9.4795 7.49263 9.44403 7.53074C9.40856 7.56884 9.38944 7.61934 9.3908 7.67139C9.3908 7.70453 9.3908 7.73725 9.3908 7.76998V18.016C9.3908 18.0673 9.3879 18.1191 9.3908 18.1705C9.39292 18.2129 9.40981 18.2533 9.43856 18.2846C9.4673 18.316 9.50609 18.3362 9.54821 18.342C9.58077 18.3459 9.61361 18.3472 9.64638 18.3457H14.5575C15.0521 18.3476 15.5383 18.2177 15.9659 17.9692C16.5769 17.6258 17.0485 17.0795 17.2989 16.4249C17.4797 15.9686 17.5381 15.473 17.4683 14.9871ZM13.6942 15.3558H12.8082V10.4679H13.6843C13.6843 10.4679 13.681 10.4654 13.6843 10.4654V10.4679H13.6942V15.3558Z" fill="#1E1719"/>
</g>
<defs>
<clipPath id="clip0_397_6742">
<rect width="20.8333" height="20.8048" fill="white" transform="translate(2.58333 2.50385)"/>
</clipPath>
</defs>
</svg>
