<svg width="26" height="26" viewBox="0 0 26 26" fill="none" xmlns="http://www.w3.org/2000/svg">
<g clip-path="url(#clip0_397_6779)">
<path d="M19.2524 16.5667H19.2334L19.2033 16.524H19.1875L19.1116 16.4354L19.0641 16.3879V16.3753L19.0325 16.3468V16.331H19.023L19.0072 16.3073H18.9898L18.9819 16.2915L18.9407 16.2772V16.2693L18.9091 16.2567V16.2487L18.8759 16.2345L18.868 16.2187L18.8205 16.1934L18.7936 16.1839L18.7857 16.1649L18.7556 16.1522L18.7446 16.1364H18.7303L18.7208 16.1206L18.6971 16.108L18.6813 16.0842H18.6623V16.0684H18.6418L18.6101 16.0241H18.5959L18.5294 15.9434H18.5152V15.9355L18.4899 15.9165V15.8612L18.425 15.7947V15.7805L18.4092 15.7694L18.3823 15.7331V15.7188L18.425 15.6729H18.4409L18.4583 15.6524H18.4741L18.4836 15.6381H18.5073V15.6286H18.5231L18.5326 15.6144H18.5453L18.5563 15.6018H18.5706L18.5785 15.5875H18.6054L18.6275 15.5622H18.6449L18.6528 15.548H18.6702L18.7177 15.5037H18.7446V15.4894L18.7952 15.4531L18.8268 15.4357L18.8363 15.4151L18.86 15.4056V15.3882L18.8854 15.3787V15.3866H18.9012V15.3724H18.917V15.3581H18.9328L18.9423 15.3376L18.9518 15.3091H18.966L18.9771 15.2791H19.0008L19.023 15.2522H19.0404L19.0562 15.2316H19.072L19.0815 15.2174H19.0958L19.129 15.1857H19.148L19.2033 15.1367H19.2191L19.227 15.124L19.2524 15.113V15.0987L19.2856 15.0671H19.3014V15.0513L19.3188 15.0307L19.3488 15.0149V14.9991L19.3742 14.9864V14.9738L19.3995 14.9643V14.9469H19.4169V14.9121H19.4343V14.8883L19.507 14.8409V14.8266L19.5719 14.8077V14.7934L19.6225 14.7792V14.7634L19.6953 14.7317V14.7175H19.7111L19.7712 14.6463H19.7854V14.6305H19.8029V14.6162H19.8218L19.8535 14.5767V14.5545L19.8788 14.5435L19.893 14.5008H19.912L19.9262 14.4501H19.9421V14.4217H19.9579V14.3916H19.9753L19.9832 14.3552L19.9927 14.303H20.0006V14.2888H20.0085V14.2587H20.0164V14.2793H20.0243V14.2413H20.0401V14.186H20.0559V14.118H20.0718V13.9867H20.0813V13.955H20.0892L20.0702 13.8522V13.7209H20.0544V13.6466L20.037 13.6355V13.5817L20.0211 13.5706V13.5327H20.0132V13.5184H20.0037V13.4884H19.9958V13.4646H19.9848V13.452V13.4203H19.9737V13.3808H19.9579H19.9721L19.9832 13.3966H19.9958L20.0148 13.4235H20.0322V13.4409H20.0433L20.0749 13.4852H20.0923L20.1588 13.5659L20.2094 13.6023L20.2331 13.645H20.2489L20.2569 13.6687L20.298 13.7067V13.7225L20.3391 13.7589V13.7731L20.3565 13.7842V13.8L20.3802 13.8174V13.8332L20.3961 13.8427V13.8585L20.4103 13.868L20.4182 13.8917H20.4261L20.9276 14.4486L20.9434 14.4565V14.4723L20.9608 14.4834L20.9687 14.5055H20.9766L21.0905 14.6384H21.1079L21.1237 14.6605H21.1395L21.1664 14.6938H21.1807L21.2076 14.7286H21.2202L21.2724 14.7903L21.3768 14.8994L21.41 14.9437L21.5508 15.0876L21.5603 15.1035L21.592 15.1177L21.5999 15.1335L21.6315 15.1478L21.641 15.1636L21.9574 15.4799H21.9732L21.9969 15.5227H22.0048V15.5369L22.0222 15.548L22.038 15.559V15.5733L22.0539 15.5859V15.6002L22.0776 15.6192L22.2089 15.7568H22.2231L22.2326 15.7726H22.2484L22.2643 15.7963H22.2801L22.2959 15.8201H22.3133L22.3386 15.8533H22.3544L22.4193 15.9339H22.4367L22.4604 15.9545V16.0194L22.5348 16.0937L22.6439 16.195V16.2029H22.6581V16.2124L22.6724 16.2203L22.7056 16.2361L22.7483 16.2646V16.282L22.7736 16.3025H22.7894L22.8147 16.3199V16.3373L22.8385 16.3547H22.8559L22.8717 16.3737L22.8812 16.3911L23.0109 16.5177L23.2007 16.7091L23.2181 16.728H23.2308L23.2419 16.7439L23.6816 17.1425L23.7069 17.1615L23.9537 17.4304H23.9695L24.0027 17.4747H24.0186L24.0265 17.4921L24.0755 17.538L24.1087 17.5759L24.1499 17.6266L24.1831 17.6709L24.2068 17.7056L24.2226 17.7294L24.2495 17.7784L24.2796 17.8211L24.297 17.8559L24.3065 17.8718L24.3318 17.9224V17.9445H24.3397V17.9746H24.3476V17.9967H24.3555V18.0125H24.3634V18.0363H24.3729V18.06V18.0837L24.4267 18.3083V18.3985H24.4346V18.5915V18.6421H24.4267V18.6785V18.7149H24.4172V18.7434H24.4093V18.7734H24.3998V18.7971H24.3919V18.8494H24.384V18.8636H24.3745V18.8857H24.365V18.9V18.9221H24.3571L24.3413 18.9648H24.3318V18.9791H24.3239V18.9965V19.0139H24.3144L24.3017 19.055H24.2922V19.0756H24.2748V19.1056H24.2574V19.1198L24.2337 19.1309V19.1467L24.21 19.1562V19.1831H24.1562V19.2005L24.0834 19.2432L24.0186 19.3018H24.0043L23.979 19.3255H23.9616L23.9474 19.3461H23.9284L23.9142 19.3635H23.8983L23.8904 19.3761H23.8667H23.8335L23.8256 19.3888H23.7765L23.7686 19.4014L23.6974 19.4109V19.4188H23.6642H23.6389H23.6247H23.5978H23.5741H23.5503H23.5266H23.4934H23.4602H23.4222C23.4222 19.4188 23.1786 19.3872 23.0821 19.3635C22.9856 19.3397 22.7372 19.2464 22.7372 19.2464L22.7024 19.2353H22.6914V19.2274L22.6487 19.2132V19.2053L22.6186 19.1942V19.1847H22.5917L22.5585 19.1721V19.1626L22.5268 19.1483L22.5189 19.1325L22.4683 19.1088L22.2342 18.9601H22.201V18.9506H22.1772V18.9427H22.1519L22.1266 18.9316L21.7533 18.6738H21.7359L21.7027 18.6279H21.6853L21.4575 18.4539V18.4444L21.4274 18.4302H21.4005V18.4207L21.3531 18.3954H21.3357V18.3874L21.3025 18.3732L21.293 18.3558L21.2455 18.3321L21.236 18.3163H21.2218V18.3068L21.1981 18.2973L21.1886 18.2783H21.1728L21.1538 18.253H21.1411L21.1316 18.2372H21.1158L21.081 18.1929H21.0652L20.7963 17.9714V17.9635L20.7472 17.9382H20.7314V17.9303H20.714L20.6666 17.9081L20.6586 17.8892L20.6254 17.8781L20.6159 17.8591L20.5843 17.8464L20.5685 17.8195H20.5511L20.5432 17.8037H20.5258L20.5084 17.7784C20.5084 17.7784 20.2331 17.5585 20.1256 17.462C20.018 17.3655 19.689 17.065 19.651 17.0239L19.6225 16.9954V16.9796L19.5798 16.9416V16.9195L19.564 16.8942L19.2524 16.5667Z" fill="#A3CF62"/>
<path d="M13.3741 14.7965V14.8108L13.439 14.8551V14.8693L13.507 14.9104V14.9263L13.5307 14.9326V14.9389L13.5386 14.9563L13.5639 14.9816L13.5798 14.9864V15.0085L13.5987 15.0117L13.6161 15.0528L13.624 15.0544V15.0686L13.6399 15.0813V15.1018L13.6557 15.1066V15.1208L13.6715 15.124L13.6905 15.1651L13.7063 15.1683V15.1825L13.7237 15.1873L13.7633 15.2553L13.7807 15.2569V15.2727L13.8471 15.3217L13.8487 15.3375L13.8645 15.3423V15.3565L13.9072 15.3787V15.3945L13.923 15.3977V15.4135L13.98 15.4467L13.9895 15.4625L14.0132 15.4688L14.0227 15.4847L14.0385 15.4878V15.4942L14.0654 15.5084V15.5226L14.0954 15.529V15.5448L14.1382 15.5669L14.2552 15.7093V15.7251L14.2726 15.7283L14.3612 15.8279V15.8422L14.3802 15.8453V15.8611L14.4055 15.8643V15.8817L14.4197 15.8849V15.8991L14.5289 15.9735L14.5621 16.0019V16.0083L14.5795 16.0114V16.0178L14.5969 16.0225L14.6032 16.0367L14.6301 16.0431L14.6364 16.0605L14.6618 16.0636V16.0731L14.6934 16.0858V16.1L14.7361 16.1253V16.1396L14.7535 16.1427V16.157L14.7677 16.1601L14.7962 16.1886V16.2028L14.8105 16.206V16.2218L14.8279 16.2234L14.8706 16.2693V16.2851L14.8864 16.2867L15.0177 16.4037V16.418L15.0446 16.4227V16.4385L15.0841 16.4607V16.467L15.1094 16.4749V16.4812L15.1426 16.4939V16.5097L15.1774 16.516V16.5319L15.2344 16.5493L15.2423 16.5651L15.2755 16.573V16.5856L15.3167 16.5951L15.3246 16.6125L15.3689 16.6189V16.6268L15.3926 16.6315V16.6394L15.4242 16.6458V16.6521L15.4828 16.6647L15.4907 16.6806L15.5824 16.698L15.5903 16.7154L15.671 16.728V16.7359L15.6963 16.7391V16.7486L15.7374 16.7549V16.7644L15.7564 16.7676L15.7643 16.785L15.8308 16.8024V16.8182L16.1266 16.9052L16.2326 16.9226V16.9163L16.2484 16.9194V16.9115L16.4066 16.9242V16.9099L16.5537 16.9004V16.8846L16.5758 16.8862L16.5695 16.8894V16.9052L16.5284 16.9289L16.4825 16.9637V16.9764L16.4572 16.9811L16.4034 17.0317L16.386 17.0286L16.3607 17.0523L16.3449 17.0491L16.3196 17.0744L16.3037 17.0713L16.2879 17.0903L16.2705 17.0887L16.2626 17.1013L16.2405 17.1045V17.1124L16.2231 17.1093L16.2167 17.1219L16.1914 17.1267V17.133L16.144 17.1377L16.1345 17.152H16.1013V17.1599L16.087 17.1567V17.1662L16.0712 17.1615V17.1709L16.0222 17.1773V17.1836L16 17.1789V17.1852L15.9953 17.2057L15.9795 17.2026L15.9399 17.2405L15.9019 17.2358V17.25L15.8545 17.2785L15.7833 17.3402L15.7643 17.3386L15.6995 17.3782L15.6046 17.4225L15.5808 17.4256V17.4335L15.5634 17.4288L15.5555 17.4446H15.5223L15.5176 17.4573H15.4986L15.4828 17.4683L15.4669 17.4636V17.4715L15.4511 17.4683V17.4762L15.4353 17.4731V17.481L15.4195 17.4778V17.4857L15.4021 17.4826V17.4889L15.3863 17.4873V17.4936L15.3372 17.5V17.5079L15.3119 17.5031V17.5095L15.2977 17.5079V17.5158L15.2739 17.5095V17.5158L15.2502 17.5253V17.5332L15.2265 17.5284V17.5348L15.2028 17.5316V17.5379L15.0889 17.5854L15.0572 17.6155L15.0398 17.6139L15.0082 17.6455L14.9908 17.6423L14.9766 17.6597L14.9607 17.6582L14.9433 17.6771L14.9275 17.674L14.9196 17.6866L14.8864 17.6882L14.8785 17.7025L14.8547 17.7056V17.7135H14.8215L14.8152 17.7293L14.7646 17.7341V17.7404L14.7503 17.7388V17.7452L14.7329 17.742V17.7499L14.7171 17.7483V17.7562L14.6681 17.761V17.7689L14.6459 17.761V17.7705L14.6301 17.7689V17.7752L14.6032 17.7705L14.6048 17.7784L14.5874 17.7752V17.7847L14.5637 17.7784L14.5653 17.7847L14.5415 17.7815V17.7895L14.3849 17.8496L14.3707 17.848L14.3391 17.878L14.3232 17.8749L14.3058 17.8954L14.29 17.8923L14.2726 17.9113L14.2568 17.9081L14.2505 17.9223L14.2347 17.9192L14.2172 17.9382L14.1856 17.9397L14.1777 17.954L14.1461 17.9556L14.1382 17.9682L14.0891 17.973L14.0812 17.9856L14.0575 17.9824L14.048 17.9967L13.7822 18.0441L13.7506 18.0378V18.0457L13.7158 18.0394V18.0473L13.6842 18.0426V18.0473L13.6525 18.0426V18.0505L13.613 18.0426V18.0505L13.5718 18.0426V18.0505L13.507 18.0378V18.0457L13.2064 17.9967V17.9904L13.1099 17.9714V17.9635L13.0435 17.9508L13.0419 17.9461L12.996 17.9366V17.9271L12.9628 17.9223V17.9144L12.9217 17.9065V17.8986L12.8315 17.867V17.8606L12.8062 17.8559V17.848L12.7493 17.8306V17.8243L12.7334 17.8211V17.8132L12.7097 17.8084V17.8005L12.6939 17.7974V17.791L12.6702 17.7847V17.7784L12.637 17.7657V17.7578L12.6132 17.7531V17.7452L12.5626 17.7214V17.7135L12.5484 17.7088V17.7025L12.5151 17.6898L12.5072 17.674L12.4566 17.6487L12.4487 17.6329L12.4171 17.6202V17.6107L12.3918 17.5996L12.3839 17.5838L12.368 17.5807L12.3585 17.5633L12.3427 17.5601L12.3269 17.5348L12.3111 17.5332L12.2937 17.5079L12.2779 17.5047L12.262 17.4778L12.2367 17.4668L12.164 17.3782L12.1466 17.3766L12.0865 17.2975L12.0738 17.2943L12.0311 17.2421V17.2263L12.0153 17.2168V17.2089L11.9995 17.1978V17.1836L11.9757 17.1646V17.1488L11.952 17.1314V17.114L11.933 17.1045L11.9251 17.0808L11.9156 17.0792V17.0634L11.8998 17.0523L11.8935 17.0317L11.884 17.0286L11.8729 16.9969L11.8587 16.9843V16.9716L11.8413 16.9526V16.94L11.8334 16.9368V16.921H11.8254V16.9052H11.8175L11.8001 16.8562H11.7922L11.7843 16.8166L11.7764 16.8134V16.7976H11.7669V16.7755L11.759 16.7739L11.7511 16.7423H11.7416L11.7258 16.6647L11.7179 16.6632V16.6394H11.7084V16.6173L11.7005 16.6141L11.691 16.5603L11.6831 16.5588V16.5287L11.6752 16.5271L11.6657 16.4354L11.6831 15.8058H11.691V15.7852H11.6989V15.7631L11.7068 15.7647L11.729 15.6713L11.74 15.6729V15.6587L11.7464 15.6618V15.6381L11.7543 15.6397L11.7622 15.6096L11.7669 15.6128V15.5906L11.778 15.5922L11.7875 15.5622L11.7954 15.5653V15.5416L11.8096 15.5369V15.5226L11.8254 15.5116V15.4957L11.8334 15.4973V15.4815L11.8397 15.4831V15.4688L11.8571 15.4641L11.8634 15.4356L11.8808 15.4325V15.4166L11.8966 15.4103L11.9045 15.385L11.9204 15.3787V15.3629L11.9441 15.3549V15.3375L11.9678 15.3281V15.3122L12.0074 15.2901V15.2759L12.039 15.26V15.2442L12.0564 15.2331L12.0817 15.23V15.2157L12.0975 15.2094L12.1118 15.1904L12.1529 15.1762V15.162L12.1687 15.1493L12.1845 15.1525L12.2098 15.1256L12.2272 15.1303L12.2557 15.0971L12.2731 15.1018L12.2889 15.0813L12.3063 15.0844L12.3222 15.0655L12.3396 15.0686L12.3459 15.056L12.3775 15.0544L12.3854 15.0402L12.4107 15.0386V15.0291H12.444L12.4519 15.0148L12.4661 15.018L12.4819 15.0054L12.5009 15.0085V15.0006L12.5151 15.0054V14.9974L12.5325 15.0006L12.5389 14.9864L12.5626 14.9911V14.9832L12.5958 14.9816V14.9737L12.6211 14.9785V14.9721L12.6512 14.9706V14.9626L12.6765 14.9674V14.9595L12.6939 14.9626V14.9563L12.7983 14.9532V14.9452L12.8236 14.9484V14.9405L12.8473 14.9468V14.9389L12.9438 14.9405L12.9533 14.9278L12.9691 14.9326L12.9834 14.912L13.0008 14.9168L13.015 14.8946L13.0324 14.8978L13.0482 14.8772L13.0641 14.882L13.0736 14.8693L13.1052 14.8677L13.1147 14.8551L13.1289 14.8567L13.1384 14.8424L13.1526 14.8456L13.1606 14.8329L13.178 14.8361L13.1954 14.825L13.2096 14.8266V14.8219H13.227V14.8155L13.2428 14.8187L13.3599 14.7886L13.3741 14.7965Z" fill="#A3CF62"/>
<path d="M15.9953 13.5089L15.9715 13.5326L15.9541 13.539L15.9557 13.5516L15.9399 13.5643L15.9241 13.5627L15.9146 13.5753L15.8988 13.5722V13.5801L15.883 13.5753V13.5848L15.8576 13.5801V13.588L15.8102 13.5927V13.6006L15.7928 13.5975L15.7944 13.607L15.7469 13.6117L15.7374 13.6244L15.7042 13.6275L15.6979 13.6402L15.6821 13.637L15.6741 13.6497L15.6567 13.6465L15.6488 13.6608L15.633 13.6576L15.6251 13.6702L15.6093 13.6687L15.5998 13.6813L15.5618 13.6924V13.694V13.7114L15.5966 13.7319V13.7462L15.6615 13.7968V13.8126L15.6789 13.8142V13.83L15.6963 13.8348V13.8474L15.7121 13.8522L15.7137 13.8664L15.7295 13.8711L15.7691 13.9376L15.7865 13.9407L15.8054 13.9803L15.8228 13.9866V13.9993L15.8371 14.0024L15.8782 14.0942L15.8956 14.0958L15.9304 14.1638L15.962 14.2018L16.0142 14.2255V14.2413L16.0459 14.254V14.2682L16.087 14.2919V14.3062L16.1028 14.3093V14.3251L16.1202 14.3283L16.1218 14.3441L16.1629 14.3884L16.1803 14.3916V14.4074L16.1962 14.4106V14.4248L16.212 14.428L16.2705 14.5229L16.2879 14.5245V14.5419L16.3037 14.5434V14.5656L16.3195 14.5703L16.3385 14.6178L16.3449 14.6194L16.3623 14.6605L16.3797 14.6637L16.3955 14.7048L16.4129 14.708L16.4635 14.7475V14.7617L16.4793 14.7649V14.7807L16.5363 14.8139V14.8298L16.5537 14.8329L16.579 14.8741L16.5948 14.8772L16.5964 14.8946L16.6122 14.8978L16.6375 14.9389L16.6533 14.9405V14.9579L16.6691 14.9595L16.696 15.018L16.7134 15.0212V15.0386L16.7293 15.0402L16.7546 15.0955L16.7704 15.1003V15.1224L16.7862 15.1256L16.7957 15.1493L16.8036 15.1509L16.8131 15.1904L16.8289 15.2015V15.2173L16.8463 15.2284V15.2505L16.8637 15.26L16.8716 15.3091L16.889 15.317V15.3502H16.8954L16.9048 15.3897L16.9222 15.3929L16.9317 15.4704L16.9396 15.4736V15.4878H16.9476V15.5337L16.965 15.5448L16.9729 15.616L16.9903 15.6254L17.0077 15.6903L17.0251 15.6919L17.0409 15.7567L17.0567 15.7583L17.0678 15.8137L17.0836 15.8169L17.0931 15.8944L17.1089 15.8991L17.1358 16.1665H17.1279L17.1311 16.2867L17.1216 16.2851V16.3389L17.1137 16.3373V16.3832L17.0994 16.3863L17.0931 16.4464L17.0757 16.4433L17.0361 16.5635L17.0172 16.5603L16.9555 16.6727L16.9381 16.6758L16.9286 16.6742L16.9302 16.6964L16.9128 16.6948V16.7027L16.8811 16.7201L16.8558 16.7359L16.859 16.7597L16.7989 16.7771V16.7913L16.8115 16.7929L16.8178 16.7786L16.8368 16.7818L16.8416 16.7691L16.8605 16.7723L16.8669 16.7597H16.8827V16.7533L16.908 16.7517L16.9143 16.7391H16.9317L16.957 16.7154L16.9729 16.7201L17.0045 16.6885H17.0219L17.0773 16.6394L17.0931 16.6442V16.6363L17.1168 16.6252L17.1263 16.6046L17.1817 16.5698V16.554L17.2196 16.5319V16.5176L17.237 16.5145V16.5066L17.2544 16.5034L17.2529 16.4876L17.2718 16.4828V16.467L17.2861 16.4623V16.448L17.3098 16.437L17.3351 16.4021L17.3652 16.3847L17.3731 16.3721L17.3889 16.3737L17.3952 16.3484L17.4142 16.3531L17.4205 16.3389L17.4364 16.342L17.4443 16.3278L17.4617 16.3325L17.4696 16.3183L17.4949 16.3167L17.5265 16.2851L17.5439 16.2867L17.5756 16.255L17.5898 16.2582V16.2503L17.6056 16.2455V16.2313L17.623 16.2345L17.6531 16.2028L17.661 16.2044V16.1902L17.6942 16.1791V16.1665L17.7353 16.1427V16.1269L17.767 16.1111V16.0968L17.7907 16.0984V16.0842L17.854 16.0431L17.8888 16.0415L17.8951 16.0146H17.9283V16.0067L17.952 16.0051L17.9615 15.9909L17.9758 15.994V15.9861L18.0011 15.983L18.0074 15.9703L18.0248 15.9735L18.039 15.9529L18.0564 15.9576L18.0644 15.9418L18.0738 15.945L18.0818 15.9308L18.0976 15.9339V15.9276L18.1292 15.9181V15.9023L18.2811 15.8042V15.79L18.3032 15.7805V15.7631L18.3269 15.7536L18.3586 15.7251L18.3364 15.6919L18.3254 15.6903L18.319 15.6587L18.2937 15.6397L18.2858 15.6001L18.2779 15.5986L18.2431 15.5464L18.1371 15.4736V15.4578L18.1118 15.4467L18.1039 15.4293L18.0849 15.4277L18.0612 15.3929L18.0438 15.3897L18.0042 15.3423L17.9853 15.317L17.971 15.3138L17.9441 15.2711L17.9283 15.2695L17.8872 15.2094L17.8777 15.2063V15.1904L17.8271 15.1446V15.1303L17.8128 15.1177V15.1018L17.7954 15.0924V15.0781L17.7765 15.0591L17.7622 15.056L17.7021 14.9326L17.6879 14.9278L17.6167 14.7728L17.6009 14.7602V14.7459L17.593 14.7443L17.585 14.6969L17.5756 14.6953V14.6732L17.5676 14.6716V14.6494L17.5597 14.6478V14.6257L17.5518 14.6241L17.5502 14.5925H17.5439L17.5328 14.5434L17.5249 14.5419V14.5276L17.517 14.5245V14.496L17.5091 14.4944L17.5075 14.4485L17.4996 14.4469L17.498 14.4074H17.4917L17.4901 14.3457L17.4822 14.3441L17.4727 14.1622L17.4632 14.1606V14.1385L17.4474 14.1274L17.4364 14.072L17.4205 14.0689L17.4126 14.0372L17.4047 14.0357V14.0056L17.3952 14.004V13.9803L17.3778 13.9708V13.9313L17.3604 13.9297L17.3525 13.8522L17.3446 13.8506V13.8348H17.3367L17.3351 13.781L17.3177 13.7683V13.6876L17.3003 13.6782L17.2971 13.4393L17.3145 13.4377V13.3507L17.3304 13.3555L17.3367 13.2827H17.3446V13.2526L17.3525 13.2542V13.2147L17.3683 13.2115V13.1814L17.3857 13.1783L17.3936 13.1261L17.411 13.1292L17.4316 13.0486L17.449 13.0517V13.0296L17.4648 13.0328L17.5313 12.9315L17.5471 12.9347L17.5724 12.8856L17.5882 12.8888V12.873L17.604 12.8746L17.6452 12.8224L17.6594 12.8255V12.8097L17.6879 12.816L17.7116 12.7971L17.7084 12.7828L17.7258 12.786V12.7702L17.7417 12.7733L17.7591 12.7543L17.7733 12.7559L17.7828 12.7433L17.8065 12.7385V12.7243L17.8476 12.7021L17.922 12.6926V12.6784L18.0042 12.6721V12.6547L18.077 12.6452L18.1039 12.6515V12.6436L18.1197 12.6452V12.6373L18.1498 12.6436L18.1609 12.631L18.2494 12.6404L18.2558 12.6262L18.3317 12.6404L18.3412 12.6262L18.4709 12.6515L18.4899 12.6452L18.7098 12.6958V12.7116L18.8933 12.767V12.7828L18.9344 12.7891V12.805L19.034 12.8461V12.8603L19.1147 12.8983V12.9157L19.1479 12.9283L19.1511 12.9363L19.1748 12.941L19.1907 12.9663L19.216 12.9711V12.9774L19.2349 12.979V12.9885L19.2982 12.9995V13.009L19.3552 13.0185V13.0264L19.3979 13.0343V13.0422L19.4469 13.0517V13.0596L19.4801 13.066L19.488 13.0802L19.5213 13.0881V13.096L19.545 13.1008V13.1071L19.5719 13.1118V13.1213L19.6051 13.1261V13.134L19.7206 13.1846V13.2004L19.8835 13.2922V13.3064L19.9136 13.3191L19.9025 13.3064V13.2938L19.8867 13.2827V13.2685L19.8709 13.2495V13.2352L19.8535 13.2242L19.8456 13.1925L19.8297 13.1814V13.1672L19.8218 13.164L19.8139 13.1419L19.7965 13.1308V13.1166L19.7633 13.0881V13.0723L19.7285 13.0438V13.0296L19.6715 12.9742L19.6652 12.9505L19.6494 12.9473V12.9315L19.632 12.9283L19.5165 12.8192L19.5023 12.7939L19.4865 12.7891L19.4754 12.7733L19.4612 12.7702L19.4438 12.7448L19.4121 12.7306L19.4042 12.7148L19.3773 12.7021V12.6958L19.3283 12.6721V12.6626L19.314 12.661V12.6531L19.265 12.6294V12.623L19.2239 12.6056V12.6009L19.2081 12.5962V12.5882L19.1827 12.5851V12.5772L19.1669 12.574V12.5661L19.1432 12.5614V12.5534H19.1258V12.544L19.0689 12.525V12.5186L19.0435 12.5139V12.5076L19.0119 12.5012V12.4933L18.9708 12.487V12.4775L18.9312 12.4696V12.4633L18.8015 12.4316V12.4253L18.4456 12.3731V12.3794L18.4013 12.3731V12.3794L18.3633 12.3731V12.3794L18.3396 12.3763V12.3842L18.3064 12.3763V12.3858L18.2732 12.3779V12.3873L18.2558 12.3826V12.3905L18.2083 12.3889V12.3968L18.1941 12.3937V12.4L18.1688 12.3984V12.4047H18.1371V12.4127L18.1118 12.4079V12.4158L18.0628 12.4221V12.4301L18.0485 12.4253V12.4348L18.0153 12.4364L18.0074 12.4475L17.9758 12.4506L17.9679 12.4633L17.9489 12.4617V12.468L17.9252 12.4696L17.9188 12.4854L17.9014 12.4807L17.8872 12.5012L17.8698 12.4981L17.854 12.5171L17.8381 12.5139L17.8128 12.5408L17.797 12.5376L16.9302 13.0233L16.8954 13.0264V13.0343L16.8716 13.0375L16.8637 13.0502L16.8463 13.0454V13.0549L16.8163 13.0707L16.5489 13.2321L16.5521 13.2447L16.5347 13.2495L16.511 13.2764L16.4936 13.2716L16.4793 13.2827L15.9953 13.5089Z" fill="#A3CF62"/>
<path d="M5.86493 12.6452L5.88233 12.612H5.88866L5.89657 12.5851L5.90606 12.5867L5.90448 12.5709L5.91239 12.5725V12.5487L5.9203 12.5503L5.93611 12.5092L5.94402 12.5108V12.4949L5.95351 12.4981V12.4823L5.96142 12.4855L5.95984 12.4696H5.96775V12.4554L5.97882 12.4586V12.4427L5.99148 12.4301V12.4158L6.0073 12.4111L6.01521 12.3826L6.03261 12.3779L6.03894 12.3494L6.05792 12.3447L6.05475 12.332H6.06266V12.3162L6.08006 12.313V12.2972L6.0943 12.294V12.2782L6.11328 12.2735L6.11012 12.2577L6.12752 12.2529V12.2387L6.15125 12.2292V12.2134L6.17656 12.2039V12.1865L6.21769 12.1659V12.1517L6.23351 12.1469V12.139L6.24774 12.1343V12.12L6.44864 11.8733H6.45655L6.47712 11.848L6.48503 11.8511V11.8274L6.49293 11.829L6.49135 11.8163H6.49926V11.7926L6.51034 11.7958L6.52457 11.753H6.53248V11.7404L6.54039 11.742V11.7277H6.5483V11.7135H6.55463V11.6993L6.56412 11.7008V11.685L6.57203 11.6882V11.6724L6.57836 11.6739V11.6581L6.59576 11.6471V11.6312L6.61158 11.6281L6.61948 11.5996L6.63372 11.5949L6.64479 11.5664L6.65745 11.5616V11.5474H6.66694V11.5347L6.69067 11.5237L6.697 11.492L6.72389 11.4857L6.72231 11.4683L6.74604 11.4588L6.78875 11.4145V11.3987L6.80456 11.4019L6.8188 11.3766H6.82671V11.3623L6.83462 11.3639L6.85993 11.3386L6.87575 11.3354V11.318L6.88208 11.3196L6.90739 11.2943L6.92162 11.299L7.13518 11.0665L7.13359 11.0539L7.14309 11.0554L7.14941 11.0254L7.15732 11.0285V11.0127L7.16682 11.0143V10.9985L7.17314 11.0001V10.9858L7.18263 10.9874V10.9716L7.19054 10.9748V10.9605H7.19845V10.9431L7.20478 10.9479V10.932L7.21427 10.9336L7.21269 10.9194L7.23009 10.9052V10.8925L7.24591 10.8878L7.25382 10.8593L7.27755 10.8482L7.28387 10.8197L7.30127 10.8166V10.8008L7.30918 10.8023V10.7865L7.325 10.7834L7.33291 10.7612L7.35822 10.7517V10.7375L7.38195 10.7264L7.38986 10.6979L7.43099 10.6742V10.66L7.46895 10.6378V10.6236L7.58918 10.486L7.5955 10.4891V10.4749L7.60341 10.4765L7.6129 10.4258L7.6224 10.4274L7.61923 10.4116L7.63031 10.4132L7.63663 10.3705L7.64454 10.3721V10.3562L7.65245 10.3594V10.3373H7.66036L7.66827 10.3104H7.6746V10.2882L7.68251 10.2898L7.69991 10.2487H7.70782V10.2344L7.71573 10.236V10.2218H7.72364V10.206L7.73155 10.2091V10.1949H7.73787V10.1807H7.74736V10.1664L7.75369 10.1696V10.1538L7.77109 10.1411V10.1269L7.78691 10.1221L7.80431 10.0794L7.81855 10.0763V10.0604L7.84386 10.0509L7.85019 10.0225L7.86759 10.0177V10.0035L7.89131 9.99399V9.97818H7.89764L7.90555 9.95761L7.92295 9.95287V9.93705L7.95617 9.92281V9.90699L7.99414 9.88643V9.87061L8.04318 9.84213V9.82632L8.13651 9.68078H8.14758L8.14442 9.66655L8.15391 9.66971L8.16973 9.60327L8.17764 9.60643V9.59062L8.18554 9.5922V9.57005L8.19345 9.57163L8.20136 9.54316L8.21085 9.54474V9.52101L8.2156 9.52259L8.23142 9.48147L8.24091 9.48305V9.46881L8.24882 9.47039V9.45457H8.25831L8.25673 9.44034L8.2678 9.4435L8.26306 9.42768L8.27413 9.42926L8.27255 9.41344L8.28204 9.41503L8.27888 9.40079L8.28837 9.40237V9.38497L8.30419 9.37548V9.36124L8.32159 9.35492L8.3295 9.32802L8.34373 9.3217L8.35164 9.2948L8.36904 9.29006V9.27582L8.38486 9.27108V9.25684L8.40068 9.25209V9.23627L8.41492 9.23153V9.21571L8.4339 9.21255L8.42757 9.18882L8.44972 9.17775V9.16351L8.48294 9.14769L8.49085 9.12554L8.56203 9.02747V8.99108L8.57152 8.99267V8.96894L8.57943 8.9721L8.57627 8.94837L8.58576 8.94995V8.9199L8.59367 8.92306V8.89933L8.61423 8.9025V8.88035L8.62372 8.88352L8.62214 8.85979H8.63005V8.84555L8.63796 8.84871L8.64587 8.80442L8.65536 8.806L8.6522 8.79018L8.66169 8.79177V8.76962L8.6696 8.7712L8.67751 8.74273L8.687 8.74589L8.68542 8.72849L8.69333 8.73166V8.70951L8.70282 8.71109L8.71706 8.66996H8.72496V8.65573H8.73446L8.73129 8.64307H8.74237L8.7566 8.60036L8.774 8.59561V8.57347L8.78824 8.56872L8.79773 8.54183L8.81197 8.53708V8.52127L8.82779 8.5181V8.50228L8.84519 8.49754V8.4833L8.85942 8.47856V8.46432L8.87841 8.45957V8.44534H8.88632L8.89106 8.42477L8.91004 8.42161V8.40579L8.93219 8.39472V8.38048L8.97332 8.35833V8.3441L9.09196 8.17009V8.14952H9.09987V8.12738L9.1062 8.13054V8.0989H9.11569L9.11411 8.08625L9.12202 8.08783V8.06568L9.13151 8.06727V8.05145L9.13784 8.05303V8.0293L9.14574 8.03247V8.01665L9.15524 8.01823V7.99608L9.16156 7.99766L9.16947 7.96919L9.17738 7.97077V7.95654H9.18529V7.93439L9.20269 7.92964V7.90908L9.2106 7.91066V7.89484H9.21693V7.88061L9.23433 7.87586L9.23275 7.86162L9.25015 7.85055V7.83473H9.25648V7.82049L9.26597 7.82366V7.80784L9.28179 7.80309L9.2897 7.77462L9.30551 7.77146V7.75564L9.32133 7.75089V7.73665L9.33873 7.73191L9.33715 7.71609L9.35297 7.71293V7.69711L9.36879 7.69236V7.67812L9.3941 7.66705V7.6544L9.41625 7.64174V7.62592L9.52065 7.48039L9.52856 7.48355V7.46141L9.53805 7.46299V7.43926L9.54438 7.44243V7.4187L9.55229 7.42028V7.39181L9.5602 7.39339V7.37757H9.56811L9.58551 7.31429L9.59183 7.31587V7.30006L9.60133 7.30164L9.59974 7.27949L9.60765 7.28266L9.61556 7.25418H9.62347L9.63138 7.22096H9.63929L9.65353 7.17825L9.66144 7.17983V7.16401L9.67251 7.16718L9.67093 7.15294L9.68042 7.15452L9.67884 7.1387L9.68675 7.14029V7.12605L9.70415 7.11339V7.09758L9.71838 7.09441L9.72629 7.06436L9.74211 7.06119L9.75002 7.03272L9.76584 7.02639L9.77533 6.99792L9.79906 6.99001L9.79748 6.97419L9.8133 6.96944V6.95362L9.8307 6.95046L9.83702 6.92831L9.86075 6.91882V6.903L9.87974 6.89984L9.87657 6.89193L9.89397 6.88877V6.87295L9.92561 6.85555V6.84131L10.1407 6.55183V6.53759L10.1487 6.54075V6.52494L10.1661 6.52019V6.50595L10.1819 6.4933V6.47748L10.1882 6.47906V6.46482L10.204 6.46008L10.2119 6.43161L10.2198 6.43319L10.2293 6.4142L10.2436 6.40788L10.2531 6.3794L10.2752 6.36833V6.35409L10.291 6.34935V6.33195L10.3163 6.32404V6.30822L10.3464 6.29398V6.27658L10.3796 6.26076V6.24811L10.454 6.20065L10.4508 6.18483L10.4698 6.18167L10.484 6.1611L10.5014 6.16427L10.5663 6.1089L10.5821 6.11207L10.6058 6.08676L10.6216 6.08992L10.6533 6.05828L10.6675 6.06145L10.6849 6.04246L10.7023 6.04404L10.7118 6.03139L10.7339 6.02823V6.02032L10.7498 6.02506L10.7577 6.01241L10.7751 6.01557L10.783 5.99975L10.8083 5.99659V5.98868L10.8558 5.98393L10.8621 5.97128L10.8795 5.97444L10.8953 5.96021L10.9111 5.96337V5.95704L10.9269 5.96021V5.95388L10.9459 5.95546L10.9522 5.94122L10.9744 5.94597V5.93964L11.0076 5.93648V5.93015L11.0313 5.9349V5.92699L11.0646 5.9254V5.91908L11.0899 5.92224V5.91591L11.1057 5.91908V5.91117L11.131 5.91591V5.90959L11.1437 5.91117V5.90168L11.2829 5.87795L11.2971 5.88111L11.3066 5.86529H11.3398L11.3461 5.85106L11.3794 5.84947V5.84156L11.3968 5.84473V5.8384L11.4426 5.83207V5.82575L11.4679 5.82733V5.821L11.5012 5.81942V5.81309L11.5249 5.81784V5.80835L11.5423 5.81309V5.8036L11.5882 5.80676L11.5897 5.79885L11.6135 5.8036V5.79569L11.6372 5.80044V5.79411L11.6625 5.79727V5.78936L11.6941 5.79569V5.78778L11.7274 5.79411V5.78778L11.7669 5.79411V5.78778L12.4076 5.93648V5.94439L12.4329 5.94913V5.95546L12.4566 5.96021V5.96811L12.4819 5.97286V5.98077L12.5072 5.98393V5.99184L12.5231 5.99501V6.00133L12.5484 6.00608V6.01557L12.58 6.02823V6.03455L12.6053 6.0393V6.04879L12.6544 6.07252V6.07885L12.686 6.0915L12.6939 6.10732L12.7271 6.12156L12.735 6.13738L12.7524 6.14054L12.7603 6.15794L12.7762 6.1611L12.7856 6.17692L12.7999 6.18009L12.8094 6.19591L12.8252 6.19907L12.8347 6.21647L12.8505 6.21963L12.8742 6.25285L12.8916 6.25602L12.9233 6.30031L12.9407 6.30347V6.30822L12.9565 6.32087V6.33669L13.0878 6.48697L13.1115 6.50754V6.52019L13.1384 6.54075V6.55499L13.1526 6.56448L13.1606 6.59137H13.17V6.60719L13.1859 6.61668L13.1954 6.64041L13.2017 6.64358V6.65781L13.2207 6.6768V6.68945L13.2286 6.69103V6.70685L13.2365 6.71002V6.72425H13.2444V6.73849L13.2523 6.74165V6.75747H13.2586L13.2776 6.80493L13.2855 6.80809V6.82866L13.295 6.83182V6.84606L13.3013 6.84764V6.86979L13.3092 6.87137V6.88877H13.3203V6.91091L13.3266 6.9125V6.93464L13.3361 6.93622L13.3456 6.99001H13.352L13.4374 7.24469L13.4421 7.24785L13.4548 7.27791L13.4611 7.27949L13.4706 7.32695H13.4785V7.34277H13.4864L13.5133 7.44559L13.5181 7.44717V7.4709H13.5291V7.49463H13.537V7.5231L13.5449 7.52626L13.5623 7.64174V8.26026L13.5465 8.36308L13.5386 8.35991V8.38364L13.5307 8.38206V8.40421L13.4611 8.79335L13.4548 8.79177L13.4579 8.88352H13.4469L13.45 8.94837L13.4405 8.94679V8.99108H13.4326V9.03379H13.4231V9.07018L13.4168 9.0686V9.09707H13.4105L13.3235 9.3739L13.3172 9.37073L13.3077 9.40079L13.2998 9.39921V9.42135L13.2918 9.41977L13.2839 9.44825L13.276 9.44508V9.4609L13.2665 9.45932L13.2697 9.48147L13.2523 9.48621V9.50203L13.2365 9.5131L13.1479 9.70609L13.1416 9.72507L13.1337 9.70609L13.1099 9.68711L13.102 9.65389L13.0767 9.63649V9.62067L13.0609 9.6096V9.59378L13.0356 9.5748L13.0182 9.54949L13.0103 9.54632V9.53209L12.9771 9.50361L12.9359 9.4435L12.9201 9.44034L12.9106 9.41503H12.9027V9.39288L12.8932 9.38972V9.36599H12.8853V9.34226L12.8758 9.34068V9.31853L12.8679 9.31695V9.2948H12.86V9.27108L12.8521 9.26949L12.8363 9.22046H12.8252V9.20464L12.8189 9.20306V9.18882L12.8094 9.18565V9.17142L12.7999 9.16984V9.15402L12.7936 9.15244V9.1382L12.7762 9.1208V9.10498L12.7603 9.09391L12.7445 9.04645L12.7176 9.02588V9.01007L12.6844 8.98317L12.6765 8.95786L12.6591 8.94679V8.93255L12.6338 8.91199V8.89775L12.6101 8.87877V8.86295L12.5515 8.806L12.5436 8.78228L12.5278 8.77911V8.76487L12.4946 8.74273L12.4535 8.69053L12.4345 8.68736V8.68104L12.3933 8.64782V8.63516L12.3712 8.62092V8.6146L12.3459 8.60352L12.338 8.58612L12.2874 8.56239L12.2794 8.54499L12.2541 8.53392V8.52601L12.2399 8.52443L12.2193 8.50387L12.2051 8.50228V8.49437L12.1893 8.49121L12.1798 8.47381L12.164 8.47223V8.46432L12.1466 8.46115L12.1292 8.44375L12.1133 8.44059L12.1054 8.42319L12.0311 8.38681V8.3789L12.0153 8.37573V8.36782L11.9662 8.352L11.7764 8.26342L11.6878 8.23811V8.23336L11.4252 8.17642L10.9333 8.18274L10.9064 8.178V8.18591L10.8605 8.19382V8.19856L10.8273 8.20173L10.8194 8.21438L10.8036 8.21122V8.21913L10.7877 8.21596V8.22387L10.7703 8.22071L10.7529 8.23336L10.7387 8.22862L10.7292 8.24286L10.6817 8.25076L10.6643 8.26817L10.6295 8.27133L10.6248 8.28398L10.5979 8.28715V8.29348L10.5742 8.29822L10.5758 8.31246L10.5331 8.32828V8.3346L10.5188 8.33144L10.4777 8.37099L10.446 8.3789V8.39472L10.4207 8.3963V8.41212L10.4049 8.41528V8.42477L10.3875 8.42161L10.3464 8.45799V8.47381L10.3416 8.47223L10.3258 8.5007L10.3084 8.49596L10.3005 8.51652H10.291L10.2831 8.53708L10.2657 8.54183L10.2594 8.5703L10.2372 8.58138L10.2183 8.62092L10.2009 8.62725L10.204 8.64307L10.1882 8.65573V8.66996H10.1803V8.6842H10.1708V8.69685L10.1629 8.69527V8.71109L10.155 8.70951V8.72375L10.1471 8.72216L10.1297 8.76487H10.1218L10.0427 8.99741L10.03 9.14611L10.0205 9.14453L10.0158 9.31695H10.0221L10.0316 9.47039L10.0411 9.47356L10.0506 9.5653L10.0569 9.56689L10.0585 9.59536L10.0664 9.59694V9.627L10.0743 9.63016L10.0775 9.65864L10.0838 9.66022L10.087 9.68236L10.0933 9.68553V9.70767L10.1012 9.71084V9.73298H10.1091V9.75671H10.1186V9.78044L10.1265 9.78202V9.80417L10.1344 9.80733V9.82948H10.1423L10.1613 9.87852L10.1692 9.8801V9.89434H10.1755L10.1771 9.91015L10.1866 9.91332V9.92914H10.1945V9.94654H10.2009V9.96077L10.2183 9.97976V9.99399L10.2372 10.0051L10.2531 10.0525L10.2752 10.0731L10.2847 10.1047L10.3021 10.1158L10.31 10.1395L10.3179 10.1411L10.3274 10.1664L10.3416 10.1696V10.1822L10.367 10.2028V10.217L10.3859 10.2281V10.2439L10.4097 10.2645V10.2724L10.4255 10.274L10.4429 10.293L10.4508 10.3151L10.484 10.3452V10.3673L10.4919 10.3705V10.391L10.5014 10.3942L10.503 10.4148L10.5109 10.4179V10.4401L10.5188 10.4417V10.4575H10.5267L10.5346 10.5049L10.5441 10.5065L10.5615 10.5556L10.571 10.5571V10.5714L10.5789 10.5745V10.5888H10.5837V10.6046L10.5947 10.6078V10.6204L10.6106 10.641V10.6552L10.6264 10.6647L10.6438 10.7137L10.6675 10.7343L10.6786 10.7644L10.6944 10.7754L10.7023 10.8008L10.7355 10.8276V10.845L10.7767 10.883V10.8957L10.8352 10.9526L10.8431 10.9763L10.8605 10.9795L10.8858 11.038L10.9016 11.1076L10.9111 11.1092V11.125L10.919 11.1266V11.1488L10.9269 11.1503L10.9459 11.1978L10.9522 11.201V11.2152L10.9602 11.2168V11.2326L10.9696 11.2342V11.2484L10.976 11.25V11.2722L10.9934 11.2832L11.0029 11.3149L11.0203 11.3259L11.0361 11.3734L11.0519 11.3845V11.4003L11.0693 11.4114L11.0788 11.443L11.093 11.4525V11.4683L11.1263 11.4952V11.5126L11.1611 11.5395V11.5569L11.1864 11.5759L11.1959 11.5917L11.2117 11.5949V11.6028L11.2259 11.6138V11.6281L11.2528 11.6391L11.2623 11.6645L11.2765 11.6676L11.286 11.6834L11.2939 11.685V11.7008L11.3098 11.7119L11.3177 11.7562L11.3272 11.761V11.7752L11.3366 11.7768V11.7989L11.3446 11.8005L11.362 11.848L11.3683 11.8511V11.8654L11.3778 11.8669V11.8828L11.3857 11.8843V11.8986H11.3952V11.916H11.4031V11.9334L11.4189 11.9508V11.965L11.4379 11.9777L11.4521 12.0251L11.4774 12.0441L11.4853 12.0678H11.4948V12.0837L11.5186 12.1042V12.12L11.5534 12.1485V12.1627L11.585 12.1912V12.207L11.6435 12.2656L11.6514 12.2877L11.6688 12.2893V12.3051L11.6926 12.3162V12.3241L11.7353 12.3636V12.3779L11.7511 12.389V12.4032L11.759 12.4048V12.4206L11.7669 12.4222V12.4443L11.7764 12.4459L11.8001 12.5076H11.797L11.7906 12.5503L11.7827 12.5487V12.5645L11.7748 12.5614V12.5851L11.7653 12.5819V12.6057H11.759V12.6199L11.7511 12.6167V12.6405L11.7416 12.6373L11.7353 12.6658L11.7274 12.6642V12.6879L11.7195 12.6864L11.7021 12.7275L11.6941 12.7259V12.7433L11.6878 12.7386V12.7623L11.6736 12.767V12.7813L11.6641 12.7797V12.8034L11.6483 12.8066V12.8224L11.6404 12.8208V12.835L11.6245 12.8477V12.8619L11.6087 12.8667L11.5929 12.9078L11.5755 12.9141V12.9284L11.5534 12.9379L11.5455 12.9663L11.5217 12.9774V12.9932L11.5043 12.9964L11.4964 13.0185L11.4885 13.0154V13.0312L11.4632 13.0423V13.0581L11.4252 13.0945L11.3335 13.2163L11.3192 13.24L11.3129 13.2384V13.259L11.305 13.2574V13.2875H11.2955V13.3096L11.2892 13.3064L11.2765 13.3286L11.2686 13.3254V13.3492L11.2623 13.3476V13.3697L11.2528 13.3681V13.3824L11.2449 13.3808V13.4045L11.237 13.4014V13.4172L11.2291 13.4156L11.2069 13.4551H11.2022L11.1911 13.4836L11.1864 13.4805V13.4963L11.1769 13.4947V13.5184L11.169 13.5168L11.1531 13.5232H11.1579L11.1595 13.539L11.1484 13.5374L11.1357 13.5801L11.1183 13.5833L11.1025 13.626L11.0851 13.6307L11.0709 13.6703L11.0551 13.6782V13.6893L11.0377 13.694V13.7114L11.0219 13.7146V13.7304H11.0124L11.0045 13.751L10.9886 13.7541V13.7684L10.9665 13.7794V13.7952L10.9507 13.7984V13.8142L10.9333 13.819L10.9491 13.8285L10.9301 13.8316V13.8474L10.8985 13.8997V13.9155L10.8431 13.9471V13.9645L10.8115 13.9787L10.6438 14.1955L10.6359 14.1939L10.6264 14.2224L10.6216 14.2208V14.2366L10.6106 14.235V14.2556H10.6058L10.5884 14.2967H10.5789V14.3094L10.5726 14.3078V14.3252L10.5631 14.322L10.5663 14.3378L10.5568 14.3362V14.3505L10.541 14.3616V14.3774L10.5251 14.3821V14.4043L10.5172 14.4011L10.5077 14.4248L10.4919 14.4264L10.484 14.4565L10.4698 14.4612V14.4755L10.4603 14.4739V14.4897L10.446 14.4944V14.5087L10.4207 14.5197L10.4128 14.5482L10.3875 14.5577V14.5735L10.3654 14.5846V14.5988L10.3496 14.6036V14.6178L10.3163 14.6352V14.6495L10.2752 14.6716V14.6874L10.155 14.8345H10.1471V14.8646L10.1376 14.8614V14.8773L10.1297 14.8757L10.1012 14.9389L10.0933 14.9358L10.087 14.9722H10.0775V14.9864L10.0711 14.9832V15.0054H10.0632L10.0458 15.0465L10.0379 15.0449V15.0592L10.03 15.0576V15.0734H10.0221V15.094L10.0063 15.1003V15.1209L9.99205 15.1256V15.1414L9.98256 15.1383V15.1541L9.97465 15.1525V15.1683L9.96674 15.1667V15.181L9.95092 15.1936V15.2094L9.9351 15.2142L9.92719 15.2411L9.91137 15.2442L9.90346 15.2743L9.87974 15.2854L9.87024 15.3123L9.84968 15.3218L9.84019 15.3439L9.82437 15.3502L9.81488 15.3787L9.78957 15.3866V15.4024L9.7516 15.4262V15.4404L9.71047 15.461V15.4784L9.57602 15.6318L9.56811 15.6524L9.5602 15.6508V15.6808L9.55229 15.6777L9.54438 15.7062L9.53805 15.7046L9.52856 15.7489L9.52065 15.7473L9.51432 15.7852L9.50483 15.7821L9.49692 15.809L9.48901 15.8074V15.8232L9.47952 15.8216V15.8454L9.47161 15.8422L9.45737 15.8865L9.44947 15.8849V15.8991H9.44156L9.42416 15.9387L9.40834 15.9419V15.9593L9.3941 15.9703V15.9846L9.38619 15.983V15.9988H9.37828V16.0115L9.36404 16.0178L9.35455 16.0447L9.33873 16.0494V16.0637L9.32133 16.0684V16.0842L9.30551 16.0874V16.1016L9.2897 16.108V16.1222L9.27388 16.1269V16.1428L9.25015 16.1522V16.1665L9.23433 16.1712V16.1886L9.20269 16.2044V16.2187L9.16156 16.2408V16.2551L9.13151 16.2725V16.2804L9.11411 16.2851L8.9749 16.4591L8.96699 16.4718L8.94959 16.5145H8.94326L8.93694 16.543L8.92903 16.5414V16.562L8.91954 16.5604V16.5762L8.91163 16.5746V16.5968H8.90213L8.87524 16.6363L8.86733 16.6331V16.649L8.85942 16.6474V16.6695L8.84519 16.6743V16.6885L8.82779 16.6996V16.7154H8.81988V16.728H8.81197V16.7423L8.79615 16.7549V16.7692L8.78033 16.7739L8.77084 16.8024L8.7566 16.8071V16.8214L8.74078 16.8261V16.8404L8.72338 16.8451L8.71547 16.8752L8.69016 16.8847L8.68542 16.9131L8.66011 16.9226L8.61898 16.9685V16.9843L8.60632 16.9796L8.58892 17.008L8.58101 17.0065V17.0191L8.5652 17.0239V17.0318L8.54779 17.0365V17.0523L8.46079 17.1109V17.1251L8.44339 17.1283L8.40543 17.1662L8.38802 17.1646L8.37853 17.1773L8.12227 17.4146L8.11436 17.4114L8.11752 17.4257H8.10803V17.4399L8.09221 17.4525V17.4684L8.07481 17.4715L8.0669 17.5L8.05267 17.5048L8.04318 17.5332L8.01945 17.5427L8.01312 17.5712L7.98781 17.5823L7.9799 17.6107L7.95775 17.6202V17.636L7.93244 17.6471V17.6614L7.89922 17.6772L7.89448 17.6993L7.88499 17.6977V17.712L7.86917 17.7088L7.70782 17.8591L7.692 17.8559L7.68251 17.867L7.61923 17.9018V17.9176L7.61132 17.9145L7.5781 17.9319V17.9398L7.56545 17.9366V17.9508L7.53065 17.9603V17.9682L7.51641 17.9635L7.50692 17.9777L7.49901 17.9762L7.48952 17.9904L7.32975 18.147L7.31551 18.1517L7.30602 18.1802L7.2902 18.1834V18.1992L7.2728 18.2039V18.2182L7.25856 18.2229V18.2372L7.24275 18.2435V18.2561L7.22693 18.2625V18.2767L7.20162 18.2862V18.302L7.18738 18.3068V18.321L7.17156 18.3242V18.3321L7.15574 18.3384V18.3526L7.12252 18.37V18.3843L7.06716 18.4191V18.4333L7.01021 18.4681L7.0023 18.4887L6.98806 18.4871L6.98015 18.5061L6.95484 18.5108L6.88208 18.5551L6.67327 18.7623L6.64321 18.8035V18.8177L6.62581 18.8209L6.6179 18.8509L6.60208 18.8557L6.60367 18.8699L6.58627 18.8747L6.57203 18.8952V18.9079L6.55463 18.9126L6.54197 18.9142L6.52615 18.9174V18.9316L6.51034 18.9379V18.9522L6.48503 18.9632L6.44548 19.0075V19.0234L6.42966 19.0186L6.42017 19.0408L6.39802 19.0502V19.0661L6.35689 19.0882L6.20503 19.2021V19.2163L6.1908 19.229L6.17181 19.2258L6.15758 19.2448L6.07532 19.2828L6.07848 19.2954L6.05317 19.3002L6.00413 19.3207L5.98832 19.3397L5.9725 19.3366L5.94719 19.3476L5.93928 19.3619L5.93453 19.3729L5.9282 19.3856L5.87284 19.3983V19.4141L5.8412 19.4157V19.422L5.8238 19.4188L5.81589 19.4315L5.79849 19.4283V19.4378L5.78425 19.4331L5.76685 19.4378L5.27647 19.7573L5.26223 19.7542L5.23534 19.7811L5.2211 19.7779V19.7842L5.19738 19.7969L5.18789 19.8095L5.17207 19.8048L5.16574 19.8206L5.14676 19.8159L5.13094 19.8349L5.11512 19.8317L5.0993 19.8523L5.06608 19.8538L5.05184 19.8728L5.03603 19.8712L5.02812 19.8823L4.99331 19.8839L4.98541 19.8981L4.95535 19.8997L4.94744 19.9124L4.93004 19.9092L4.91422 19.9234L4.8984 19.9187V19.9266L4.88258 19.9234L4.87467 19.9377L4.83987 19.9393L4.84304 19.9456L4.82722 19.944V19.9488L4.77818 19.9567V19.9662L4.75287 19.9582V19.9677L4.73705 19.9662V19.9709L4.68959 19.9772V19.9851L4.64056 19.982V19.9899L4.62315 19.9867V19.9962L4.55039 19.9978V20.0025L4.53457 20.001V20.0073L4.50293 20.0025V20.0089L4.4792 20.0057V20.0136L4.45389 20.0073V20.0168L4.43017 20.012V20.0184L4.39853 20.0136L4.26249 20.0247L4.18181 20.0168V20.0247L3.69459 19.9567V19.9488L3.52217 19.9092L3.1963 19.7906V19.7811L3.09032 19.7399V19.7336L3.07608 19.7305V19.721L3.05077 19.7178V19.7099L3.00173 19.6941V19.6862L2.98433 19.683V19.6767L2.95902 19.6703V19.664L2.92896 19.6498V19.6434L2.91314 19.6403V19.6324L2.88783 19.6292V19.6213L2.85462 19.6071V19.5992L2.84038 19.5976V19.5912L2.81349 19.5849L2.80716 19.5675L2.78818 19.5659V19.558L2.77394 19.5549V19.547L2.75654 19.5454V19.5375L2.74072 19.5327L2.72332 19.5169L2.7075 19.5122L2.69959 19.4963L2.65055 19.471L2.64264 19.4568L2.60942 19.4441L2.59361 19.4172L2.57779 19.4141L2.56671 19.3983L2.55248 19.3951L2.55089 19.3872L2.52717 19.3761L2.51926 19.3587L2.50344 19.3555L2.48762 19.3302L2.47022 19.3271L2.46231 19.3113L2.44491 19.3081L2.42909 19.2828L2.41327 19.2812L2.38005 19.2369L2.36423 19.2337L2.3231 19.1815L2.30729 19.1784L2.2013 19.055L2.13486 18.9886V18.9743L2.07633 18.9174V18.9031L2.04628 18.8747V18.8604L2.01306 18.8304L2.00989 18.8177L1.99407 18.8066V18.7908L1.97035 18.7718V18.7576L1.95294 18.7465L1.94504 18.7228L1.93713 18.7212V18.707L1.91973 18.6959V18.6817L1.90391 18.669V18.6548L1.88967 18.6437L1.87227 18.5962L1.85487 18.5868L1.83905 18.5393L1.82165 18.5282L1.81216 18.4982L1.80425 18.495V18.4808L1.79634 18.4792V18.4634H1.78685V18.4475L1.7821 18.446L1.77894 18.4301L1.77103 18.4286V18.4064L1.75363 18.3969V18.3748L1.74572 18.3716L1.73781 18.3416H1.7299V18.3178H1.72199L1.71408 18.2846L1.70617 18.283L1.69668 18.2372L1.68719 18.234V18.2198L1.67928 18.2182V18.1881L1.67137 18.1865V18.1723L1.66504 18.1707V18.1422L1.65397 18.1391V18.1169L1.64606 18.1154V18.0916H1.63815L1.62866 18.0378L1.62233 18.0363L1.61284 17.9682L1.60335 17.9667V17.9366L1.59702 17.935V17.9034H1.58753V17.8591L1.57962 17.8575L1.57013 17.7499L1.56222 17.7484L1.54166 17.462L1.55115 17.4636L1.56222 17.19L1.57013 17.1915V17.1457L1.57962 17.1472V17.103L1.58753 17.1045L1.59386 17.0381L1.60177 17.0413L1.60019 17.0033L1.60968 17.0049L1.6081 16.9764H1.61759L1.6255 16.9242L1.63182 16.9289V16.9052H1.63973V16.8831L1.64922 16.8847V16.8562H1.65713L1.65397 16.8404L1.66504 16.8419L1.67928 16.7771L1.68719 16.7787L1.69668 16.7518L1.70301 16.7534L1.70934 16.7075L1.72041 16.7122L1.73623 16.6695L1.74572 16.6727V16.6553L1.75046 16.6584L1.75837 16.6221L1.77419 16.6173L1.7821 16.5825L1.80108 16.5762L1.79792 16.562L1.81532 16.5509V16.5335L1.82165 16.5366V16.5224H1.82956V16.5082L1.84538 16.505L1.86436 16.4607L1.86911 16.4623L1.87701 16.4417L1.89442 16.4386V16.4227L1.91023 16.418V16.4038L1.93554 16.3927L1.94345 16.3626L1.96718 16.3563V16.3389L1.98933 16.3294V16.3136L2.02887 16.2915V16.2772L2.07 16.2535V16.2392L2.10006 16.2234V16.206L2.15226 16.1886V16.1728L2.20763 16.1396L2.21554 16.1254L2.23136 16.1269L2.24876 16.1159L2.24717 16.1L2.32627 16.0621V16.0478L2.39113 16.0225L2.39903 16.0099L2.41485 16.0115L2.43225 15.9925L2.44807 15.9972L2.46389 15.9767L2.48129 15.9782L2.48762 15.9672L2.51135 15.9624V15.9561L2.52717 15.9593L2.53666 15.945L2.55248 15.9498L2.56039 15.9355L2.57779 15.9387L2.78501 15.7963L2.90524 15.6714H2.91473L2.97009 15.616H2.978V15.6018L3.00964 15.578L3.03337 15.5749L3.09032 15.5258L3.32443 15.3597V15.3455L3.33709 15.3265L3.35449 15.3138V15.298L3.3624 15.2996V15.2854L3.37822 15.2806V15.2664L3.39562 15.2537L3.39245 15.2395L3.40827 15.2348V15.2189L3.42567 15.2158V15.2L3.44149 15.181L3.45889 15.1762L3.49844 15.1319L3.5459 15.0813V15.0655L3.5633 15.0687L3.60601 15.0465L3.61233 15.0481V15.0339L3.64239 15.0165V15.0085L3.65821 15.0054V14.9911L3.70883 14.9611L3.80216 14.8598L3.81798 14.8614L3.8686 14.8187L3.88442 14.8219L3.89707 14.7792L3.91447 14.7839L3.94769 14.7507L3.96351 14.7539L3.97142 14.7412L3.98882 14.7428L4.00306 14.7238L4.07108 14.6764L4.0869 14.6653L4.09639 14.6605L4.16125 14.5909L4.16757 14.5609L4.17548 14.5625L4.18497 14.5419L4.20079 14.5387V14.5229L4.21503 14.5197V14.5039L4.24983 14.4865L4.25616 14.4581L4.27198 14.4533L4.27989 14.4343L4.32102 14.4106V14.3964L4.36056 14.3742V14.3584L4.43966 14.3062L4.44757 14.2856L4.75445 13.9693L4.77185 13.9661L4.78767 13.925L4.80507 13.9186L4.81931 13.8759L4.82722 13.8775L4.83513 13.8569L4.85095 13.8522L4.85885 13.8237L4.88258 13.8142L4.89049 13.7858L4.91422 13.7747V13.7604L4.93953 13.751V13.7336L4.95535 13.7304V13.7146L4.99648 13.6924L4.99331 13.6782L5.03603 13.6545V13.6418L5.38246 13.1483L5.39195 13.1324L5.40935 13.1293L5.41726 13.0992L5.43466 13.0961L5.44257 13.066L5.45839 13.0628V13.047L5.47421 13.0423L5.47262 13.0265L5.48844 13.0233V13.0075L5.50584 13.0043V12.9901L5.52799 12.9774V12.9648L5.5533 12.9521L5.55172 12.9379L5.59443 12.9173V12.8999L5.63398 12.8793V12.8651L5.66719 12.8477L5.66561 12.8319L5.68301 12.8208L5.69883 12.824" fill="#00B9AD"/>
<path d="M11.8096 12.4744L11.8333 12.3889L11.8492 12.3921L11.8729 12.2924L11.8887 12.2845L11.8966 12.2656H11.9045L11.914 12.245L11.9298 12.2466L11.9631 12.1944L11.9789 12.1975L12.0089 12.1343L12.0263 12.1374L12.058 12.0678L12.0754 12.071L12.1086 12.0172V11.9935L12.1244 11.9903L12.1228 11.9682L12.1371 11.9634L12.1466 11.9255L12.1545 11.9286V11.9128L12.1719 11.9096L12.1798 11.8638L12.1956 11.8685L12.2035 11.8163L12.2177 11.8116L12.2272 11.753L12.2431 11.7483L12.251 11.6882L12.2684 11.685V11.647L12.2731 11.6486V11.6202L12.2921 11.6138L12.2984 11.5252L12.3142 11.5189L12.3127 11.4588L12.3206 11.4604V11.4382L12.3285 11.4398L12.338 11.405L12.3459 11.4066L12.3617 11.4003L12.3696 11.3655L12.3933 11.3623L12.3918 11.3402L12.4076 11.3417L12.4186 11.3054L12.444 11.3038L12.4408 11.28L12.4566 11.2832L12.474 11.2342L12.4898 11.2373L12.4993 11.193L12.5151 11.1962L12.5705 11.0712L12.5863 11.0744L12.5942 11.0301L12.6101 11.0333L12.6195 10.9827L12.6338 10.9858L12.6417 10.9194L12.6575 10.9225L12.6812 10.8197L12.6907 10.8213L12.6986 10.747L12.7129 10.7438L12.7192 10.6394L12.7382 10.6346V10.6046H12.7461L12.7682 10.5571L12.7856 10.5603L12.8094 10.5429L12.8505 10.4591L12.8647 10.4622L12.898 10.391L12.9138 10.3958L13.1352 9.76619L13.1447 9.76777L13.1511 9.75195H13.159V9.76777H13.1669V9.78517H13.1748V9.79941L13.1827 9.80099V9.81681L13.1922 9.81839V9.83263L13.2001 9.83421V9.85003L13.208 9.85161V9.86585L13.2159 9.86743L13.2333 9.91489L13.2412 9.91805L13.3899 10.1743V10.1917L13.4216 10.2202V10.2344L13.4469 10.2534V10.2676L13.4722 10.2882V10.304L13.488 10.3135V10.3293L13.5054 10.3388L13.5133 10.3641H13.5212V10.38L13.5386 10.3958V10.4116L13.5465 10.4132V10.4306L13.5639 10.4385L13.5718 10.4701L13.5782 10.4733L13.5956 10.5207L13.6051 10.5223V10.5461H13.613L13.6209 10.5761L13.6288 10.5793L13.7711 10.7754V10.7912L13.8107 10.8276V10.8434L13.8439 10.8719V10.8862L13.8676 10.9051V10.9194L13.885 10.932V10.9479L13.9088 10.9668V10.9827L13.9262 10.9906L13.9341 11.0238L13.9499 11.0333L13.9673 11.0807L13.9831 11.0934L13.991 11.1234L13.9989 11.125L14.01 11.1567H14.0179V11.1804H14.0258L14.0353 11.2136L14.0416 11.2152L14.0496 11.2532L14.059 11.2547L14.1983 11.4525V11.4683L14.2394 11.5047V11.5189L14.2647 11.5395V11.5537L14.2868 11.5743V11.5885L14.3042 11.598L14.3153 11.6233L14.3232 11.6249V11.6391L14.339 11.6486L14.347 11.6818L14.3612 11.6913L14.3802 11.7404H14.3881V11.7546L14.396 11.7562V11.7736H14.4055V11.7894L14.4134 11.791L14.4292 11.8385L14.4371 11.84V11.8622L14.445 11.8638V11.878L14.4529 11.8796L14.4561 11.9017L14.464 11.9033V11.9191L14.4719 11.9207V11.9413L14.4798 11.9444V11.965L14.4877 11.9682V11.9903L14.4956 11.9919L14.5447 12.0678L14.5858 12.1279L14.5937 12.1295L14.6032 12.1532L14.6269 12.1738V12.1865L14.6459 12.1991V12.2134L14.6681 12.2323V12.2466L14.6839 12.2576L14.6934 12.283H14.7013L14.7108 12.3146L14.7282 12.3273V12.3415L14.744 12.3589V12.3747H14.7535V12.3905L14.7582 12.3921L14.7598 12.4079L14.7772 12.4174V12.4396L14.7851 12.4411V12.4554L14.793 12.4585L14.8009 12.4886L14.8089 12.4902V12.5139H14.8168V12.5297H14.8247L14.8358 12.5709H14.8437V12.593L14.8516 12.5946L14.9496 12.7702L14.9813 12.7971V12.8145L15.0082 12.8335V12.8477L15.024 12.8588V12.873L15.0809 12.9663L15.0968 12.9758V12.9916L15.1157 13.0106V13.0233L15.1237 13.0264V13.0407L15.1331 13.0423V13.0597H15.1411V13.0723L15.1474 13.0739L15.1648 13.1229L15.1727 13.1261L15.3119 13.3223L15.3293 13.3491H15.3372V13.3634L15.372 13.3903V13.4077L15.3942 13.4282V13.4425L15.421 13.4615V13.4757L15.4369 13.4883V13.5026L15.4527 13.5121L15.4622 13.5358L15.4701 13.5374L15.478 13.5706L15.4938 13.5801L15.5017 13.6117L15.5429 13.6924H15.5555L15.5539 13.7003L15.5286 13.7114V13.7177L15.5144 13.7161V13.724L15.4954 13.7193L15.4827 13.7399L15.4717 13.7383V13.7541L15.4669 13.7525L15.4543 13.7652L15.44 13.7636L15.4321 13.7842L15.4084 13.8031L15.3973 13.8V13.8095L15.3831 13.8047V13.8126L15.3594 13.8237V13.8379L15.3435 13.8443V13.8585L15.3103 13.8759L15.2692 13.906V13.9202L15.2613 13.9186V13.9344L15.2375 13.9455V13.9518L15.2201 13.9503L15.2122 13.9645L15.179 13.9661L15.0968 13.9882L15.073 14.0056V14.0135L15.0572 14.0104V14.0167L15.0398 14.0135L15.024 14.0341L15.0082 14.0325L14.9987 14.0436H14.9813L14.9338 14.0847L14.918 14.0831L14.8927 14.1084L14.869 14.1116L14.8595 14.1322L14.8358 14.1353V14.1512L14.8104 14.1701L14.8041 14.167V14.1749L14.7788 14.1796L14.7725 14.1907L14.7456 14.1875L14.7393 14.2018L14.7234 14.1986V14.2065L14.706 14.2034V14.2097L14.6728 14.2034V14.2113L14.6222 14.2176V14.2255L14.5985 14.2208L14.6001 14.2303L14.5842 14.2255L14.5747 14.2397L14.5415 14.2413L14.4561 14.2967L14.3438 14.3505L14.1571 14.4422L14.1318 14.4596L14.0353 14.5482L14.0116 14.5656L13.9372 14.5751L13.9214 14.5941L13.8471 14.6036L13.8392 14.6178H13.8059L13.7917 14.6384L13.7743 14.6368L13.7664 14.6494L13.7316 14.651L13.7158 14.67L13.6841 14.6874L13.6683 14.6842V14.6985L13.6525 14.6953L13.6351 14.7175L13.6161 14.7127L13.6193 14.7206L13.6019 14.7175V14.7238L13.5845 14.7301L13.5861 14.7444L13.5703 14.7491V14.757L13.537 14.7586L13.5291 14.7697L13.3614 14.7855L13.2665 14.6653L13.2412 14.6463L13.2333 14.6241L13.1985 14.5941V14.5798L13.1748 14.5577V14.5466L13.1479 14.5245V14.5102L13.1321 14.4992V14.4834L13.1147 14.4739L13.1068 14.4438L13.0909 14.4311L13.083 14.4011L13.0751 14.3995L13.0672 14.3679L13.0593 14.3647V14.3521L13.0498 14.3489L13.0356 14.3331L13.0308 14.3315L12.9549 14.2303L12.8948 14.1575V14.148L12.86 14.1211V14.1084L12.7809 14.023V14.0088L12.7603 13.9819V13.9677L12.7445 13.9566V13.9423L12.7239 13.9313V13.9186L12.7097 13.906V13.8917L12.6939 13.8822V13.8664L12.6765 13.8553V13.8395H12.6686L12.6591 13.8079L12.6433 13.7968L12.6338 13.7652H12.6275L12.5958 13.7146L12.5879 13.713V13.6892H12.5816L12.5721 13.656L12.5626 13.6544L12.4076 13.4393V13.4251L12.368 13.3887V13.3729L12.3427 13.3539V13.3381L12.3174 13.3191V13.3049L12.3016 13.2954V13.278L12.2858 13.2685L12.2747 13.2447L12.2684 13.2432L12.251 13.1941L12.2351 13.1846L12.0706 12.8936L12.0611 12.8683L11.9963 12.805V12.7892L11.9631 12.7623V12.7464L11.9298 12.718V12.7022L11.914 12.6911L11.9045 12.6674H11.8966V12.6531L11.8808 12.642V12.6262L11.8634 12.6167V12.6009L11.8492 12.5898V12.5772L11.8065 12.5171V12.5107L11.8112 12.5123L11.8096 12.4744Z" fill="#B2C23E"/>
<path d="M13.1511 9.72827V9.73776L13.1416 9.72827H13.1511Z" fill="#81BB45"/>
<path d="M11.8065 12.5108H11.8001V12.5076L11.8065 12.5092V12.5108Z" fill="#81BB45"/>
<path d="M11.7669 12.4444V12.4222L11.759 12.4206V12.4048L11.7511 12.4032V12.389L11.7353 12.3779V12.3637L11.6926 12.3241V12.3162L11.6688 12.3052V12.2893L11.6514 12.2878L11.6435 12.2656L11.585 12.2071V12.1913L11.5534 12.1628V12.1485L11.5186 12.1201V12.1043L11.4948 12.0837V12.0679H11.4853L11.4774 12.0441L11.4521 12.0252L11.4379 11.9777L11.4189 11.965V11.9508L11.4031 11.9334V11.916H11.3952V11.8986H11.3857V11.8844L11.3778 11.8828V11.867L11.3683 11.8654V11.8512L11.362 11.848L11.3446 11.8005L11.3366 11.799V11.7768L11.3272 11.7752V11.761L11.3177 11.7562L11.2259 11.6281V11.6139L11.2117 11.6028V11.5949L11.1959 11.5917L11.1864 11.5759L11.1611 11.5569V11.5395L11.1263 11.5126V11.4952L11.093 11.4683V11.4525L11.0788 11.443L11.0693 11.4114L11.0519 11.4003V11.3845L11.0361 11.3734L11.0203 11.326L11.0029 11.3149L10.9934 11.2833L10.976 11.2722V11.25L10.9697 11.2485V11.2342L10.9602 11.2326V11.2168L10.9523 11.2152V11.201L10.9459 11.1978L10.9269 11.1504L10.919 11.1488V11.1267L10.9111 11.1251V11.1093L10.9016 11.1077L10.7767 10.8957V10.883L10.7355 10.8451V10.8277L10.7023 10.8008L10.6944 10.7755L10.6786 10.7644L10.6675 10.7343L10.6438 10.7138L10.6264 10.6647L10.6106 10.6553V10.641L10.5947 10.6205V10.6078L10.5837 10.6046V10.5888H10.5789V10.5746L10.571 10.5714V10.5572L10.5615 10.5556L10.5441 10.5066L10.5346 10.505L10.5267 10.4575H10.5188L10.5109 10.4401L10.503 10.4148L10.4508 10.3152L10.4255 10.274L10.4097 10.2724V10.2645L10.3859 10.244V10.2281L10.367 10.2171V10.2028L10.3416 10.1823V10.1696L10.3274 10.1665L10.3179 10.1411L10.31 10.1396L10.3021 10.1158L10.2847 10.1048L10.2752 10.0731L10.2531 10.0526L10.2372 10.0051L10.2183 9.99403V9.97979L10.2009 9.96081V9.94657H10.1945V9.92917H10.1866V9.91335L10.1771 9.91019L10.1755 9.89437H10.1692V9.88013L10.1613 9.87855L10.1423 9.82951H10.1344V9.80737L10.1265 9.8042V9.78206L10.1186 9.78048V9.75675H10.1091V9.73302H10.1012V9.71087L10.0933 9.70771V9.68556L10.087 9.6824L10.0838 9.66025L10.0775 9.65867L10.0743 9.6302L10.0664 9.62703V9.59698L10.0585 9.5954L10.0569 9.56692L10.0506 9.56534L10.0411 9.47359L10.0316 9.47043L10.0221 9.31699H10.0158L10.0205 9.14456L10.03 9.14614L10.0427 8.99745L10.1218 8.76491H10.1297L10.1471 8.7222L10.155 8.72378V8.70955L10.1629 8.71113V8.69531L10.1708 8.69689V8.68424H10.1803V8.67H10.1882V8.65576L10.204 8.64311L10.2009 8.62729L10.2183 8.62096L10.2372 8.58141L10.2594 8.57034L10.2657 8.54187L10.2831 8.53712L10.291 8.51656H10.3005L10.3084 8.49599L10.3258 8.50074L10.3416 8.47226L10.3464 8.47385V8.45803L10.3875 8.42164L10.4049 8.42481V8.41532L10.4207 8.41215V8.39633L10.446 8.39475V8.37893L10.4777 8.37102L10.5188 8.33148L10.5331 8.33464V8.32831L10.5758 8.31249L10.5742 8.29826L10.5979 8.29351V8.28718L10.6248 8.28402L10.6295 8.27137L10.6643 8.2682L10.6817 8.2508L10.7292 8.24289L10.7387 8.22865L10.7529 8.2334L10.7703 8.22075L10.7877 8.22391V8.216L10.8036 8.21916V8.21125L10.8194 8.21442L10.8273 8.20176L10.8605 8.1986V8.19385L10.9064 8.18594V8.17803L10.9333 8.18278L11.4252 8.17645L11.6878 8.2334V8.23815L11.7764 8.26346L11.9662 8.35204L12.0153 8.36786V8.37577L12.0311 8.37893V8.38684L12.1054 8.42323L12.1134 8.44063L12.1292 8.44379L12.1466 8.46119L12.164 8.46435V8.47226L12.1798 8.47385L12.1893 8.49125L12.2051 8.49441V8.50232L12.2193 8.5039L12.2399 8.52447L12.2541 8.52605V8.53396L12.2794 8.54503L12.2874 8.56243L12.338 8.58616L12.3459 8.60356L12.3712 8.61463V8.62096L12.3933 8.6352V8.64785L12.4345 8.68107V8.6874L12.4535 8.69056L12.4946 8.74276L12.5278 8.76491V8.77915L12.5436 8.78231L12.5515 8.80604L12.6101 8.86299V8.87881L12.6338 8.89779V8.91203L12.6591 8.93259V8.94683L12.6765 8.9579L12.6844 8.98321L12.7176 9.0101V9.02592L12.7445 9.04649L12.7603 9.09394L12.7762 9.10501V9.12083L12.7936 9.13823V9.15247L12.7999 9.15405V9.16987L12.8094 9.17145V9.18569L12.8189 9.18885V9.20309L12.8252 9.20467V9.22049H12.8363L12.86 9.27111L13.0103 9.53212V9.54636L13.0182 9.54952L13.0356 9.57483L13.0609 9.59381V9.60963L13.0767 9.62071V9.63653L13.102 9.65393L13.1099 9.68715L13.1337 9.70613L13.1416 9.72511V9.72827L13.1511 9.73777V9.752L13.1447 9.76782L13.1352 9.76624L12.9138 10.3958L12.898 10.3911L12.8647 10.4623L12.8505 10.4591L12.8094 10.5429L12.7129 10.7438L12.6986 10.747L12.6907 10.8214L12.6812 10.8198L12.6575 10.9226L12.6417 10.9194L12.6338 10.9859L12.6196 10.9827L12.6101 11.0333L12.5942 11.0302L12.5863 11.0745L12.5705 11.0713L12.5151 11.1963L12.4993 11.1931L12.4898 11.2374L12.474 11.2342L12.4566 11.2833L12.444 11.3038L12.4076 11.3418L12.3933 11.3624L12.3142 11.519L12.2921 11.6139L12.2731 11.6202V11.6487L12.2684 11.6471V11.6851L12.251 11.6882L12.2431 11.7483L12.2272 11.7531L12.2178 11.8116L12.2035 11.8164L12.1956 11.8686L12.1798 11.8638L12.1719 11.9097L12.1545 11.9128V11.9287L12.1466 11.9255L12.1371 11.9635L12.1228 11.9682L12.1244 11.9904L12.1086 11.9935V12.0173L12.0754 12.071L12.058 12.0679L12.0263 12.1375L12.0089 12.1343L11.9789 12.1976L11.8492 12.3922L11.8096 12.4744L11.8112 12.5124L11.8065 12.5108V12.5092L11.8001 12.5076L11.7764 12.4459L11.7669 12.4444Z" fill="#009194"/>
<path d="M18.3697 15.7299L18.3744 15.7378L18.3618 15.7346L18.3586 15.7252L18.3697 15.7236V15.7299Z" fill="#81BB45"/>
<path d="M19.9357 13.3381L19.9436 13.3397V13.3571L19.9136 13.3191L19.9357 13.3381Z" fill="#81BB45"/>
<path d="M18.3254 15.6903L18.319 15.6587L18.2937 15.6397L18.2858 15.6001L18.2779 15.5986L18.2431 15.5464L18.1371 15.4736V15.4578L18.1118 15.4467L18.1039 15.4293L18.0849 15.4277L18.0612 15.3929L18.0438 15.3898L18.0042 15.3423L17.9853 15.317L17.971 15.3138L17.9441 15.2711L17.9283 15.2695L17.8872 15.2094L17.8777 15.2063V15.1904L17.8271 15.1446V15.1303L17.8128 15.1177V15.1019L17.7954 15.0924V15.0781L17.7622 15.0623L17.7021 14.9326L17.6879 14.9279L17.6167 14.7728L17.6009 14.7602V14.7459L17.593 14.7444L17.5851 14.6969L17.5756 14.6953V14.6732L17.5677 14.6716V14.6494L17.5597 14.6479V14.6257L17.5518 14.6241L17.5502 14.5925H17.5439L17.5328 14.5435L17.5249 14.5419V14.5276L17.517 14.5245V14.496L17.5091 14.4944L17.5075 14.4485L17.4996 14.447L17.498 14.4074H17.4917L17.4901 14.3457L17.4822 14.3441L17.3604 13.9297L17.3525 13.8522L17.3446 13.8506V13.8348H17.3367L17.3351 13.781L17.3177 13.7683V13.6877L17.3003 13.6782L17.2971 13.4393L17.3146 13.4377V13.3507L17.3304 13.3555L17.3367 13.2827H17.3446V13.2526L17.3525 13.2542V13.2147L17.3683 13.2115V13.1815L17.3857 13.1783L17.3936 13.1261L17.411 13.1293L17.4316 13.0486L17.449 13.0517V13.0296L17.4648 13.0328L17.5313 12.9315L17.5471 12.9347L17.5724 12.8856L17.5882 12.8888V12.873L17.604 12.8746L17.6452 12.8224L17.6594 12.8255V12.8097L17.6879 12.816L17.7116 12.7971L17.7084 12.7828L17.7258 12.786V12.7702L17.7417 12.7733L17.7591 12.7544L17.7733 12.7559L17.7828 12.7433L17.8065 12.7385V12.7243L17.8476 12.7022L17.922 12.6927V12.6784L18.0042 12.6721V12.6547L18.077 12.6452L18.1039 12.6515V12.6436L18.1197 12.6452V12.6373L18.1498 12.6436L18.1609 12.631L18.2494 12.6405L18.2558 12.6262L18.3317 12.6405L18.3412 12.6262L18.4709 12.6515L18.4899 12.6452L18.7098 12.6958V12.7116L18.8933 12.767V12.7828L18.9344 12.7892V12.805L19.0689 12.8461L19.3916 13.0201L19.4469 13.0517V13.0597L19.4801 13.066L19.4881 13.0802L19.5213 13.0881V13.096L19.545 13.1008V13.1071L19.5719 13.1119V13.1213L19.6051 13.1261V13.134L19.7206 13.1846V13.2004L19.8835 13.2922V13.3064L19.9136 13.3191L19.9436 13.357V13.3618L19.961 13.3665L19.9689 13.4061H19.9784V13.4377L19.9848 13.4393V13.452L19.9958 13.4551V13.4789H20.0037V13.5121H20.0117V13.5263L20.0196 13.5279V13.5659L20.037 13.5753L20.0385 13.6307L20.0544 13.6418V13.7114L20.0702 13.7177L20.0718 13.8474L20.0907 13.9518L20.0828 13.9471V13.9787L20.0749 13.9771V14.1084L20.0591 14.1116V14.1796L20.0449 14.1828V14.2366L20.0275 14.2413V14.2809L20.0196 14.2793V14.2935L20.0117 14.2919V14.322L20.0053 14.3204V14.3362L19.9974 14.3346L19.9879 14.3868L19.98 14.3837L19.9737 14.4201L19.9563 14.4185V14.4485L19.9405 14.4454V14.4754L19.9231 14.4723L19.9088 14.5229L19.8914 14.5197L19.8772 14.5609L19.8519 14.5719V14.5957L19.8187 14.6352L19.8013 14.632L19.8028 14.6463L19.787 14.6447V14.6605L19.7728 14.6558L19.7127 14.7285L19.6969 14.727V14.7412L19.6225 14.7728V14.7871L19.5735 14.8013V14.8171L19.4359 14.9199L19.4184 14.9168L19.42 14.9405L19.4042 14.9437V14.9595L19.3773 14.9706V14.9832L19.352 14.9959V15.0101L19.322 15.0275L19.3061 15.0465V15.0623L19.2903 15.0591L19.2571 15.0908L19.2492 15.0892V15.105L19.2239 15.1145L19.216 15.1287L19.2001 15.1256L18.9391 15.3186L18.9312 15.317L18.9233 15.3391L18.9075 15.3439V15.3581L18.8917 15.3629V15.3787L18.8743 15.3834V15.3977L18.849 15.4087V15.4261L18.8252 15.4341L18.8173 15.4562L18.7841 15.4736L18.7351 15.51L18.7367 15.5242L18.7098 15.529L18.6623 15.5733L18.6465 15.5685L18.637 15.5827L18.6212 15.578L18.599 15.6049L18.5721 15.6081L18.5627 15.6223L18.55 15.6191L18.5389 15.6318L18.5247 15.6302L18.5168 15.6429L18.501 15.6397V15.6476L18.4772 15.6508L18.4677 15.665L18.4503 15.6618L18.4345 15.6808L18.4187 15.6777L18.3744 15.722L18.3776 15.7378H18.3744L18.3697 15.7299V15.7235L18.3586 15.7251L18.3364 15.6919L18.3254 15.6903Z" fill="#59B35A"/>
<path d="M13.3599 14.7887L13.3567 14.7855H13.3614L13.3646 14.7887H13.3599Z" fill="#81BB45"/>
<path d="M13.537 14.7586L13.5703 14.757V14.7491L13.5861 14.7444L13.5845 14.7302L13.6019 14.7238V14.7175L13.6193 14.7207L13.6161 14.7128L13.6351 14.7175L13.6525 14.6954L13.6683 14.6985V14.6843L13.6841 14.6874L13.7158 14.67L13.7316 14.6511L13.7664 14.6495L13.7743 14.6368L13.7917 14.6384L13.806 14.6178H13.8392L13.8471 14.6036L13.9214 14.5941L13.9372 14.5751L14.0116 14.5656L14.0353 14.5482L14.1318 14.4597L14.1571 14.4423L14.3042 14.3553L14.3311 14.36V14.3458L14.4434 14.292L14.5415 14.2414L14.5747 14.2398L14.5842 14.2255L14.6001 14.2303L14.5985 14.2208L14.6222 14.2255V14.2176L14.6728 14.2113V14.2034L14.706 14.2097V14.2034L14.7234 14.2066V14.1986L14.7393 14.2018L14.7456 14.1876L14.7725 14.1907L14.7788 14.1797L14.8041 14.1749V14.167L14.8104 14.1702L14.8358 14.1512V14.1354L14.8595 14.1322L14.869 14.1116L14.8927 14.1085L14.918 14.0832L14.9338 14.0847L14.9813 14.0436H14.9987L15.0082 14.0325L15.024 14.0341L15.0398 14.0136L15.0572 14.0167V14.0104L15.073 14.0136V14.0057L15.0968 13.9883L15.179 13.9661L15.3103 13.8759L15.3435 13.8585V13.8443L15.3594 13.838V13.8237L15.3831 13.8127V13.8048L15.3973 13.8095V13.8L15.4084 13.8032L15.4321 13.7842L15.44 13.7636L15.4543 13.7652L15.4669 13.7526L15.4717 13.7541V13.7383L15.4827 13.7399L15.4954 13.7193L15.5144 13.7241V13.7162L15.5286 13.7178V13.7114L15.5539 13.7004L15.5555 13.6924H15.5618V13.694V13.7114L15.5966 13.732V13.7462L15.6615 13.7968V13.8127L15.6789 13.8142V13.8301L15.6963 13.8348V13.8475L15.7121 13.8522L15.7137 13.8665L15.7295 13.8712L15.7691 13.9376L15.7865 13.9408L15.8054 13.9803L15.8228 13.9867V13.9993L15.8371 14.0025L15.8956 14.0958L16.0143 14.2255V14.2414L16.0459 14.254V14.2682L16.087 14.292V14.3062L16.1028 14.3094V14.3252L16.1202 14.3284L16.1218 14.3442L16.163 14.3885L16.1804 14.3916V14.4075L16.1962 14.4106V14.4249L16.212 14.428L16.2705 14.5229L16.2879 14.5245V14.5419L16.3037 14.5435V14.5656L16.3196 14.5704L16.5363 14.814V14.8298L16.5537 14.833L16.579 14.8741L16.5948 14.8773L16.5964 14.8947L16.6122 14.8978L16.6375 14.939L16.6533 14.9405V14.9579L16.6692 14.9595L16.696 15.0181L16.7134 15.0212V15.0386L16.7293 15.0402L16.7546 15.0956L16.7704 15.1003V15.1225L16.7862 15.1256L16.7957 15.1494L16.8036 15.1509L16.8131 15.1905L16.8289 15.2016V15.2174L16.8463 15.2284V15.2506L16.8637 15.2601L16.8716 15.3091L16.889 15.317V15.3503H16.8954L16.9049 15.3898L16.9223 15.393L16.9317 15.4705L16.9397 15.4736V15.4879H16.9476V15.5337L16.965 15.5448L17.0077 15.6904L17.0251 15.6919L17.0409 15.7568L17.0567 15.7584L17.0678 15.8137L17.0836 15.8169L17.0931 15.8944L17.1089 15.8992L17.1358 16.1665H17.1279L17.1311 16.2867L17.1216 16.2851V16.3389L17.1137 16.3373V16.3832L17.0994 16.3864L17.0931 16.4465L17.0757 16.4433L17.0361 16.5636L17.0172 16.5604L16.9555 16.6727L16.9381 16.6759L16.9286 16.6743L16.9302 16.6964L16.9128 16.6948V16.7028L16.8811 16.7202L16.8558 16.736L16.859 16.7597L16.7989 16.7771V16.7913L16.7957 16.7898L16.7925 16.7929H16.791L16.7767 16.8008H16.7704L16.7562 16.8119L16.7403 16.8103V16.8167L16.7229 16.8135V16.8214L16.7071 16.8182L16.6992 16.8325L16.6502 16.8388L16.6407 16.8515L16.6264 16.8483L16.6185 16.8625L16.5758 16.8863L16.5537 16.8847V16.9005L16.4066 16.91V16.9242L16.2484 16.9116V16.9195L16.2326 16.9163V16.9226L16.1266 16.9052L15.8308 16.8182V16.8024L15.7643 16.785L15.7564 16.7676L15.7374 16.7645V16.755L15.6963 16.7486V16.7391L15.671 16.736V16.7281L15.5903 16.7154L15.5824 16.698L15.4907 16.6806L15.4827 16.6648L15.4242 16.6521V16.6458L15.3926 16.6395V16.6316L15.3688 16.6268V16.6189L15.3246 16.6126L15.3166 16.5952L15.2755 16.5857V16.573L15.2423 16.5651L15.2344 16.5493L15.1774 16.5319V16.5161L15.1426 16.5098V16.4939L15.1094 16.4813V16.475L15.0841 16.4671V16.4607L15.0446 16.4386V16.4228L15.0177 16.418V16.4038L14.8864 16.2867L14.8706 16.2851V16.2693L14.8278 16.2234L14.8104 16.2219V16.206L14.7962 16.2029V16.1886L14.6364 16.0605L14.6032 16.0368L14.5969 16.0225L14.5795 16.0178V16.0115L14.5621 16.0083V16.002L14.5289 15.9735L14.4197 15.8992V15.8849L14.4055 15.8818V15.8644L14.3802 15.8612V15.8454L14.3612 15.8422V15.828L14.2726 15.7283L14.2552 15.7252V15.7093L14.0954 15.5448V15.529L14.0654 15.5227V15.5084L14.0385 15.4942V15.4879L14.0227 15.4847L14.0132 15.4689L13.9895 15.4626L13.98 15.4467L13.923 15.4135V15.3977L13.9072 15.3945V15.3787L13.8645 15.3566V15.3423L13.8487 15.3376L13.8471 15.3218L13.7806 15.2727V15.2569L13.7632 15.2553L13.7237 15.1873L13.7063 15.1826V15.1683L13.6905 15.1652L13.6715 15.124L13.6557 15.1209V15.1066L13.6399 15.1019V15.0813L13.624 15.0687V15.0544L13.6161 15.0529L13.5987 15.0117L13.5797 15.0086V14.9864L13.5639 14.9817L13.5386 14.9564L13.5307 14.939V14.9326L13.507 14.9263V14.9105L13.439 14.8694V14.8551L13.3741 14.8108V14.7966L13.3599 14.7887H13.3646L13.3614 14.7855L13.5291 14.7697L13.537 14.7586Z" fill="#5CA038"/>
</g>
<defs>
<clipPath id="clip0_397_6779">
<rect width="22.9167" height="14.2369" fill="white" transform="translate(1.54166 5.78778)"/>
</clipPath>
</defs>
</svg>
