<svg width="26" height="26" viewBox="0 0 26 26" fill="none" xmlns="http://www.w3.org/2000/svg">
<g clip-path="url(#clip0_397_6636)">
<path d="M8.53064 17.4428L8.48668 17.4836C8.20637 17.7969 7.86537 18.0499 7.48434 18.2275C7.10332 18.4051 6.69021 18.5034 6.27006 18.5166C4.62486 18.5166 3.42862 17.2795 3.42862 15.5747C3.42862 13.8698 4.62486 12.6359 6.27006 12.6359C6.69021 12.6491 7.10332 12.7474 7.48434 12.925C7.86537 13.1026 8.20637 13.3556 8.48668 13.6689L8.53064 13.7128L9.58872 12.4287L9.56046 12.3973C9.17671 11.9073 8.68486 11.5126 8.12333 11.244C7.5618 10.9755 6.94579 10.8405 6.32343 10.8494C5.08959 10.8225 3.89101 11.262 2.96709 12.0802C2.05369 13.0147 1.54228 14.2695 1.54228 15.5763C1.54228 16.883 2.05369 18.1378 2.96709 19.0723C3.8902 19.8919 5.08933 20.3316 6.32343 20.3031C6.94545 20.3119 7.56114 20.1771 8.12257 19.9092C8.68401 19.6413 9.17606 19.2475 9.56046 18.7583L9.58872 18.7238L8.53064 17.4428Z" fill="#004785"/>
<path d="M12.5306 10.9879H10.6593V20.1213H12.5306V10.9879Z" fill="#004785"/>
<path d="M19.8587 18.1306C19.4492 18.4078 18.9711 18.5665 18.4772 18.589C17.8712 18.589 17.6012 18.275 17.6012 17.5591V12.7146H19.507V10.994H17.6012V8.15259L15.7645 9.13219V10.994H14.1946V12.7146H15.7645V17.87C15.7645 19.2734 16.5965 20.231 17.8398 20.2561C18.4228 20.2865 19.0014 20.141 19.5007 19.8386H19.5196L19.9842 18.0709L19.8587 18.1306Z" fill="#004785"/>
<path d="M23.2778 10.9879H21.4066V20.1213H23.2778V10.9879Z" fill="#004785"/>
<path d="M24.3798 9.38371C23.5423 8.18986 22.4295 7.2153 21.1357 6.5425C19.8418 5.86969 18.4049 5.51843 16.9466 5.51843C15.4883 5.51843 14.0514 5.86969 12.7575 6.5425C11.4637 7.2153 10.3509 8.18986 9.51336 9.38371L9.42545 9.50614H11.5761L11.6013 9.48104C12.2874 8.75143 13.1156 8.16998 14.0348 7.77254C14.9541 7.3751 15.9451 7.17007 16.9466 7.17007C17.9481 7.17007 18.9391 7.3751 19.8583 7.77254C20.7776 8.16998 21.6058 8.75143 22.2919 9.48104L22.3171 9.50614H24.4677L24.3798 9.38371Z" fill="#ED1C2E"/>
</g>
<defs>
<clipPath id="clip0_397_6636">
<rect width="22.9167" height="14.7754" fill="white" transform="translate(1.54167 5.51849)"/>
</clipPath>
</defs>
</svg>
