<svg width="26" height="26" viewBox="0 0 26 26" fill="none" xmlns="http://www.w3.org/2000/svg">
<g clip-path="url(#clip0_397_6766)">
<path fill-rule="evenodd" clip-rule="evenodd" d="M11.8661 6.33497H5.87585V11.8691H9.54605V13.7135H5.87585V19.2467H11.8661V17.4033H7.71893V15.5599H11.4041V10.0227H7.71893V8.18035H11.8661V6.33497ZM0.304688 12.7993C0.304688 6.16929 5.67328 0.799805 12.3042 0.799805C18.9351 0.799805 24.3047 6.16929 24.3047 12.7993C24.3047 19.4293 18.9321 24.7998 12.3042 24.7998C5.67627 24.7998 0.304688 19.4283 0.304688 12.7993ZM2.16274 12.7993C2.16274 7.20127 6.70309 2.65617 12.3042 2.65617C17.9053 2.65617 22.4436 7.20127 22.4436 12.7993C22.4436 18.3973 17.9023 22.9414 12.3042 22.9414C6.70608 22.9414 2.16274 18.3993 2.16274 12.7993ZM12.7941 19.2497H18.7744V13.7195H15.0973V11.8761H18.7744V6.33696H12.7941V8.18135H16.9294V10.0297H13.2442V15.5619H16.9294V17.4053H12.7941V19.2497Z" fill="#B2292E"/>
</g>
<defs>
<clipPath id="clip0_397_6766">
<rect width="25" height="25" fill="white" transform="translate(0.5 0.40625)"/>
</clipPath>
</defs>
</svg>
