<svg width="26" height="26" viewBox="0 0 26 26" fill="none" xmlns="http://www.w3.org/2000/svg">
<path d="M24.0624 13.1269L23.8658 12.9911C23.4813 12.613 23.0248 12.3308 22.5285 12.1644C22.0321 11.998 21.5081 11.9516 20.9933 12.0283C20.0972 12.1083 19.2338 12.4291 18.4813 12.9615V12.9143C18.4884 12.5429 18.5139 12.1722 18.5578 11.8038C18.5906 11.4199 18.6288 11.036 18.6288 10.6698C18.6404 10.3191 18.5865 9.96959 18.4704 9.64199C18.4565 9.60323 18.4315 9.5703 18.3991 9.54798C18.3667 9.52567 18.3285 9.51514 18.2902 9.51795C17.8804 9.55963 17.4847 9.70099 17.1325 9.93143L17.0451 10.1323C17.0436 10.6944 16.9869 11.2547 16.8758 11.8038C16.8637 11.8519 16.8492 11.8993 16.8321 11.9456C16.6957 13.3593 16.6957 14.7846 16.8321 16.1984C16.8321 16.3165 17.067 16.4996 17.2308 16.5705C17.606 16.5805 17.9787 16.5019 18.323 16.3402H18.4486C18.4736 16.3366 18.4977 16.3276 18.5194 16.3136C18.5411 16.2996 18.56 16.281 18.5748 16.2589C18.5896 16.2368 18.6001 16.2116 18.6056 16.185C18.6112 16.1583 18.6116 16.1307 18.6069 16.1039V15.7554C18.7564 15.1491 19.0536 14.5973 19.4677 14.1578C19.8817 13.7183 20.3973 13.4071 20.9606 13.2569C21.2421 13.1909 21.5347 13.2065 21.8089 13.3019C22.0831 13.3973 22.3292 13.5692 22.5224 13.8003C22.6474 14.3875 22.5553 15.0043 22.2657 15.5191C21.8578 16.2415 21.2244 16.782 20.48 17.043C19.6053 17.3802 18.6762 17.5208 17.7496 17.4565C17.7004 17.427 16.7393 16.7241 16.7393 16.7241C15.8509 15.9902 14.887 15.3698 13.8669 14.8753C13.6324 14.7338 13.4128 14.5655 13.2116 14.3732L13.1187 14.2846C12.5727 13.8003 11.5078 13.0442 10.6613 12.4359L10.2081 12.0992V11.9988C10.2081 11.9692 10.7542 11.6266 10.7542 11.6266C11.1695 11.4048 11.5582 11.1291 11.9119 10.8056L12.0156 10.7406L13.8614 9.60655C15.6308 8.55516 17.6404 7.36202 18.6943 6.18069L18.7435 5.99758V5.83809C18.806 5.62075 18.806 5.38799 18.7435 5.17065C18.7365 5.13271 18.7194 5.09783 18.6941 5.07048C18.6688 5.04314 18.6366 5.02455 18.6015 5.01707C17.7769 4.92847 16.7175 5.46007 15.7509 6.44058C15.5721 6.61859 15.3719 6.76958 15.1557 6.88948L15.0082 6.97218C13.916 7.62782 11.5405 9.24035 10.2845 10.1145C10.4033 8.3425 10.6166 6.57937 10.9235 4.83397L10.8907 4.62723L10.7596 4.36733L10.6613 4.17832C10.4723 4.07857 10.2544 4.06372 10.0552 4.13698L9.80399 4.23739L9.47087 4.36733C9.43913 4.37464 9.40955 4.39032 9.38478 4.41299C9.36 4.43567 9.3408 4.46463 9.32889 4.49728C8.64863 6.49438 8.23848 8.58723 8.11111 10.7111C7.19043 10.0862 6.23882 9.51639 5.26053 9.00408H5.195C4.95584 8.93958 4.72991 8.8274 4.52877 8.6733L4.07552 8.35434L3.37653 7.86999L3.19086 7.82274C2.78363 7.962 2.42172 8.22433 2.14783 8.57879C2.12698 8.61629 2.11568 8.65908 2.11506 8.70283C2.12018 8.76298 2.13116 8.82239 2.14783 8.88004L2.18059 9.0336L2.21336 9.12811C2.83269 9.68991 3.51304 10.1679 4.23935 10.5516L5.195 11.1009L6.66398 11.9633L6.91518 12.1819L7.08447 12.2882H7.11723C6.72405 12.5658 4.45232 14.2138 4.45232 14.2138L3.02157 15.277C2.75935 15.4324 2.48956 15.5724 2.21336 15.6963C1.94774 15.7969 1.72343 15.9956 1.57989 16.2575L1.54167 16.3461L1.57989 16.4051L1.68911 16.4937L1.83109 16.5942L1.98946 16.7064L2.13144 16.7359C2.58603 16.6692 3.02502 16.5109 3.42568 16.2693C4.05368 15.968 5.75747 14.8576 6.48923 14.385L6.8005 14.1783C6.94863 14.1567 7.08643 14.0842 7.19369 13.9716C7.39971 13.8069 7.61903 13.6625 7.84899 13.5404C7.84899 13.5404 7.96913 13.4695 8.07289 13.4104V13.505C8.06014 15.3531 8.19535 17.1989 8.47699 19.0218V19.0809C8.6457 19.4857 8.77208 19.9097 8.85379 20.3449L9.12684 21.349L9.20875 21.4435C9.49881 21.6315 9.8318 21.7277 10.1699 21.7211H10.2518L10.3009 21.5971C10.3279 21.4453 10.3407 21.291 10.3392 21.1364C10.3392 20.9533 10.3392 20.7524 10.3392 20.5044V20.1441C10.2354 18.4606 10.1371 16.0094 10.1371 14.4146V14.2846L11.5569 15.2533C13.5229 16.6296 16.4717 18.7206 18.2902 19.2699C18.3354 19.2844 18.3832 19.2861 18.4292 19.2747C18.4751 19.2633 18.5175 19.2393 18.5523 19.2049L18.8308 19.0159H18.88C18.9414 18.9621 18.9902 18.8934 19.0224 18.8154C19.0547 18.7374 19.0695 18.6523 19.0656 18.567C20.5783 18.4902 22.6917 17.8582 23.8221 16.3224C24.2259 15.7658 24.4485 15.0807 24.4555 14.3732C24.4797 13.942 24.3463 13.5178 24.0842 13.1919" fill="#FCAF17"/>
</svg>
