<svg width="26" height="26" viewBox="0 0 26 26" fill="none" xmlns="http://www.w3.org/2000/svg">
<g clip-path="url(#clip0_397_6531)">
<path d="M17.0598 2.61426L13 4.65604L8.94015 2.61426L13 10.3303L17.0598 2.61426Z" fill="#FFB71B"/>
<path d="M18.5084 8.55157L21.4049 7.34072V3.25714L16.3717 5.41764L13.5701 10.6883C14.6479 10.8126 15.6373 11.3443 16.3357 12.1746C17.034 13.0048 17.3884 14.0707 17.3262 15.1539C17.264 16.237 16.7899 17.2553 16.001 18.0001C15.2122 18.745 14.1684 19.1599 13.0835 19.1599C11.9985 19.1599 10.9547 18.745 10.1659 18.0001C9.37704 17.2553 8.90292 16.237 8.8407 15.1539C8.77847 14.0707 9.13279 13.0048 9.83114 12.1746C10.5295 11.3443 11.5189 10.8126 12.5967 10.6883L9.7952 5.41764L4.78574 3.25714V7.34072L7.72969 8.55157C6.45288 9.66762 5.547 11.1466 5.13294 12.7911C4.71888 14.4356 4.81634 16.1673 5.41239 17.7549C6.00845 19.3425 7.07469 20.7105 8.46872 21.6762C9.86274 22.6418 11.5182 23.1592 13.214 23.1592C14.9098 23.1592 16.5653 22.6418 17.9593 21.6762C19.3533 20.7105 20.4196 19.3425 21.0156 17.7549C21.6117 16.1673 21.7092 14.4356 21.2952 12.7911C20.8811 11.1466 19.9751 9.66762 18.6983 8.55157H18.5084Z" fill="#FFB71B"/>
</g>
<defs>
<clipPath id="clip0_397_6531">
<rect width="16.6667" height="20.584" fill="white" transform="translate(4.66667 2.61426)"/>
</clipPath>
</defs>
</svg>
