<svg width="26" height="26" viewBox="0 0 26 26" fill="none" xmlns="http://www.w3.org/2000/svg">
<g clip-path="url(#clip0_397_6548)">
<path d="M23.8403 12.9037C23.8413 15.057 23.2036 17.1622 22.0079 18.9531C20.8122 20.7439 19.1122 22.1398 17.123 22.9643C15.1338 23.7888 12.9448 24.0048 10.8328 23.585C8.72082 23.1651 6.7808 22.1283 5.25819 20.6057C3.73557 19.0831 2.69876 17.1431 2.27891 15.0311C1.85907 12.9191 2.07505 10.73 2.89954 8.74084C3.72403 6.75164 5.11997 5.05165 6.91079 3.85595C8.70161 2.66026 10.8068 2.02257 12.9601 2.02356C15.8453 2.02488 18.612 3.17161 20.6521 5.21175C22.6923 7.25189 23.839 10.0185 23.8403 12.9037Z" fill="white"/>
<path d="M12.9601 23.2696C15.0102 23.2696 17.0144 22.6616 18.719 21.5226C20.4237 20.3836 21.7523 18.7647 22.5369 16.8706C23.3214 14.9764 23.5267 12.8922 23.1267 10.8814C22.7268 8.87065 21.7395 7.02363 20.2898 5.57394C18.8401 4.12424 16.9931 3.13699 14.9823 2.73702C12.9716 2.33705 10.8873 2.54233 8.9932 3.3269C7.09909 4.11147 5.48017 5.44009 4.34116 7.14475C3.20214 8.84941 2.59418 10.8535 2.59418 12.9037C2.59418 15.6529 3.6863 18.2895 5.63028 20.2335C7.57425 22.1775 10.2109 23.2696 12.9601 23.2696Z" fill="#0083CA"/>
<mask id="mask0_397_6548" style="mask-type:alpha" maskUnits="userSpaceOnUse" x="2" y="2" width="22" height="22">
<path d="M12.9601 23.2696C15.0102 23.2696 17.0144 22.6617 18.719 21.5227C20.4237 20.3837 21.7523 18.7647 22.5369 16.8706C23.3214 14.9765 23.5267 12.8923 23.1268 10.8815C22.7268 8.87071 21.7395 7.02369 20.2898 5.574C18.8401 4.12431 16.9931 3.13705 14.9823 2.73708C12.9716 2.33712 10.8873 2.5424 8.99321 3.32696C7.09909 4.11153 5.48018 5.44015 4.34117 7.14481C3.20215 8.84947 2.59419 10.8536 2.59419 12.9038C2.59419 15.653 3.68631 18.2896 5.63029 20.2335C7.57426 22.1775 10.2109 23.2696 12.9601 23.2696Z" fill="#0083CA"/>
</mask>
<g mask="url(#mask0_397_6548)">
<path d="M12.995 17.9119C17.5488 17.9119 21.4535 19.1802 23.1262 20.9777C23.7047 19.6552 24.0022 18.227 24 16.7834C24 13.8661 22.8411 11.0682 20.7782 9.00527C18.7153 6.94237 15.9174 5.78345 13 5.78345C10.0826 5.78345 7.28472 6.94237 5.22182 9.00527C3.15892 11.0682 1.99998 13.8661 1.99998 16.7834C1.99791 18.2264 2.29369 19.6543 2.86881 20.9777C4.53654 19.1802 8.43622 17.9119 12.995 17.9119Z" fill="#0083CA"/>
<path d="M12.995 17.9224C17.5388 17.9224 21.4335 19.1806 23.1012 20.9682C23.6757 19.6551 23.9716 18.2371 23.97 16.8039C23.97 10.9069 19.0517 6.11346 12.985 6.11346C6.91828 6.11346 1.99998 10.9069 1.99998 16.8039C1.998 18.2372 2.29387 19.6553 2.86881 20.9682C4.55651 19.1806 8.43622 17.9224 12.995 17.9224Z" fill="#0085CB"/>
<path d="M12.995 17.9319C17.5238 17.9319 21.4085 19.1852 23.0713 20.9528C23.6451 19.6518 23.941 18.2453 23.9401 16.8234C23.9401 10.9714 19.0318 6.20288 12.995 6.20288C6.95823 6.20288 2.04992 10.9764 2.04992 16.8234C2.04782 18.2454 2.3438 19.6521 2.91874 20.9528C4.57648 19.1852 8.46118 17.9319 12.995 17.9319Z" fill="#0086CC"/>
<path d="M12.99 17.9468C17.5088 17.9468 21.3886 19.1851 23.0463 20.9428C23.6174 19.6602 23.9134 18.2722 23.9151 16.8683C23.9151 11.0662 19.0218 6.31769 12.995 6.31769C6.96822 6.31769 2.08488 11.0662 2.08488 16.8683C2.08164 18.2787 2.37599 19.6739 2.9487 20.9627C4.59646 19.1851 8.47117 17.9468 12.99 17.9468Z" fill="#0088CC"/>
<path d="M12.99 17.9568C17.4839 17.9568 21.3636 19.1852 23.0163 20.9278C23.588 19.6509 23.8824 18.2673 23.8801 16.8683C23.8801 11.1112 19.0018 6.38263 12.99 6.38263C6.9782 6.38263 2.10485 11.1062 2.10485 16.8683C2.10286 18.2668 2.39549 19.65 2.96368 20.9278C4.61643 19.1852 8.48115 17.9568 12.99 17.9568Z" fill="#0089CD"/>
<path d="M12.99 17.9668C17.4839 17.9668 21.3386 19.1852 22.9764 20.9128C23.5439 19.6471 23.8366 18.2754 23.8352 16.8883C23.8352 11.1761 18.9669 6.47748 12.975 6.47748C6.9832 6.47748 2.11984 11.1811 2.11984 16.8883C2.11865 18.2749 2.40957 19.6461 2.97367 20.9128C4.6364 19.1852 8.49614 17.9668 12.99 17.9668Z" fill="#008BCE"/>
<path d="M12.99 17.9818C17.4839 17.9818 21.3186 19.1852 22.9764 20.9028C23.5433 19.6475 23.8361 18.2857 23.8352 16.9083C23.8352 11.246 18.9818 6.57239 13.005 6.57239C7.02813 6.57239 2.17475 11.246 2.17475 16.9083C2.17417 18.2852 2.46518 19.6465 3.0286 20.9028C4.65638 19.1852 8.50612 17.9818 12.99 17.9818Z" fill="#008DCF"/>
<path d="M12.985 17.9918C17.4789 17.9918 21.2937 19.1902 22.9365 20.8878C23.4994 19.6437 23.7905 18.2938 23.7903 16.9282C23.7903 11.3159 18.9519 6.66223 12.985 6.66223C7.01815 6.66223 2.18475 11.3159 2.18475 16.9282C2.1841 18.2938 2.4752 19.6438 3.03858 20.8878C4.67635 19.1902 8.5161 17.9918 12.985 17.9918Z" fill="#008ED0"/>
<path d="M12.985 18.0018C17.4439 18.0018 21.2737 19.1902 22.9065 20.8729C23.4721 19.642 23.7635 18.3029 23.7603 16.9482C23.7603 11.3808 18.9319 6.75714 12.985 6.75714C7.03812 6.75714 2.21471 11.3858 2.21471 16.9482C2.21191 18.3023 2.50144 19.641 3.06354 20.8729C4.69632 19.1902 8.52609 18.0018 12.985 18.0018Z" fill="#0090D0"/>
<path d="M12.985 18.0168C17.4289 18.0168 21.2487 19.1902 22.8815 20.8629C23.4426 19.6412 23.7322 18.3125 23.7304 16.9682C23.7304 11.4757 18.9169 6.84698 12.985 6.84698C7.0531 6.84698 2.23967 11.4507 2.23967 16.9682C2.23976 18.3123 2.52927 19.6406 3.08851 20.8629C4.72129 19.1902 8.53608 18.0168 12.985 18.0168Z" fill="#0092D1"/>
<path d="M12.985 18.0268C17.419 18.0268 21.2238 19.1902 22.8566 20.8479C23.4146 19.6376 23.7042 18.3209 23.7054 16.9882C23.7054 11.4957 18.9019 6.93689 12.985 6.93689C7.06808 6.93689 2.26464 11.5206 2.26464 16.9882C2.26473 18.3211 2.55435 19.638 3.11347 20.8479C4.74125 19.1902 8.54606 18.0268 12.985 18.0268Z" fill="#0093D2"/>
<path d="M12.98 18.0367C17.404 18.0367 21.2038 19.1951 22.8266 20.8329C23.385 19.6351 23.6748 18.3297 23.6754 17.0081C23.6754 11.5855 18.882 7.02173 12.98 7.02173C7.07808 7.02173 2.29461 11.5805 2.29461 17.0081C2.29308 18.3294 2.58112 19.6349 3.13846 20.8329C4.76125 19.1951 8.55607 18.0367 12.98 18.0367Z" fill="#0095D3"/>
<path d="M12.98 18.0517C17.389 18.0517 21.1788 19.1952 22.8016 20.823C23.3579 19.6353 23.646 18.3397 23.6455 17.0281C23.6455 11.6555 18.867 7.12164 12.98 7.12164C7.09306 7.12164 2.31957 11.6555 2.31957 17.0281C2.31803 18.3398 2.60618 19.6356 3.16342 20.823C4.78121 19.1952 8.56605 18.0517 12.98 18.0517Z" fill="#0097D4"/>
<path d="M12.98 18.0617C17.379 18.0617 21.1589 19.1952 22.7717 20.808C23.3272 19.6342 23.6154 18.3517 23.6155 17.0531C23.6155 11.7253 18.852 7.21649 12.98 7.21649C7.10803 7.21649 2.34452 11.7104 2.34452 17.0531C2.34409 18.3518 2.63233 19.6343 3.18837 20.808C4.80117 19.1952 8.57603 18.0617 12.98 18.0617Z" fill="#0098D5"/>
<path d="M12.975 18.0717C17.364 18.0717 21.1339 19.1952 22.7467 20.793C23.2982 19.6304 23.5847 18.3599 23.5856 17.0731C23.5856 11.7903 18.832 7.3064 12.975 7.3064C7.11801 7.3064 2.37448 11.8003 2.37448 17.0731C2.37417 18.36 2.66075 19.6308 3.21335 20.793C4.82115 19.1952 8.58601 18.0717 12.975 18.0717Z" fill="#009AD5"/>
<path d="M12.975 18.0817C17.3491 18.0817 21.1089 19.2002 22.7167 20.783C23.2676 19.6308 23.5541 18.3701 23.5556 17.093C23.5556 11.8602 18.8171 7.40125 12.975 7.40125C7.13299 7.40125 2.39945 11.8602 2.39945 17.093C2.39973 18.3703 2.68638 19.6312 3.2383 20.783C4.84112 19.2002 8.596 18.0817 12.975 18.0817Z" fill="#009CD6"/>
<path d="M12.975 18.0966C17.3391 18.0966 21.089 19.2001 22.6918 20.768C23.2387 19.627 23.5236 18.3782 23.5256 17.113C23.5256 11.93 18.7971 7.49109 12.975 7.49109C7.15297 7.49109 2.44439 11.93 2.44439 17.113C2.4453 18.3789 2.73205 19.6283 3.28324 20.768C4.86109 19.2001 8.60599 18.0966 12.975 18.0966Z" fill="#009ED7"/>
<path d="M12.975 18.1066C17.3241 18.1066 21.064 19.2002 22.6618 20.753C23.2108 19.6252 23.4959 18.3873 23.4957 17.133C23.4957 11.995 18.7821 7.58099 12.975 7.58099C7.16795 7.58099 2.44439 11.995 2.44439 17.133C2.44295 18.3874 2.72817 19.6256 3.27826 20.753C4.88108 19.2002 8.61598 18.1066 12.975 18.1066Z" fill="#00A0D8"/>
<path d="M12.97 18.1166C17.3091 18.1166 21.044 19.2002 22.6369 20.7431C23.1818 19.6247 23.4652 18.397 23.4657 17.153C23.4657 12.0649 18.7671 7.66589 12.98 7.66589C7.19292 7.66589 2.49432 12.0549 2.49432 17.153C2.4943 18.3971 2.77777 19.6249 3.3232 20.7431C4.90104 19.2002 8.62595 18.1166 12.97 18.1166Z" fill="#00A1D9"/>
<path d="M12.97 18.1316C17.2991 18.1316 21.0191 19.2051 22.6069 20.7281C23.1516 19.6221 23.4352 18.4058 23.4358 17.1729C23.4358 12.1348 18.7472 7.76575 12.9501 7.76575C7.15297 7.76575 2.46437 12.1348 2.46437 17.1729C2.46668 18.4056 2.75016 19.6215 3.29324 20.7281C4.94099 19.2051 8.64093 18.1316 12.97 18.1316Z" fill="#00A3DA"/>
<path d="M12.97 18.1416C17.2841 18.1416 20.9941 19.2051 22.5819 20.7131C23.1211 19.6264 23.4046 18.4309 23.4108 17.2178C23.4108 12.2246 18.7322 7.88556 12.97 7.88556C7.20789 7.88556 2.53426 12.2246 2.53426 17.2178C2.53869 18.4305 2.8205 19.6261 3.35814 20.7131C4.94098 19.2051 8.65092 18.1416 12.97 18.1416Z" fill="#00A5DB"/>
<path d="M12.97 18.1516C17.2692 18.1516 20.9591 19.2051 22.552 20.7031C23.0966 19.6184 23.3804 18.4216 23.3808 17.2079C23.3808 12.2646 18.7172 7.9455 12.97 7.9455C7.22287 7.9455 2.55924 12.2646 2.55924 17.2079C2.55917 18.4211 2.84123 19.6176 3.38311 20.7031C4.94099 19.2051 8.66091 18.1516 12.97 18.1516Z" fill="#00A7DC"/>
<path d="M12.965 18.1665C17.2592 18.1665 20.9541 19.2051 22.527 20.6881C23.0668 19.6179 23.3489 18.4364 23.3509 17.2378C23.3509 12.3395 18.6972 8.04535 12.965 8.04535C7.23286 8.04535 2.5892 12.3395 2.5892 17.2378C2.58943 18.436 2.86985 19.6176 3.40807 20.6881C4.98093 19.2051 8.6709 18.1665 12.965 18.1665Z" fill="#00A9DD"/>
<path d="M12.965 18.1766C17.2442 18.1766 20.9292 19.2102 22.497 20.6732C23.0368 19.6155 23.3191 18.4453 23.3209 17.2578C23.3209 12.4044 18.6822 8.13525 12.965 8.13525C7.24784 8.13525 2.61415 12.4044 2.61415 17.2578C2.61614 18.4447 2.89663 19.6145 3.43305 20.6732C5.00091 19.2102 8.68089 18.1766 12.965 18.1766Z" fill="#00ABDE"/>
<path d="M12.965 18.1865C17.2342 18.1865 20.9042 19.2101 22.4521 20.6831C22.9873 19.6347 23.2679 18.4749 23.271 17.2977C23.271 12.4943 18.6473 8.25006 12.9451 8.25006C7.24285 8.25006 2.61916 12.4943 2.61916 17.2977C2.62697 18.4685 2.90914 19.6211 3.44303 20.6631C5.02587 19.2101 8.69088 18.1865 12.965 18.1865Z" fill="#00ADDE"/>
<path d="M12.96 18.1965C17.2192 18.1965 20.8792 19.1952 22.4471 20.6482C22.9843 19.613 23.2652 18.464 23.266 17.2977C23.266 12.5442 18.6523 8.31 12.965 8.31C7.2778 8.31 2.67407 12.5342 2.67407 17.2977C2.67511 18.4634 2.95413 19.612 3.48796 20.6482C5.04584 19.2101 8.70086 18.1965 12.96 18.1965Z" fill="#00AFDF"/>
<path d="M12.96 18.2115C17.2043 18.2115 20.8593 19.2101 22.4172 20.6332C22.9503 19.6092 23.2295 18.4721 23.231 17.3177C23.231 12.6091 18.6323 8.40985 12.96 8.40985C7.28778 8.40985 2.69405 12.6091 2.69405 17.3177C2.69505 18.4722 2.97422 19.6095 3.50794 20.6332C5.06582 19.2101 8.71084 18.2115 12.96 18.2115Z" fill="#00B1E0"/>
<path d="M12.96 18.2215C17.1943 18.2215 20.8343 19.2202 22.3872 20.6232C22.9201 19.61 23.1994 18.4826 23.2011 17.3377C23.2011 12.6791 18.6173 8.50476 12.96 8.50476C7.30276 8.50476 2.71901 12.6791 2.71901 17.3377C2.72009 18.4827 2.9994 19.6102 3.5329 20.6232C5.08578 19.2152 8.72083 18.2215 12.96 18.2215Z" fill="#00B3E1"/>
<path d="M12.96 18.2315C17.1793 18.2315 20.8143 19.2301 22.3622 20.6082C22.8913 19.6063 23.1689 18.4907 23.1711 17.3577C23.1711 12.7439 18.5974 8.5946 12.96 8.5946C7.32274 8.5946 2.74897 12.7489 2.74897 17.3577C2.75118 18.4907 3.02879 19.6063 3.55788 20.6082C5.10577 19.2151 8.73081 18.2315 12.96 18.2315Z" fill="#0DB5E2"/>
<path d="M12.955 18.2464C17.1643 18.2464 20.7894 19.2151 22.3323 20.5932C22.8609 19.6037 23.1387 18.4995 23.1412 17.3776C23.1412 12.8138 18.5824 8.68945 12.955 8.68945C7.32772 8.68945 2.77394 12.8138 2.77394 17.3776C2.7764 18.4995 3.05415 19.6037 3.58284 20.5932C5.12573 19.2151 8.7408 18.2464 12.955 18.2464Z" fill="#19B7E3"/>
<path d="M12.955 18.2564C17.1543 18.2564 20.7644 19.2151 22.3073 20.5833C22.8347 19.6058 23.1125 18.5132 23.1162 17.4026C23.1162 12.9087 18.5674 8.77936 12.955 8.77936C7.3427 8.77936 2.7989 12.8838 2.7989 17.4026C2.80196 18.5133 3.07985 19.606 3.6078 20.5833C5.1457 19.2151 8.75078 18.2564 12.955 18.2564Z" fill="#21B9E4"/>
<path d="M12.9551 18.2664C17.1393 18.2664 20.7444 19.2201 22.2823 20.5683C22.8055 19.602 23.0816 18.5213 23.0862 17.4225C23.0862 12.9287 18.5474 8.87421 12.9551 8.87421C7.36268 8.87421 2.82886 12.9486 2.82886 17.4225C2.8311 18.521 3.10559 19.6018 3.62777 20.5683C5.16568 19.2201 8.76077 18.2664 12.9551 18.2664Z" fill="#28BBE5"/>
<path d="M12.955 18.2914C17.1343 18.2914 20.7345 19.2401 22.2674 20.5783C22.791 19.6194 23.0673 18.5451 23.0713 17.4525C23.0713 13.0136 18.5424 8.96411 12.955 8.96411C7.36767 8.96411 2.84384 13.0236 2.84384 17.4525C2.84541 18.5448 3.12004 19.6192 3.64275 20.5783C5.17566 19.2401 8.77076 18.2914 12.955 18.2914Z" fill="#37BDE6"/>
<path d="M12.9551 18.3213C17.1294 18.3213 20.7245 19.2601 22.2524 20.5932C22.7768 19.6401 23.0532 18.5704 23.0563 17.4825C23.0563 13.0735 18.5324 9.039 12.9551 9.039C7.37766 9.039 2.85384 13.0735 2.85384 17.4825C2.85915 18.5695 3.13363 19.6382 3.65275 20.5932C5.18566 19.2601 8.77575 18.3213 12.9551 18.3213Z" fill="#43BFE6"/>
<path d="M12.955 18.3663C17.1244 18.3663 20.7095 19.3 22.2424 20.6232C22.763 19.6778 23.0377 18.6167 23.0413 17.5374C23.0413 13.1534 18.5474 9.14386 12.955 9.14386C7.36268 9.14386 2.86881 13.1384 2.86881 17.5374C2.87174 18.6168 3.1465 19.678 3.66773 20.6232C5.19564 19.28 8.78074 18.3663 12.955 18.3663Z" fill="#4DC0E7"/>
<path d="M12.9551 18.3663C17.1194 18.3663 20.6995 19.295 22.2274 20.6083C22.7502 19.6707 23.0267 18.6159 23.0313 17.5424C23.0313 13.1884 18.5374 9.2038 12.9551 9.2038C7.37266 9.2038 2.88379 13.1984 2.88379 17.5424C2.88747 18.6147 3.16046 19.6689 3.67771 20.6083C5.20563 19.3 8.78574 18.3663 12.9551 18.3663Z" fill="#56C2E8"/>
<path d="M12.955 18.4012C17.1144 18.4012 20.6895 19.32 22.2174 20.6232C22.7356 19.693 23.0104 18.6471 23.0163 17.5823C23.0163 13.2582 18.5225 9.29364 12.955 9.29364C7.38764 9.29364 2.89877 13.2582 2.89877 17.5823C2.90015 18.647 3.17342 19.6937 3.69268 20.6232C5.21561 19.32 8.79073 18.4012 12.955 18.4012Z" fill="#5EC4E8"/>
<path d="M12.9551 18.4262C17.1044 18.4262 20.6795 19.34 22.2024 20.6382C22.7226 19.7143 22.9977 18.6726 23.0014 17.6123C23.0014 13.3182 18.5075 9.37854 12.9551 9.37854C7.40262 9.37854 2.90875 13.3182 2.90875 17.6123C2.91311 18.6719 3.18627 19.713 3.70267 20.6382C5.23058 19.3649 8.79572 18.4262 12.9551 18.4262Z" fill="#65C6E9"/>
<path d="M12.9551 18.4511C17.0994 18.4511 20.6695 19.3599 22.1925 20.6482C22.707 19.7331 22.9802 18.7021 22.9864 17.6522C22.9864 13.3881 18.4925 9.47339 12.9551 9.47339C7.4176 9.47339 2.94371 13.3731 2.94371 17.6423C2.9492 18.6922 3.22246 19.7233 3.73763 20.6382C5.24058 19.3649 8.80571 18.4511 12.9551 18.4511Z" fill="#6DC7EA"/>
<path d="M12.9551 18.4761C17.0944 18.4761 20.6595 19.3799 22.1775 20.6582C22.696 19.7447 22.9695 18.7126 22.9714 17.6622C22.9714 13.423 18.4775 9.53333 12.9551 9.53333C7.43258 9.53333 2.94371 13.438 2.94371 17.6772C2.94388 18.7272 3.21565 19.7593 3.73263 20.6731C5.25056 19.3649 8.8107 18.4761 12.9551 18.4761Z" fill="#74C9EA"/>
<path d="M12.955 18.5061C17.0894 18.5061 20.6496 19.3999 22.1675 20.6731C22.6806 19.7683 22.9539 18.7473 22.9614 17.7072C22.9614 13.4979 18.4675 9.63318 12.975 9.63318C7.48252 9.63318 2.98864 13.5029 2.98864 17.7072C2.99149 18.7473 3.26327 19.769 3.77758 20.6731C5.26055 19.3999 8.81569 18.5061 12.955 18.5061Z" fill="#7ACBEB"/>
<path d="M12.9551 18.5311C17.0844 18.5311 20.6396 19.4199 22.1525 20.6831C22.6676 19.7882 22.9412 18.7747 22.9464 17.7421C22.9464 13.5628 18.4526 9.71808 12.96 9.71808C7.46754 9.71808 2.97367 13.5628 2.97367 17.7421C2.979 18.774 3.25076 19.7871 3.7626 20.6831C5.27054 19.4199 8.82069 18.5311 12.9551 18.5311Z" fill="#81CDEC"/>
<path d="M12.9551 18.5561C17.0794 18.5561 20.6296 19.4399 22.1425 20.6931C22.6538 19.8041 22.9256 18.7977 22.9315 17.7721C22.9315 13.6228 18.4625 9.78302 12.9451 9.78302C7.42759 9.78302 2.95869 13.6078 2.95869 17.7721C2.96152 18.7981 3.23355 19.8053 3.7476 20.6931C5.28051 19.4399 8.82568 18.5561 12.9551 18.5561Z" fill="#87CFEC"/>
<path d="M12.955 18.586C17.0744 18.586 20.6146 19.4598 22.1276 20.7031C22.6391 19.8215 22.9111 18.8214 22.9165 17.8021C22.9165 13.6827 18.4526 9.88287 12.955 9.88287C7.45754 9.88287 2.99364 13.6827 2.99364 17.8021C2.99728 18.8209 3.26755 19.8211 3.77758 20.7031C5.29051 19.4598 8.83067 18.586 12.955 18.586Z" fill="#8ED1ED"/>
<path d="M12.955 18.6109C17.0694 18.6109 20.6046 19.4797 22.1176 20.7181C22.6277 19.8431 22.8997 18.8498 22.9065 17.837C22.9065 13.7426 18.4476 9.96771 12.955 9.96771C7.46254 9.96771 3.00862 13.7476 3.00862 17.837C3.01296 18.8494 3.2833 19.843 3.79256 20.7181C5.3005 19.4797 8.84066 18.6109 12.955 18.6109Z" fill="#94D3EE"/>
<path d="M12.9551 18.6359C17.0644 18.6359 20.5946 19.4997 22.1026 20.728C22.622 19.8631 22.9029 18.8758 22.9165 17.867C22.9165 13.8025 18.4626 10.0526 12.98 10.0526C7.4975 10.0526 3.04358 13.8075 3.04358 17.867C3.04789 18.8731 3.31834 19.8602 3.8275 20.728C5.31048 19.4997 8.84565 18.6359 12.9551 18.6359Z" fill="#9AD5EF"/>
<path d="M12.955 18.6609C17.0595 18.6609 20.5846 19.5197 22.0876 20.7381C22.5973 19.8793 22.8696 18.9005 22.8765 17.9019C22.8765 13.8674 18.4326 10.1375 12.955 10.1375C7.47752 10.1375 3.03358 13.8674 3.03358 17.9019C3.03801 18.9002 3.30862 19.8792 3.81752 20.7381C5.32047 19.5197 8.85065 18.6609 12.955 18.6609Z" fill="#A0D7F0"/>
<path d="M12.955 18.6909C17.0545 18.6909 20.5747 19.5397 22.0776 20.7481C22.584 19.8954 22.8545 18.9235 22.8616 17.9319C22.8616 13.9373 18.4226 10.2224 12.955 10.2224C7.48751 10.2224 3.04856 13.9274 3.04856 17.9319C3.05139 18.9234 3.3204 19.896 3.8275 20.7481C5.33045 19.5397 8.85564 18.6909 12.955 18.6909Z" fill="#A6D9F0"/>
<path d="M12.9551 18.7158C17.0495 18.7158 20.5647 19.5596 22.0626 20.763C22.5727 19.9172 22.8452 18.9495 22.8516 17.9618C22.8516 13.9673 18.4176 10.3073 12.9551 10.3073C7.4925 10.3073 3.06354 13.9922 3.06354 17.9618C3.06685 18.9486 3.33592 19.9162 3.84248 20.763C5.34044 19.5596 8.86063 18.7158 12.9551 18.7158Z" fill="#ACDCF1"/>
<path d="M12.955 18.7408C17.0395 18.7408 20.5547 19.5796 22.0526 20.773C22.558 19.9346 22.8288 18.9757 22.8366 17.9968C22.8366 14.0472 18.4076 10.3922 12.955 10.3922C7.50248 10.3922 3.07852 14.0522 3.07852 17.9968C3.08283 18.9748 3.35016 19.9338 3.85247 20.773C5.35542 19.5796 8.86563 18.7408 12.955 18.7408Z" fill="#B2DEF2"/>
<path d="M12.955 18.7658C17.0345 18.7658 20.5447 19.5996 22.0377 20.763C22.543 19.9319 22.8139 18.9795 22.8216 18.0068C22.8216 14.0921 18.3976 10.4571 12.955 10.4571C7.51247 10.4571 3.08851 14.0921 3.08851 18.0068C3.09145 18.9795 3.36085 19.9327 3.86745 20.763C5.36541 19.5996 8.87561 18.7658 12.955 18.7658Z" fill="#B8E0F3"/>
<path d="M12.955 18.7957C17.0295 18.7957 20.5347 19.6195 22.0277 20.7929C22.5299 19.968 22.7991 19.0224 22.8066 18.0567C22.8066 14.167 18.3926 10.5669 12.955 10.5669C7.51746 10.5669 3.10349 14.177 3.10349 18.0567C3.10778 19.0229 3.37721 19.9694 3.88243 20.7929C5.37539 19.6195 8.8806 18.7957 12.955 18.7957Z" fill="#BDE2F4"/>
<path d="M12.955 18.8207C17.0245 18.8207 20.5247 19.6395 22.0127 20.8179C22.5154 20.0005 22.7847 19.0612 22.7916 18.1016C22.7916 14.2419 18.3826 10.6518 12.955 10.6518C7.52745 10.6518 3.11847 14.2469 3.11847 18.1016C3.12286 19.0609 3.39057 20.0004 3.89241 20.8179C5.38538 19.6395 8.8856 18.8207 12.955 18.8207Z" fill="#C3E5F5"/>
<path d="M12.9551 18.8656C17.0195 18.8656 20.5098 19.6795 22.0027 20.8379C22.503 20.0269 22.7724 19.0946 22.7817 18.1416C22.7817 14.3118 18.3777 10.7467 12.9551 10.7467C7.53245 10.7467 3.13345 14.3168 3.13345 18.1416C3.13614 19.0941 3.40228 20.0273 3.90241 20.8379C5.39537 19.6595 8.89059 18.8656 12.9551 18.8656Z" fill="#C9E7F5"/>
<path d="M12.955 18.8656C17.0145 18.8656 20.4998 19.6695 21.9877 20.8179C22.4877 20.0158 22.7572 19.0916 22.7667 18.1466C22.7667 14.3417 18.3677 10.8016 12.955 10.8016C7.54243 10.8016 3.14343 14.3717 3.14343 18.1565C3.14805 19.1016 3.41608 20.0267 3.91739 20.8279C5.40536 19.6795 8.89559 18.8656 12.955 18.8656Z" fill="#CEE9F6"/>
<path d="M12.9551 18.9006C17.0095 18.9006 20.4898 19.6995 21.9777 20.8429C22.4754 20.0456 22.7433 19.1264 22.7517 18.1865C22.7517 14.4167 18.3627 10.8965 12.9551 10.8965C7.54742 10.8965 3.15841 14.4167 3.15841 18.1865C3.16269 19.1347 3.43441 20.0623 3.94235 20.8629C5.4403 19.6995 8.90058 18.9006 12.9551 18.9006Z" fill="#D4ECF7"/>
<path d="M12.9551 18.9255C17.0045 18.9255 20.4798 19.7195 21.9428 20.8529C22.4414 20.0652 22.7095 19.1537 22.7167 18.2215C22.7167 14.4766 18.3327 10.9814 12.9351 10.9814C7.53745 10.9814 3.15343 14.4766 3.15343 18.2215C3.16116 19.1589 3.43473 20.0748 3.94235 20.8629C5.44031 19.7195 8.93553 18.9255 12.9551 18.9255Z" fill="#DAEEF8"/>
<path d="M12.9551 18.9505C16.9995 18.9505 20.4698 19.7394 21.9428 20.8629C22.4415 20.0823 22.7114 19.1776 22.7217 18.2514C22.7217 14.5365 18.3377 11.0662 12.9501 11.0662C7.56242 11.0662 3.18339 14.5615 3.18339 18.2514C3.18698 19.1758 3.44994 20.0806 3.94235 20.8629C5.4403 19.7394 8.93553 18.9505 12.9551 18.9505Z" fill="#DFF1F9"/>
<path d="M12.9551 18.9804C16.9945 18.9804 20.4448 19.7594 21.9428 20.8729C22.4404 20.0995 22.7087 19.201 22.7167 18.2814C22.7167 14.5964 18.3427 11.1511 12.96 11.1511C7.57739 11.1511 3.20335 14.6014 3.20335 18.2814C3.20715 19.2009 3.47397 20.1001 3.97231 20.8729C5.4403 19.7594 8.93553 18.9804 12.9551 18.9804Z" fill="#E5F3FA"/>
<path d="M12.9551 19.0054C16.9895 19.0054 20.4448 19.7794 21.9428 20.8879C22.4387 20.1211 22.7071 19.2295 22.7167 18.3164C22.7167 14.6613 18.3477 11.236 12.975 11.236C7.60235 11.236 3.23331 14.6613 3.23331 18.3164C3.23941 19.2286 3.50433 20.1203 3.99726 20.8879C5.4403 19.7794 8.93553 19.0054 12.9551 19.0054Z" fill="#EBF6FB"/>
<path d="M12.9551 19.0304C16.9846 19.0304 20.4448 19.7994 21.9128 20.8979C22.4054 20.1373 22.6721 19.2525 22.6818 18.3463C22.6818 14.7213 18.3227 11.3209 12.9551 11.3209C7.58737 11.3209 3.22832 14.7213 3.22832 18.3663C3.2338 19.2724 3.49892 20.1579 3.99228 20.9178C5.46527 19.7994 8.93553 19.0304 12.9551 19.0304Z" fill="#F1F8FD"/>
<path d="M12.955 19.0553C16.9796 19.0553 20.4448 19.8193 21.8979 20.9078C22.3945 20.1528 22.6616 19.27 22.6668 18.3663C22.6668 14.7662 18.3127 11.3758 12.955 11.3758C7.59735 11.3758 3.2433 14.7562 3.2433 18.3663C3.24785 19.2639 3.51138 20.1412 4.00226 20.8928C5.48025 19.8193 8.93553 19.0553 12.955 19.0553Z" fill="#F7FBFE"/>
<path d="M12.9551 19.0853C16.9496 19.0853 20.4149 19.8393 21.8879 20.9228C22.3765 20.1807 22.6433 19.3146 22.6568 18.4262C22.6568 14.856 18.3078 11.5056 12.9551 11.5056C7.60235 11.5056 3.25328 14.861 3.25328 18.4262C3.26253 19.3145 3.52778 20.1814 4.01724 20.9228C5.49023 19.8642 8.93553 19.0853 12.9551 19.0853Z" fill="white"/>
<path d="M12.955 15.5201C9.72331 15.4904 6.51169 16.0313 3.46799 17.118C4.2831 18.9486 5.61138 20.5038 7.29203 21.5952C8.97268 22.6866 10.9337 23.2674 12.9376 23.2674C14.9415 23.2674 16.9025 22.6866 18.5831 21.5952C20.2638 20.5038 21.5921 18.9486 22.4072 17.118C19.3749 16.0339 16.1752 15.493 12.955 15.5201Z" fill="#0083CA"/>
</g>
</g>
<defs>
<clipPath id="clip0_397_6548">
<rect width="22" height="21.7653" fill="white" transform="translate(2 2.02356)"/>
</clipPath>
</defs>
</svg>
