<svg width="292" height="51" viewBox="0 0 292 51" fill="none" xmlns="http://www.w3.org/2000/svg">
<rect y="0.5" width="292" height="50" rx="8" fill="#FEE500"/>
<path d="M21.9935 17.0938C16.9627 17.0938 12.9056 20.3394 12.9056 24.2797C12.9056 26.8372 14.5934 29.0767 17.125 30.3555L16.2681 33.5558C16.252 33.6037 16.2495 33.6552 16.261 33.7045C16.2724 33.7538 16.2974 33.7989 16.333 33.8348C16.3851 33.8807 16.452 33.9061 16.5213 33.9062C16.5788 33.9016 16.6333 33.8789 16.6771 33.8413L20.3641 31.3552C20.9084 31.4303 21.457 31.4693 22.0064 31.472C27.0307 31.472 31.0943 28.2264 31.0943 24.2797C31.0943 20.3329 27.0177 17.0938 21.9935 17.0938Z" fill="black"/>
<path d="M114.36 13.504C114.346 17.34 113.422 20.546 108.76 22.884L107.808 21.568C109.894 20.532 111.126 19.37 111.826 17.984L108.144 18.348L107.948 16.836L112.358 16.57C112.484 16.052 112.568 15.492 112.61 14.904H108.592V13.504H114.36ZM115.928 24.732V12.3H117.692V17.088H119.456V18.516H117.692V24.732H115.928ZM126.46 13.504C126.446 17.34 125.522 20.546 120.86 22.884L119.908 21.568C121.994 20.532 123.226 19.37 123.926 17.984L120.244 18.348L120.048 16.836L124.458 16.57C124.584 16.052 124.668 15.492 124.71 14.904H120.692V13.504H126.46ZM128.028 24.732V12.3H129.792V17.088H131.556V18.516H129.792V24.732H128.028ZM137.747 12.944C140.421 12.958 142.423 14.316 142.423 16.36C142.423 18.25 140.827 19.51 138.587 19.762V21.876H143.459V23.304H132.063V21.876H136.879V19.762C134.653 19.496 133.071 18.236 133.071 16.36C133.071 14.316 135.073 12.958 137.747 12.944ZM134.779 16.36C134.793 17.676 135.997 18.404 137.747 18.404C139.483 18.404 140.701 17.676 140.715 16.36C140.701 15.114 139.483 14.344 137.747 14.344C135.997 14.344 134.793 15.114 134.779 16.36ZM158.785 21.932V23.36H147.389V21.932H152.205V20.056H148.705V15.884H155.733V14.512H148.677V13.112H157.469V17.256H150.441V18.656H157.749V20.056H153.913V21.932H158.785ZM169.457 13.448V14.96C169.443 16.668 169.443 18.348 169.009 20.924L167.245 20.784C167.707 18.39 167.707 16.612 167.721 14.96V14.876H160.665V13.448H169.457ZM159.489 23.136V21.708H170.857V23.136H159.489ZM182.005 12.328V21.26H180.269V12.328H182.005ZM171.785 16.248C171.785 14.428 173.283 13.112 175.201 13.112C177.105 13.112 178.589 14.428 178.589 16.248C178.589 18.11 177.105 19.412 175.201 19.412C173.283 19.412 171.785 18.11 171.785 16.248ZM173.493 16.248C173.479 17.298 174.221 17.886 175.201 17.9C176.139 17.886 176.867 17.298 176.853 16.248C176.867 15.24 176.139 14.638 175.201 14.624C174.221 14.638 173.479 15.24 173.493 16.248ZM173.661 24.536V20.364H175.425V23.136H182.341V24.536H173.661Z" fill="#212529"/>
<path d="M106.284 32.146V37.276H102.594V32.146H106.284ZM103.404 36.592H105.438V32.812H103.404V36.592ZM107.598 39.238V31.372H108.426V34.45H109.686V35.17H108.426V39.238H107.598ZM112.694 33.694C112.694 35.008 113.558 36.367 114.782 36.88L114.314 37.546C113.387 37.132 112.658 36.268 112.289 35.224C111.92 36.34 111.182 37.303 110.264 37.744L109.778 37.078C110.966 36.529 111.848 35.044 111.848 33.694V32.848H110.048V32.164H114.494V32.848H112.694V33.694ZM115.484 39.238V31.372H116.33V39.238H115.484ZM121.301 31.948V35.494H117.611V31.948H121.301ZM118.295 37.096V36.43H123.497V39.256H122.669V37.096H118.295ZM118.421 34.828H120.473V32.614H118.421V34.828ZM122.669 36.034V31.372H123.497V33.37H124.631V34.054H123.497V36.034H122.669ZM128.395 31.84C130.051 31.849 131.311 32.722 131.311 34.036C131.311 35.377 130.051 36.25 128.395 36.25C126.748 36.25 125.497 35.377 125.497 34.036C125.497 32.722 126.748 31.849 128.395 31.84ZM124.813 38.23V37.546H132.031V38.23H124.813ZM126.307 34.036C126.298 34.963 127.198 35.557 128.395 35.566C129.61 35.557 130.501 34.963 130.501 34.036C130.501 33.127 129.61 32.515 128.395 32.524C127.198 32.515 126.298 33.127 126.307 34.036ZM139.539 37.6V38.302H132.321V37.6H135.489V36.214H133.203V33.712H137.829V32.614H133.185V31.93H138.657V34.396H134.031V35.53H138.837V36.214H136.317V37.6H139.539ZM148.975 37.6V38.302H141.757V37.6H144.925V36.214H142.639V33.712H147.265V32.614H142.621V31.93H148.093V34.396H143.467V35.53H148.273V36.214H145.753V37.6H148.975ZM155.511 32.164V33.01C155.502 34.036 155.502 35.143 155.223 36.826L154.377 36.754C154.683 35.17 154.683 34.009 154.683 33.01V32.848H150.039V32.164H155.511ZM149.265 38.122V37.438H156.447V38.122H149.265ZM163.308 31.372V37.096H162.48V31.372H163.308ZM156.936 33.856C156.936 32.722 157.845 31.912 159.042 31.912C160.221 31.912 161.13 32.722 161.13 33.856C161.13 35.017 160.221 35.818 159.042 35.818C157.845 35.818 156.936 35.017 156.936 33.856ZM157.746 33.856C157.746 34.603 158.304 35.089 159.042 35.098C159.753 35.089 160.311 34.603 160.302 33.856C160.311 33.136 159.753 32.641 159.042 32.632C158.304 32.641 157.746 33.136 157.746 33.856ZM158.16 39.076V36.52H158.988V38.41H163.542V39.076H158.16ZM170.474 31.372V33.91H171.608V34.612H170.474V37.276H169.646V31.372H170.474ZM164.3 32.974V32.29H166.226V31.372H167.054V32.29H168.98V32.974H164.3ZM164.732 34.846C164.723 33.937 165.497 33.343 166.64 33.352C167.774 33.343 168.548 33.937 168.548 34.846C168.548 35.728 167.774 36.313 166.64 36.304C165.497 36.313 164.723 35.728 164.732 34.846ZM165.488 39.076V36.808H166.316V38.41H170.816V39.076H165.488ZM165.524 34.846C165.524 35.35 165.974 35.665 166.64 35.656C167.306 35.665 167.756 35.35 167.756 34.846C167.756 34.315 167.306 33.991 166.64 34C165.974 33.991 165.524 34.315 165.524 34.846ZM180.485 31.372V39.238H179.693V31.372H180.485ZM173.681 36.97C175.346 35.98 176.147 34.648 176.291 33.028H174.059V32.344H177.119C177.119 32.749 177.092 33.145 177.029 33.532H178.091V31.57H178.883V38.86H178.091V36.178H176.741V35.494H178.091V34.216H176.867C176.489 35.539 175.643 36.682 174.167 37.564L173.681 36.97ZM187.796 31.372V36.052H186.968V34.072H185.492V33.388H186.968V31.372H187.796ZM181.226 35.35C182.45 34.918 183.197 33.856 183.206 32.776V32.596H181.496V31.912H185.744V32.596H184.052V32.758C184.043 33.757 184.754 34.729 185.942 35.134L185.51 35.8C184.628 35.485 183.98 34.855 183.647 34.081C183.296 34.963 182.603 35.674 181.658 36.016L181.226 35.35ZM182.486 37.762C182.486 36.826 183.503 36.277 185.15 36.286C186.806 36.277 187.814 36.826 187.814 37.762C187.814 38.698 186.806 39.238 185.15 39.238C183.503 39.238 182.486 38.698 182.486 37.762ZM183.314 37.762C183.314 38.293 183.998 38.599 185.15 38.59C186.302 38.599 186.986 38.293 186.986 37.762C186.986 37.231 186.302 36.925 185.15 36.916C183.998 36.925 183.314 37.231 183.314 37.762Z" fill="#5B6166"/>
</svg>
