<svg width="293" height="42" viewBox="0 0 293 42" fill="none" xmlns="http://www.w3.org/2000/svg">
<rect x="0.5" width="292" height="42" rx="8" fill="#FEE500"/>
<path d="M22.4935 12.5938C17.4627 12.5938 13.4056 15.8394 13.4056 19.7797C13.4056 22.3372 15.0934 24.5767 17.625 25.8555L16.7681 29.0558C16.752 29.1037 16.7495 29.1552 16.761 29.2045C16.7724 29.2538 16.7974 29.2989 16.833 29.3348C16.8851 29.3807 16.952 29.4061 17.0213 29.4062C17.0788 29.4016 17.1333 29.3789 17.1771 29.3413L20.8641 26.8552C21.4084 26.9303 21.957 26.9693 22.5064 26.972C27.5307 26.972 31.5943 23.7264 31.5943 19.7797C31.5943 15.8329 27.5177 12.5938 22.4935 12.5938Z" fill="black"/>
<path d="M103.348 16.004C103.334 19.84 102.41 23.046 97.7483 25.384L96.7963 24.068C98.8823 23.032 100.114 21.87 100.814 20.484L97.1323 20.848L96.9363 19.336L101.346 19.07C101.472 18.552 101.556 17.992 101.598 17.404H97.5803V16.004H103.348ZM104.916 27.232V14.8H106.68V19.588H108.444V21.016H106.68V27.232H104.916ZM115.448 16.004C115.434 19.84 114.51 23.046 109.848 25.384L108.896 24.068C110.982 23.032 112.214 21.87 112.914 20.484L109.232 20.848L109.036 19.336L113.446 19.07C113.572 18.552 113.656 17.992 113.698 17.404H109.68V16.004H115.448ZM117.016 27.232V14.8H118.78V19.588H120.544V21.016H118.78V27.232H117.016ZM126.736 15.444C129.41 15.458 131.412 16.816 131.412 18.86C131.412 20.75 129.816 22.01 127.576 22.262V24.376H132.448V25.804H121.052V24.376H125.868V22.262C123.642 21.996 122.06 20.736 122.06 18.86C122.06 16.816 124.062 15.458 126.736 15.444ZM123.768 18.86C123.782 20.176 124.986 20.904 126.736 20.904C128.472 20.904 129.69 20.176 129.704 18.86C129.69 17.614 128.472 16.844 126.736 16.844C124.986 16.844 123.782 17.614 123.768 18.86ZM144.547 24.432V25.86H133.151V24.432H137.967V22.556H134.467V18.384H141.495V17.012H134.439V15.612H143.231V19.756H136.203V21.156H143.511V22.556H139.675V24.432H144.547ZM153.321 17.628C153.321 19.924 154.357 22.206 156.485 23.088L155.449 24.488C154.021 23.844 153.027 22.612 152.467 21.072C151.907 22.752 150.885 24.11 149.373 24.796L148.309 23.34C150.493 22.43 151.543 20.05 151.557 17.628V15.78H153.321V17.628ZM157.129 27.288V14.8H158.893V27.288H157.129ZM167.661 15.528V16.928H165.169C165.183 18.384 166.051 19.882 168.081 20.54L167.185 21.884C165.813 21.436 164.861 20.554 164.315 19.434C163.769 20.652 162.775 21.632 161.333 22.108L160.409 20.736C162.453 20.078 163.391 18.482 163.405 16.928H160.885V15.528H167.661ZM162.089 24.236V22.864H170.461V27.26H168.697V24.236H162.089ZM168.697 22.332V14.8H170.461V17.824H172.141V19.28H170.461V22.332H168.697ZM182.505 14.8V19.7H184.325V21.128H182.505V27.26H180.769V14.8H182.505ZM172.621 18.076V16.676H175.421V14.996H177.185V16.676H179.929V18.076H172.621ZM173.125 21.744C173.111 19.994 174.469 18.762 176.317 18.776C178.123 18.762 179.481 19.994 179.481 21.744C179.481 23.466 178.123 24.698 176.317 24.684C174.469 24.698 173.111 23.466 173.125 21.744ZM174.805 21.744C174.791 22.696 175.421 23.27 176.317 23.256C177.171 23.27 177.801 22.696 177.801 21.744C177.801 20.778 177.171 20.19 176.317 20.176C175.421 20.19 174.791 20.778 174.805 21.744ZM195.248 14.8V27.26H193.484V14.8H195.248ZM184.832 23.732C188.038 22.206 189.452 20.246 189.732 17.488H185.476V16.116H191.496C191.51 19.882 190.18 23.032 185.728 25.132L184.832 23.732Z" fill="#212529"/>
</svg>
