<svg width="293" height="73" viewBox="0 0 293 73" fill="none" xmlns="http://www.w3.org/2000/svg">
<mask id="mask0_278_26188" style="mask-type:alpha" maskUnits="userSpaceOnUse" x="7" y="51" width="30" height="23">
<path opacity="0.9" d="M18.9684 54.0108C20.1732 54.9954 21.1462 56.1665 21.8892 57.4732C22.6322 56.1665 23.6052 54.9954 24.81 54.0108C27.8986 51.4867 31.9641 50.6363 36.1408 51.2819C36.0697 55.398 34.5044 59.1486 31.4158 61.6726C29.0282 63.6235 26.057 64.5741 22.9017 64.6074L23.5876 73.0002H20.5062L21.3111 64.6063C17.9946 64.6592 14.8595 63.7128 12.3625 61.6726C9.27393 59.1486 7.7086 55.398 7.63757 51.2819C11.8142 50.6363 15.8798 51.4867 18.9684 54.0108Z" fill="#00D6A2"/>
</mask>
<g mask="url(#mask0_278_26188)">
<path opacity="0.5" d="M18.9257 56.3406C20.148 57.3395 21.1352 58.5277 21.889 59.8534C22.6428 58.5277 23.63 57.3395 24.8523 56.3406C27.9858 53.7799 32.1105 52.917 36.3479 53.572C36.2759 57.748 34.6878 61.5531 31.5542 64.1139C29.1319 66.0932 26.1175 67.0576 22.9163 67.0914L23.6121 75.6063H20.4859L21.3025 67.0903C17.9378 67.1439 14.757 66.1838 12.2237 64.1139C9.09022 61.5531 7.50212 57.748 7.43005 53.572C11.6675 52.917 15.7922 53.7799 18.9257 56.3406Z" fill="#00D6A2"/>
<path opacity="0.5" d="M19.1758 57.5635C20.3806 58.5481 21.3536 59.7193 22.0966 61.0259C22.8396 59.7193 23.8126 58.5481 25.0174 57.5635C28.106 55.0395 32.1715 54.189 36.3482 54.8347C36.2771 58.9507 34.7118 62.7013 31.6232 65.2254C29.2356 67.1763 26.2644 68.1268 23.1091 68.1601L23.795 76.553H20.7136L21.5185 68.1591C18.202 68.2119 15.0669 67.2655 12.5699 65.2254C9.48133 62.7013 7.916 58.9507 7.84497 54.8347C12.0216 54.189 16.0872 55.0395 19.1758 57.5635Z" fill="#00D6A2"/>
<path opacity="0.9" d="M18.9257 58.6624C20.148 59.6613 21.1352 60.8495 21.889 62.1752C22.6428 60.8495 23.63 59.6613 24.8523 58.6624C27.9858 56.1016 32.1105 55.2388 36.3479 55.8938C36.2759 60.0698 34.6878 63.8749 31.5542 66.4357C29.1319 68.415 26.1175 69.3794 22.9163 69.4131L23.6121 77.9281H20.4859L21.3025 69.4121C17.9378 69.4657 14.757 68.5055 12.2237 66.4357C9.09022 63.8749 7.50212 60.0698 7.43005 55.8938C11.6675 55.2388 15.7922 56.1016 18.9257 58.6624Z" fill="#00D6A2"/>
<path opacity="0.9" d="M19.2694 59.3609C20.4742 60.3455 21.4472 61.5166 22.1902 62.8233C22.9332 61.5166 23.9062 60.3455 25.111 59.3609C28.1996 56.8368 32.2651 55.9864 36.4418 56.632C36.3708 60.7481 34.8054 64.4987 31.7169 67.0227C29.3292 68.9736 26.3581 69.9242 23.2028 69.9575L23.8886 78.3503H20.8072L21.6121 69.9564C18.2957 70.0093 15.1605 69.0629 12.6635 67.0227C9.57496 64.4987 8.00963 60.7481 7.9386 56.632C12.1153 55.9864 16.1808 56.8368 19.2694 59.3609Z" fill="#00D6A2"/>
<path d="M20.0097 62.6905C21.2145 63.675 22.1875 64.8462 22.9306 66.1529C23.6736 64.8462 24.6466 63.675 25.8514 62.6905C28.9399 60.1664 33.0055 59.316 37.1822 59.9616C37.1111 64.0777 35.5458 67.8282 32.4572 70.3523C30.0696 72.3032 27.0984 73.2538 23.9431 73.2871L24.629 81.6799H21.5476L22.3524 73.286C19.036 73.3389 15.9009 72.3925 13.4039 70.3523C10.3153 67.8282 8.74998 64.0777 8.67896 59.9616C12.8556 59.316 16.9212 60.1664 20.0097 62.6905Z" fill="#00D6A2"/>
</g>
<mask id="mask1_278_26188" style="mask-type:alpha" maskUnits="userSpaceOnUse" x="76" y="51" width="6" height="23">
<path d="M78.6661 51.04H80.4596L81.9308 73.0004H76.9399L78.6661 51.04Z" fill="#D7953B"/>
</mask>
<g mask="url(#mask1_278_26188)">
<path opacity="0.8" d="M78.6646 51.04H80.4581L81.9293 73.0004H76.9385L78.6646 51.04Z" fill="#D7953B"/>
<rect opacity="0.7" x="78.5859" y="58.0771" width="3.74745" height="15.2905" fill="#D7953B"/>
<rect x="80.2271" y="57.7095" width="4.15579" height="15.2905" fill="#D7953B"/>
</g>
<mask id="mask2_278_26188" style="mask-type:alpha" maskUnits="userSpaceOnUse" x="65" y="32" width="28" height="28">
<ellipse cx="79.3168" cy="45.8583" rx="13.6376" ry="13.7714" fill="#00D6A2"/>
</mask>
<g mask="url(#mask2_278_26188)">
<rect x="79.3167" y="26.3281" width="16.1515" height="34.5576" fill="#02BDA5"/>
<rect x="63.2834" y="26.3281" width="16.1515" height="34.5576" fill="#00D6A2"/>
</g>
<g clip-path="url(#clip0_278_26188)">
<mask id="mask3_278_26188" style="mask-type:alpha" maskUnits="userSpaceOnUse" x="133" y="45" width="7" height="28">
<path d="M135.384 45.1274H137.671L139.547 72.8597H133.182L135.384 45.1274Z" fill="#D7953B"/>
</mask>
<g mask="url(#mask3_278_26188)">
<path opacity="0.8" d="M135.381 45.127H137.668L139.544 72.8592H133.18L135.381 45.127Z" fill="#D7953B"/>
<rect opacity="0.7" x="135.281" y="54.0132" width="4.77884" height="19.3094" fill="#D7953B"/>
<rect x="137.374" y="53.5493" width="5.29956" height="19.3094" fill="#D7953B"/>
</g>
<path d="M136.046 42.5344C138.07 40.1978 140.995 38.7287 144.25 38.7287C145.236 38.7287 146.192 38.8639 147.102 39.1178C147.067 32.7717 142.131 27.6396 136.047 27.6396C129.963 27.6396 125.027 32.7728 124.992 39.1178C125.902 38.865 126.857 38.7298 127.844 38.7298C131.098 38.7298 134.024 40.1989 136.047 42.5355L136.046 42.5344Z" fill="#5FE1B7"/>
<path d="M120.318 57.336C120.318 54.4425 125.874 51.4781 133.207 50.8514C133.199 50.6825 133.195 50.5125 133.195 50.3414C128.472 49.0282 124.991 44.5304 124.991 39.1848C124.991 39.1619 124.991 39.1401 124.991 39.1172C120.268 40.4293 116.787 44.9271 116.787 50.2738C116.787 55.0844 119.604 59.2072 123.611 60.9422C121.547 59.9461 120.318 58.6961 120.318 57.3349V57.336Z" fill="#00D6A2"/>
<path d="M133.193 50.3403C133.193 50.3175 133.193 50.2957 133.193 50.2728C133.193 47.2953 134.273 44.5806 136.045 42.5328C134.022 40.1961 131.097 38.7271 127.842 38.7271C126.856 38.7271 125.901 38.8622 124.991 39.115C124.991 39.1379 124.991 39.1597 124.991 39.1826C124.991 44.5293 128.471 49.026 133.194 50.3393L133.193 50.3403Z" fill="#00CF91"/>
<path d="M155.305 50.2738C155.305 44.9271 151.825 40.4304 147.102 39.1172C147.102 39.1401 147.102 39.1619 147.102 39.1848C147.102 44.5315 143.62 49.0292 138.897 50.3425C138.897 50.5136 138.892 50.6836 138.885 50.8525C146.22 51.4781 151.778 54.4425 151.778 57.3371C151.778 58.7015 150.534 59.9592 148.448 60.9586C152.472 59.2323 155.305 55.0996 155.305 50.2749V50.2738Z" fill="#02BDA5"/>
<path d="M136.044 42.5338C137.817 44.5816 138.897 47.2964 138.897 50.2739C138.897 50.2967 138.897 50.3185 138.897 50.3414C143.621 49.0282 147.101 44.5315 147.101 39.1837C147.101 39.1608 147.101 39.139 147.101 39.1161C146.191 38.8633 145.235 38.7271 144.249 38.7271C140.994 38.7271 138.069 40.1961 136.045 42.5328L136.044 42.5338Z" fill="#00AB8E"/>
<path d="M133.196 50.3415C133.196 50.5126 133.201 50.6827 133.208 50.8516C134.13 50.7731 135.08 50.7306 136.049 50.7306C137.019 50.7306 137.965 50.772 138.885 50.8505C138.894 50.6816 138.898 50.5116 138.898 50.3404C137.988 50.5933 137.033 50.7284 136.047 50.7284C135.061 50.7284 134.105 50.5933 133.195 50.3394L133.196 50.3415Z" fill="#00AC8E"/>
<path d="M136.048 42.5327C134.275 44.5805 133.196 47.2953 133.196 50.2727C133.196 50.2956 133.196 50.3174 133.196 50.3403C134.106 50.5931 135.062 50.7294 136.048 50.7294C137.034 50.7294 137.989 50.5942 138.899 50.3414C138.899 50.3185 138.899 50.2967 138.899 50.2738C138.899 47.2964 137.819 44.5816 136.047 42.5338L136.048 42.5327Z" fill="#00B38E"/>
<path d="M136.046 58.014C134.389 56.0991 133.337 53.6023 133.207 50.8516C125.874 51.4771 120.318 54.4415 120.318 57.3361C120.318 58.6962 121.546 59.9473 123.61 60.9434C124.914 61.508 126.344 61.8208 127.842 61.8208C131.097 61.8208 134.022 60.3517 136.046 58.0151V58.014Z" fill="#00D6A2"/>
<path d="M151.776 57.3361C151.776 54.4415 146.218 51.4771 138.883 50.8516C138.754 53.6023 137.702 56.1002 136.044 58.014C138.068 60.3506 140.993 61.8197 144.248 61.8197C145.734 61.8197 147.152 61.5123 148.446 60.9576C150.533 59.9582 151.776 58.7006 151.776 57.3361Z" fill="#02BDA5"/>
<path d="M133.207 50.8513C133.337 53.6021 134.389 56.0989 136.046 58.0137C137.703 56.0989 138.755 53.6021 138.884 50.8513C137.964 50.7729 137.016 50.7314 136.048 50.7314C135.079 50.7314 134.129 50.774 133.207 50.8524V50.8513Z" fill="#00AB8E"/>
</g>
<g clip-path="url(#clip1_278_26188)">
<mask id="mask4_278_26188" style="mask-type:alpha" maskUnits="userSpaceOnUse" x="190" y="40" width="9" height="34">
<path d="M193.375 40.3926H196.171L198.464 73.1213H190.684L193.375 40.3926Z" fill="#D7953B"/>
</mask>
<g mask="url(#mask4_278_26188)">
<path opacity="0.8" d="M193.372 40.3926H196.168L198.462 73.1213H190.681L193.372 40.3926Z" fill="#D7953B"/>
<rect opacity="0.7" x="193.25" y="50.8804" width="5.84212" height="22.7883" fill="#D7953B"/>
<rect x="195.808" y="50.334" width="6.4787" height="22.7883" fill="#C48734"/>
</g>
<mask id="mask5_278_26188" style="mask-type:alpha" maskUnits="userSpaceOnUse" x="173" y="20" width="42" height="37">
<path d="M194.002 36.2243C196.167 33.8154 199.296 32.3008 202.777 32.3008C203.832 32.3008 204.854 32.4401 205.828 32.7019C205.791 26.1595 200.511 20.8687 194.003 20.8687C187.496 20.8687 182.216 26.1606 182.179 32.7019C183.153 32.4413 184.174 32.3019 185.229 32.3019C188.71 32.3019 191.839 33.8165 194.003 36.2254L194.002 36.2243Z" fill="#5FE1B7"/>
<path d="M177.179 51.4851C177.179 48.502 183.122 45.446 190.965 44.7999C190.956 44.6258 190.952 44.4505 190.952 44.2741C185.9 42.9202 182.177 38.2833 182.177 32.7723C182.177 32.7487 182.177 32.7262 182.177 32.7026C177.125 34.0554 173.401 38.6923 173.401 44.2045C173.401 49.1638 176.415 53.4142 180.7 55.2029C178.494 54.176 177.179 52.8873 177.179 51.484V51.4851Z" fill="#00D6A2"/>
<path d="M190.951 44.2724C190.951 44.2488 190.951 44.2263 190.951 44.2027C190.951 41.1332 192.107 38.3344 194.002 36.2233C191.838 33.8144 188.709 32.2998 185.227 32.2998C184.172 32.2998 183.151 32.4391 182.178 32.6998C182.178 32.7234 182.178 32.7459 182.178 32.7695C182.178 38.2816 185.9 42.9174 190.952 44.2713L190.951 44.2724Z" fill="#00CF91"/>
<path d="M214.602 44.2045C214.602 38.6923 210.879 34.0565 205.827 32.7026C205.827 32.7262 205.827 32.7487 205.827 32.7723C205.827 38.2845 202.104 42.9214 197.051 44.2752C197.051 44.4516 197.046 44.6269 197.038 44.8011C204.884 45.446 210.829 48.502 210.829 51.4862C210.829 52.8929 209.499 54.1895 207.267 55.2198C211.571 53.4401 214.602 49.1796 214.602 44.2056V44.2045Z" fill="#02BDA5"/>
<path d="M194.001 36.2229C195.897 38.3341 197.052 41.1328 197.052 44.2024C197.052 44.226 197.052 44.2485 197.052 44.272C202.105 42.9182 205.827 38.2824 205.827 32.7691C205.827 32.7455 205.827 32.723 205.827 32.6994C204.854 32.4388 203.832 32.2983 202.777 32.2983C199.295 32.2983 196.166 33.8129 194.002 36.2218L194.001 36.2229Z" fill="#00AB8E"/>
<path d="M190.95 44.2723C190.95 44.4487 190.956 44.6239 190.964 44.7981C191.949 44.7172 192.965 44.6734 194.002 44.6734C195.039 44.6734 196.052 44.7161 197.036 44.797C197.045 44.6228 197.049 44.4475 197.049 44.2711C196.076 44.5318 195.055 44.6711 194 44.6711C192.945 44.6711 191.923 44.5318 190.949 44.27L190.95 44.2723Z" fill="#00AC8E"/>
<path d="M194 36.2231C192.103 38.3343 190.949 41.1331 190.949 44.2026C190.949 44.2262 190.949 44.2487 190.949 44.2723C191.923 44.5329 192.945 44.6734 194 44.6734C195.055 44.6734 196.076 44.5341 197.049 44.2734C197.049 44.2498 197.049 44.2273 197.049 44.2037C197.049 41.1342 195.894 38.3354 193.999 36.2243L194 36.2231Z" fill="#00B38E"/>
<path d="M194.002 52.1823C192.229 50.2082 191.104 47.6342 190.966 44.7983C183.122 45.4433 177.179 48.4993 177.179 51.4835C177.179 52.8857 178.493 54.1755 180.701 55.2024C182.095 55.7844 183.624 56.1069 185.227 56.1069C188.709 56.1069 191.838 54.5924 194.002 52.1835V52.1823Z" fill="#00D6A2"/>
<path d="M210.828 51.4835C210.828 48.4993 204.883 45.4433 197.037 44.7983C196.899 47.6342 195.774 50.2094 194.001 52.1823C196.165 54.5912 199.294 56.1058 202.776 56.1058C204.365 56.1058 205.882 55.7889 207.266 55.217C209.498 54.1868 210.828 52.8902 210.828 51.4835Z" fill="#02BDA5"/>
<path d="M190.966 44.7984C191.104 47.6342 192.229 50.2083 194.002 52.1824C195.774 50.2083 196.899 47.6342 197.038 44.7984C196.053 44.7175 195.04 44.6748 194.004 44.6748C192.968 44.6748 191.951 44.7186 190.966 44.7995V44.7984Z" fill="#00AB8E"/>
</mask>
<g mask="url(#mask5_278_26188)">
<path d="M202.778 43.5709C204.942 41.162 208.071 39.6475 211.552 39.6475C212.607 39.6475 213.63 39.7868 214.603 40.0486C214.566 33.5061 209.286 28.2153 202.779 28.2153C196.271 28.2153 190.991 33.5073 190.954 40.0486C191.928 39.7879 192.949 39.6486 194.004 39.6486C197.485 39.6486 200.614 41.1632 202.779 43.5721L202.778 43.5709Z" fill="#5FE1B7"/>
<path d="M185.953 58.8318C185.953 55.8487 191.896 52.7927 199.74 52.1466C199.731 51.9725 199.727 51.7972 199.727 51.6208C194.675 50.2669 190.952 45.63 190.952 40.119C190.952 40.0954 190.952 40.0729 190.952 40.0493C185.9 41.4021 182.176 46.039 182.176 51.5511C182.176 56.5105 185.19 60.7609 189.475 62.5496C187.268 61.5227 185.953 60.2339 185.953 58.8306V58.8318Z" fill="#00D6A2"/>
<path d="M199.727 51.6215C199.727 51.5979 199.727 51.5754 199.727 51.5519C199.727 48.4823 200.882 45.6835 202.777 43.5724C200.613 41.1635 197.484 39.6489 194.003 39.6489C192.948 39.6489 191.926 39.7882 190.953 40.0489C190.953 40.0725 190.953 40.095 190.953 40.1186C190.953 45.6307 194.676 50.2665 199.728 51.6204L199.727 51.6215Z" fill="#00CF91"/>
<path d="M223.376 51.5511C223.376 46.039 219.654 41.4032 214.602 40.0493C214.602 40.0729 214.602 40.0954 214.602 40.119C214.602 45.6311 210.878 50.268 205.826 51.6219C205.826 51.7983 205.82 51.9736 205.812 52.1477C213.659 52.7927 219.604 55.8487 219.604 58.8329C219.604 60.2396 218.273 61.5362 216.042 62.5665C220.346 60.7867 223.376 56.5262 223.376 51.5523V51.5511Z" fill="#02BDA5"/>
<path d="M202.776 43.5696C204.672 45.6807 205.827 48.4795 205.827 51.5491C205.827 51.5727 205.827 51.5951 205.827 51.6187C210.88 50.2648 214.602 45.6291 214.602 40.1158C214.602 40.0922 214.602 40.0697 214.602 40.0461C213.629 39.7855 212.607 39.645 211.552 39.645C208.07 39.645 204.941 41.1596 202.777 43.5685L202.776 43.5696Z" fill="#00AB8E"/>
<path d="M199.725 51.6189C199.725 51.7953 199.731 51.9706 199.739 52.1448C200.724 52.0639 201.74 52.0201 202.777 52.0201C203.814 52.0201 204.826 52.0628 205.811 52.1436C205.82 51.9695 205.824 51.7942 205.824 51.6178C204.851 51.8785 203.83 52.0178 202.775 52.0178C201.72 52.0178 200.697 51.8785 199.724 51.6167L199.725 51.6189Z" fill="#00AC8E"/>
<path d="M202.775 43.5698C200.878 45.681 199.724 48.4798 199.724 51.5493C199.724 51.5729 199.724 51.5954 199.724 51.619C200.697 51.8796 201.72 52.0201 202.775 52.0201C203.83 52.0201 204.851 51.8807 205.824 51.6201C205.824 51.5965 205.824 51.574 205.824 51.5504C205.824 48.4809 204.669 45.6821 202.774 43.5709L202.775 43.5698Z" fill="#00B38E"/>
<path d="M202.777 59.529C201.004 57.5549 199.879 54.9809 199.74 52.145C191.897 52.7899 185.954 55.846 185.954 58.8302C185.954 60.2324 187.268 61.5222 189.476 62.5491C190.87 63.1311 192.399 63.4536 194.002 63.4536C197.483 63.4536 200.612 61.939 202.777 59.5301V59.529Z" fill="#00D6A2"/>
<path d="M219.603 58.8302C219.603 55.846 213.658 52.7899 205.812 52.145C205.674 54.9809 204.548 57.5561 202.776 59.529C204.94 61.9379 208.069 63.4525 211.551 63.4525C213.14 63.4525 214.657 63.1356 216.041 62.5637C218.273 61.5334 219.603 60.2368 219.603 58.8302Z" fill="#02BDA5"/>
<path d="M199.74 52.1451C199.879 54.9809 201.004 57.555 202.777 59.5291C204.549 57.555 205.674 54.9809 205.813 52.1451C204.828 52.0642 203.815 52.0215 202.779 52.0215C201.743 52.0215 200.726 52.0653 199.74 52.1462V52.1451Z" fill="#00AB8E"/>
<path d="M188.088 36.2243C190.252 33.8154 193.381 32.3008 196.862 32.3008C197.917 32.3008 198.94 32.4401 199.913 32.7019C199.876 26.1595 194.596 20.8687 188.089 20.8687C181.581 20.8687 176.301 26.1606 176.264 32.7019C177.238 32.4413 178.259 32.3019 179.314 32.3019C182.795 32.3019 185.924 33.8165 188.089 36.2254L188.088 36.2243Z" fill="#5FE1B7"/>
<path d="M171.264 51.4856C171.264 48.5025 177.207 45.4465 185.051 44.8004C185.042 44.6263 185.037 44.451 185.037 44.2746C179.985 42.9207 176.263 38.2838 176.263 32.7728C176.263 32.7492 176.263 32.7267 176.263 32.7031C171.211 34.0559 167.487 38.6928 167.487 44.2049C167.487 49.1643 170.501 53.4147 174.786 55.2034C172.579 54.1765 171.264 52.8878 171.264 51.4844V51.4856Z" fill="#00D6A2"/>
<path d="M185.037 44.2753C185.037 44.2517 185.037 44.2293 185.037 44.2057C185.037 41.1361 186.192 38.3373 188.087 36.2262C185.923 33.8173 182.794 32.3027 179.313 32.3027C178.258 32.3027 177.237 32.4421 176.263 32.7027C176.263 32.7263 176.263 32.7488 176.263 32.7724C176.263 38.2845 179.986 42.9203 185.038 44.2742L185.037 44.2753Z" fill="#00CF91"/>
<path d="M208.687 44.2049C208.687 38.6928 204.964 34.057 199.912 32.7031C199.912 32.7267 199.912 32.7492 199.912 32.7728C199.912 38.2849 196.189 42.9218 191.136 44.2757C191.136 44.4521 191.131 44.6274 191.123 44.8016C198.969 45.4465 204.914 48.5025 204.914 51.4867C204.914 52.8934 203.584 54.19 201.352 55.2203C205.656 53.4406 208.687 49.18 208.687 44.2061V44.2049Z" fill="#02BDA5"/>
<path d="M188.086 36.2249C189.983 38.336 191.137 41.1348 191.137 44.2043C191.137 44.2279 191.137 44.2504 191.137 44.274C196.19 42.9201 199.913 38.2843 199.913 32.7711C199.913 32.7475 199.913 32.725 199.913 32.7014C198.94 32.4407 197.917 32.3003 196.862 32.3003C193.381 32.3003 190.252 33.8148 188.088 36.2237L188.086 36.2249Z" fill="#00AB8E"/>
<path d="M185.036 44.2728C185.036 44.4492 185.041 44.6244 185.049 44.7986C186.035 44.7177 187.05 44.6739 188.087 44.6739C189.124 44.6739 190.137 44.7166 191.121 44.7975C191.13 44.6233 191.135 44.448 191.135 44.2716C190.161 44.5323 189.14 44.6716 188.085 44.6716C187.03 44.6716 186.008 44.5323 185.034 44.2705L185.036 44.2728Z" fill="#00AC8E"/>
<path d="M188.088 36.2266C186.192 38.3377 185.037 41.1365 185.037 44.206C185.037 44.2296 185.037 44.2521 185.037 44.2757C186.011 44.5364 187.033 44.6768 188.088 44.6768C189.143 44.6768 190.164 44.5375 191.138 44.2768C191.138 44.2532 191.138 44.2308 191.138 44.2072C191.138 41.1376 189.982 38.3388 188.087 36.2277L188.088 36.2266Z" fill="#00B38E"/>
<path d="M188.087 52.1828C186.314 50.2087 185.189 47.6347 185.051 44.7988C177.207 45.4437 171.264 48.4998 171.264 51.484C171.264 52.8862 172.578 54.176 174.786 55.2029C176.18 55.7849 177.709 56.1074 179.312 56.1074C182.794 56.1074 185.923 54.5928 188.087 52.1839V52.1828Z" fill="#00D6A2"/>
<path d="M204.914 51.484C204.914 48.4998 198.969 45.4437 191.123 44.7988C190.984 47.6347 189.859 50.2099 188.086 52.1828C190.251 54.5917 193.38 56.1063 196.861 56.1063C198.451 56.1063 199.968 55.7894 201.352 55.2175C203.583 54.1872 204.914 52.8907 204.914 51.484Z" fill="#02BDA5"/>
<path d="M185.053 44.7984C185.191 47.6342 186.316 50.2083 188.089 52.1824C189.861 50.2083 190.987 47.6342 191.125 44.7984C190.141 44.7175 189.127 44.6748 188.091 44.6748C187.055 44.6748 186.038 44.7186 185.053 44.7995V44.7984Z" fill="#00AB8E"/>
<path d="M165.795 43.5695C167.959 41.1606 171.088 39.646 174.57 39.646C175.625 39.646 176.647 39.7853 177.62 40.0471C177.584 33.5047 172.304 28.2139 165.796 28.2139C159.289 28.2139 154.009 33.5058 153.972 40.0471C154.945 39.7865 155.967 39.6471 157.021 39.6471C160.503 39.6471 163.632 41.1617 165.796 43.5706L165.795 43.5695Z" fill="#5FE1B7"/>
<path d="M186.394 51.5497C186.394 46.0375 182.671 41.4017 177.619 40.0479C177.619 40.0714 177.619 40.0939 177.619 40.1175C177.619 45.6297 173.896 50.2666 168.843 51.6205C168.843 51.7969 168.838 51.9721 168.83 52.1463C176.676 52.7912 182.621 55.8473 182.621 58.8314C182.621 60.2381 181.291 61.5347 179.059 62.565C183.363 60.7853 186.394 56.5248 186.394 51.5508V51.5497Z" fill="#02BDA5"/>
<path d="M165.792 43.5681C167.689 45.6793 168.843 48.4781 168.843 51.5476C168.843 51.5712 168.843 51.5937 168.843 51.6173C173.896 50.2634 177.619 45.6276 177.619 40.1143C177.619 40.0907 177.619 40.0683 177.619 40.0447C176.646 39.784 175.623 39.6436 174.568 39.6436C171.087 39.6436 167.958 41.1581 165.794 43.567L165.792 43.5681Z" fill="#00AB8E"/>
<path d="M182.62 58.8302C182.62 55.846 176.675 52.7899 168.829 52.145C168.69 54.9809 167.565 57.5561 165.792 59.529C167.957 61.9379 171.086 63.4525 174.567 63.4525C176.157 63.4525 177.674 63.1356 179.058 62.5637C181.289 61.5334 182.62 60.2368 182.62 58.8302Z" fill="#02BDA5"/>
<g opacity="0.8">
<path d="M202.413 22.4235C204.578 20.0146 207.707 18.5 211.188 18.5C212.243 18.5 213.266 18.6393 214.239 18.9011C214.202 12.3587 208.922 7.06787 202.415 7.06787C195.907 7.06787 190.627 12.3598 190.59 18.9011C191.564 18.6405 192.585 18.5012 193.64 18.5012C197.121 18.5012 200.25 20.0157 202.415 22.4246L202.413 22.4235Z" fill="#5FE1B7"/>
<path d="M185.591 37.6833C185.591 34.7003 191.534 31.6442 199.378 30.9982C199.369 30.824 199.365 30.6488 199.365 30.4724C194.312 29.1185 190.59 24.4816 190.59 18.9705C190.59 18.9469 190.59 18.9245 190.59 18.9009C185.538 20.2536 181.814 24.8905 181.814 30.4027C181.814 35.3621 184.828 39.6125 189.113 41.4012C186.906 40.3742 185.591 39.0855 185.591 37.6822V37.6833Z" fill="#00D6A2"/>
<path d="M199.364 30.4716C199.364 30.448 199.364 30.4255 199.364 30.4019C199.364 27.3324 200.519 24.5336 202.415 22.4225C200.25 20.0136 197.121 18.499 193.64 18.499C192.585 18.499 191.564 18.6383 190.59 18.899C190.59 18.9226 190.59 18.9451 190.59 18.9687C190.59 24.4808 194.313 29.1166 199.365 30.4705L199.364 30.4716Z" fill="#00CF91"/>
<path d="M223.014 30.4027C223.014 24.8905 219.292 20.2548 214.24 18.9009C214.24 18.9245 214.24 18.9469 214.24 18.9705C214.24 24.4827 210.516 29.1196 205.464 30.4735C205.464 30.6499 205.458 30.8252 205.45 30.9993C213.296 31.6442 219.242 34.7003 219.242 37.6845C219.242 39.0911 217.911 40.3877 215.68 41.418C219.984 39.6383 223.014 35.3778 223.014 30.4038V30.4027Z" fill="#02BDA5"/>
<path d="M202.414 22.4226C204.31 24.5338 205.464 27.3325 205.464 30.4021C205.464 30.4257 205.464 30.4482 205.464 30.4718C210.517 29.1179 214.24 24.4821 214.24 18.9688C214.24 18.9452 214.24 18.9227 214.24 18.8992C213.267 18.6385 212.244 18.498 211.189 18.498C207.708 18.498 204.579 20.0126 202.415 22.4215L202.414 22.4226Z" fill="#00AB8E"/>
<path d="M199.363 30.472C199.363 30.6484 199.368 30.8236 199.376 30.9978C200.362 30.9169 201.377 30.8731 202.414 30.8731C203.451 30.8731 204.464 30.9158 205.448 30.9967C205.457 30.8225 205.462 30.6472 205.462 30.4709C204.488 30.7315 203.467 30.8708 202.412 30.8708C201.357 30.8708 200.335 30.7315 199.362 30.4697L199.363 30.472Z" fill="#00AC8E"/>
<path d="M202.412 22.4229C200.516 24.534 199.362 27.3328 199.362 30.4023C199.362 30.4259 199.362 30.4484 199.362 30.472C200.335 30.7327 201.357 30.8731 202.412 30.8731C203.467 30.8731 204.488 30.7338 205.462 30.4731C205.462 30.4495 205.462 30.427 205.462 30.4035C205.462 27.3339 204.306 24.5351 202.411 22.424L202.412 22.4229Z" fill="#00B38E"/>
<path d="M202.413 38.382C200.641 36.408 199.515 33.8339 199.377 30.998C191.533 31.643 185.59 34.699 185.59 37.6832C185.59 39.0854 186.904 40.3752 189.112 41.4022C190.506 41.9842 192.035 42.3066 193.638 42.3066C197.12 42.3066 200.249 40.7921 202.413 38.3832V38.382Z" fill="#00D6A2"/>
<path d="M219.242 37.6832C219.242 34.699 213.297 31.643 205.451 30.998C205.313 33.8339 204.188 36.4091 202.415 38.382C204.579 40.7909 207.708 42.3055 211.19 42.3055C212.779 42.3055 214.296 41.9886 215.68 41.4168C217.912 40.3865 219.242 39.0899 219.242 37.6832Z" fill="#02BDA5"/>
<path d="M199.378 30.9976C199.517 33.8335 200.642 36.4075 202.414 38.3816C204.187 36.4075 205.312 33.8335 205.45 30.9976C204.466 30.9167 203.452 30.874 202.417 30.874C201.381 30.874 200.364 30.9178 199.378 30.9987V30.9976Z" fill="#00AB8E"/>
</g>
</g>
<path opacity="0.8" fill-rule="evenodd" clip-rule="evenodd" d="M194.772 25.8227C195.739 24.8857 196.931 24.3431 198.154 24.3999C199.379 24.4568 200.419 25.1037 201.136 26.1198C200.169 27.0568 198.978 27.5994 197.754 27.5426C196.529 27.4858 195.489 26.8389 194.772 25.8227Z" fill="#DFF3EF"/>
<path opacity="0.8" fill-rule="evenodd" clip-rule="evenodd" d="M196.464 26.1002C195.498 27.0371 194.306 27.5797 193.082 27.5229C191.857 27.4661 190.817 26.8192 190.101 25.803C191.067 24.866 192.259 24.3234 193.483 24.3802C194.707 24.4371 195.748 25.084 196.464 26.1002Z" fill="#DFF3EF"/>
<path opacity="0.8" fill-rule="evenodd" clip-rule="evenodd" d="M195.758 25.1165C196.694 26.0831 197.237 27.2747 197.18 28.4986C197.123 29.7233 196.476 30.7635 195.46 31.4803C194.523 30.5137 193.981 29.3221 194.038 28.0982C194.095 26.8735 194.741 25.8333 195.758 25.1165Z" fill="#DFF3EF"/>
<path opacity="0.8" fill-rule="evenodd" clip-rule="evenodd" d="M195.479 26.8032C194.542 25.8366 194 24.6449 194.057 23.4211C194.113 22.1965 194.76 21.1565 195.776 20.4396C196.713 21.4062 197.255 22.5979 197.199 23.8217C197.142 25.0463 196.495 26.0863 195.479 26.8032Z" fill="#DFF3EF"/>
<path opacity="0.8" fill-rule="evenodd" clip-rule="evenodd" d="M195.104 25.6313C196.45 25.6523 197.676 26.1113 198.502 27.0168C199.327 27.9228 199.605 29.1154 199.394 30.3405C198.048 30.3196 196.822 29.8605 195.997 28.955C195.171 28.049 194.893 26.8564 195.104 25.6313Z" fill="#DFF3EF"/>
<path opacity="0.8" fill-rule="evenodd" clip-rule="evenodd" d="M196.105 27.0175C194.759 26.9964 193.533 26.5374 192.708 25.6319C191.882 24.7257 191.604 23.5327 191.816 22.3072C193.161 22.3283 194.387 22.7873 195.212 23.6927C196.038 24.5989 196.316 25.792 196.105 27.0175Z" fill="#DFF3EF"/>
<path opacity="0.8" fill-rule="evenodd" clip-rule="evenodd" d="M196.3 25.8272C196.278 27.1729 195.819 28.399 194.914 29.2241C194.008 30.0499 192.815 30.328 191.589 30.1163C191.61 28.7706 192.07 27.5445 192.975 26.7194C193.881 25.8936 195.074 25.6155 196.3 25.8272Z" fill="#DFF3EF"/>
<path opacity="0.8" fill-rule="evenodd" clip-rule="evenodd" d="M194.911 26.8251C194.932 25.4794 195.391 24.2533 196.297 23.4282C197.203 22.6024 198.396 22.3243 199.621 22.536C199.6 23.8817 199.141 25.1078 198.236 25.9329C197.33 26.7587 196.137 27.0368 194.911 26.8251Z" fill="#DFF3EF"/>
<path opacity="0.8" fill-rule="evenodd" clip-rule="evenodd" d="M179.882 42.6728C180.848 41.7358 182.04 41.1932 183.264 41.25C184.489 41.3069 185.529 41.9538 186.246 42.9699C185.279 43.9069 184.087 44.4495 182.863 44.3927C181.639 44.3359 180.599 43.689 179.882 42.6728Z" fill="#DFF3EF"/>
<path opacity="0.8" fill-rule="evenodd" clip-rule="evenodd" d="M181.574 42.9502C180.607 43.8872 179.416 44.4298 178.192 44.373C176.967 44.3162 175.927 43.6693 175.21 42.6531C176.177 41.7161 177.368 41.1735 178.592 41.2303C179.817 41.2872 180.857 41.9341 181.574 42.9502Z" fill="#DFF3EF"/>
<path opacity="0.8" fill-rule="evenodd" clip-rule="evenodd" d="M180.867 41.9661C181.804 42.9327 182.346 44.1244 182.289 45.3482C182.233 46.5729 181.586 47.6131 180.57 48.3299C179.633 47.3633 179.09 46.1717 179.147 44.9478C179.204 43.7231 179.851 42.683 180.867 41.9661Z" fill="#DFF3EF"/>
<path opacity="0.8" fill-rule="evenodd" clip-rule="evenodd" d="M180.589 43.6533C179.652 42.6867 179.109 41.495 179.166 40.2712C179.223 39.0466 179.87 38.0066 180.886 37.2897C181.823 38.2563 182.365 39.448 182.308 40.6718C182.251 41.8964 181.605 42.9364 180.589 43.6533Z" fill="#DFF3EF"/>
<path opacity="0.8" fill-rule="evenodd" clip-rule="evenodd" d="M180.214 42.4809C181.56 42.5019 182.786 42.9609 183.612 43.8664C184.437 44.7724 184.715 45.965 184.504 47.1902C183.158 47.1692 181.932 46.7101 181.106 45.8046C180.281 44.8986 180.003 43.706 180.214 42.4809Z" fill="#DFF3EF"/>
<path opacity="0.8" fill-rule="evenodd" clip-rule="evenodd" d="M181.214 43.8676C179.868 43.8465 178.642 43.3874 177.817 42.482C176.991 41.5758 176.713 40.3828 176.925 39.1573C178.271 39.1784 179.497 39.6374 180.322 40.5428C181.148 41.449 181.426 42.6421 181.214 43.8676Z" fill="#DFF3EF"/>
<path opacity="0.8" fill-rule="evenodd" clip-rule="evenodd" d="M181.409 42.6773C181.388 44.023 180.929 45.2491 180.024 46.0742C179.117 46.9 177.924 47.1781 176.699 46.9664C176.72 45.6207 177.179 44.3946 178.085 43.5695C178.991 42.7437 180.184 42.4656 181.409 42.6773Z" fill="#DFF3EF"/>
<path opacity="0.8" fill-rule="evenodd" clip-rule="evenodd" d="M180.021 43.6747C180.042 42.329 180.501 41.103 181.407 40.2778C182.313 39.452 183.506 39.1739 184.731 39.3856C184.71 40.7313 184.251 41.9574 183.346 42.7825C182.44 43.6083 181.247 43.8864 180.021 43.6747Z" fill="#DFF3EF"/>
<path opacity="0.8" fill-rule="evenodd" clip-rule="evenodd" d="M204.491 46.1801C205.458 45.2431 206.65 44.7005 207.873 44.7573C209.098 44.8142 210.138 45.4611 210.855 46.4773C209.888 47.4142 208.697 47.9568 207.473 47.9C206.248 47.8432 205.208 47.1963 204.491 46.1801Z" fill="#DFF3EF"/>
<path opacity="0.8" fill-rule="evenodd" clip-rule="evenodd" d="M206.184 46.4576C205.217 47.3946 204.025 47.9372 202.801 47.8804C201.577 47.8235 200.537 47.1766 199.82 46.1604C200.786 45.2235 201.978 44.6808 203.202 44.7377C204.427 44.7945 205.467 45.4414 206.184 46.4576Z" fill="#DFF3EF"/>
<path opacity="0.8" fill-rule="evenodd" clip-rule="evenodd" d="M205.477 45.4735C206.413 46.44 206.956 47.6317 206.899 48.8555C206.842 50.0802 206.195 51.1204 205.179 51.8372C204.242 50.8707 203.7 49.679 203.757 48.4552C203.814 47.2305 204.46 46.1903 205.477 45.4735Z" fill="#DFF3EF"/>
<path opacity="0.8" fill-rule="evenodd" clip-rule="evenodd" d="M205.199 47.1606C204.262 46.194 203.719 45.0023 203.776 43.7785C203.833 42.5539 204.48 41.5139 205.496 40.7971C206.432 41.7636 206.975 42.9553 206.918 44.1792C206.861 45.4037 206.215 46.4438 205.199 47.1606Z" fill="#DFF3EF"/>
<path opacity="0.8" fill-rule="evenodd" clip-rule="evenodd" d="M204.823 45.9892C206.169 46.0102 207.395 46.4692 208.221 47.3747C209.046 48.2807 209.324 49.4733 209.113 50.6985C207.767 50.6775 206.541 50.2184 205.716 49.3129C204.89 48.4069 204.612 47.2143 204.823 45.9892Z" fill="#DFF3EF"/>
<path opacity="0.8" fill-rule="evenodd" clip-rule="evenodd" d="M205.823 47.3754C204.478 47.3543 203.252 46.8953 202.426 45.9898C201.601 45.0836 201.323 43.8906 201.534 42.6651C202.88 42.6862 204.106 43.1452 204.931 44.0506C205.757 44.9569 206.035 46.1499 205.823 47.3754Z" fill="#DFF3EF"/>
<path opacity="0.8" fill-rule="evenodd" clip-rule="evenodd" d="M206.018 46.1856C205.997 47.5313 205.538 48.7574 204.633 49.5825C203.727 50.4083 202.534 50.6864 201.308 50.4747C201.329 49.129 201.788 47.9029 202.694 47.0778C203.6 46.252 204.793 45.9739 206.018 46.1856Z" fill="#DFF3EF"/>
<path opacity="0.8" fill-rule="evenodd" clip-rule="evenodd" d="M204.63 47.182C204.652 45.8364 205.111 44.6103 206.016 43.7852C206.922 42.9593 208.115 42.6813 209.341 42.893C209.319 44.2387 208.86 45.4647 207.955 46.2899C207.049 47.1157 205.856 47.3937 204.63 47.182Z" fill="#DFF3EF"/>
</g>
<g clip-path="url(#clip2_278_26188)">
<mask id="mask6_278_26188" style="mask-type:alpha" maskUnits="userSpaceOnUse" x="251" y="34" width="10" height="40">
<path d="M254.889 34.8022H258.007L260.564 73.8723H251.889L254.889 34.8022Z" fill="#D7953B"/>
</mask>
<g mask="url(#mask6_278_26188)">
<ellipse opacity="0.4" cx="252.763" cy="71.2485" rx="4.65738" ry="4.81389" fill="#D9A45C"/>
<path opacity="0.8" d="M254.886 34.8022H258.003L260.56 73.8723H251.885L254.886 34.8022Z" fill="#D7953B"/>
<rect opacity="0.8" x="254.829" y="47.3765" width="6.51368" height="27.2037" fill="#D7953B"/>
<rect x="256.223" y="46.874" width="6.51368" height="27.2037" fill="#D7953B"/>
<rect opacity="0.8" x="257.455" y="46.8726" width="7.22343" height="27.2037" fill="#C48734"/>
<ellipse opacity="0.5" cx="250.59" cy="60.8405" rx="6.02617" ry="6.22869" fill="#C38734"/>
<ellipse opacity="0.5" cx="250.59" cy="60.8405" rx="5.07336" ry="5.24385" fill="#C38734"/>
<ellipse opacity="0.5" cx="255.319" cy="72.0595" rx="4.05605" ry="4.19236" fill="#C38734"/>
<ellipse opacity="0.5" cx="260.88" cy="75.5141" rx="4.65738" ry="4.81389" fill="#C38734"/>
<ellipse opacity="0.5" cx="256.227" cy="50.1113" rx="4.65738" ry="4.81389" fill="#C38734"/>
<ellipse opacity="0.9" cx="257.58" cy="47.8066" rx="4.65738" ry="4.81389" fill="#C38734"/>
<ellipse opacity="0.8" cx="260.161" cy="77.0165" rx="4.65738" ry="4.81389" fill="#D9A45C"/>
<ellipse opacity="0.8" cx="260.194" cy="76.9262" rx="4.65738" ry="4.81389" fill="#C38734"/>
<ellipse opacity="0.3" cx="259.502" cy="70.2797" rx="4.65738" ry="4.81389" fill="#8B5D1D"/>
<ellipse opacity="0.3" cx="260.564" cy="72.5887" rx="4.03178" ry="4.16727" fill="#8B5D1D"/>
<ellipse opacity="0.3" cx="261.788" cy="73.8719" rx="4.03178" ry="4.16727" fill="#8B5D1D"/>
<ellipse opacity="0.3" cx="257.616" cy="52.5225" rx="2.94785" ry="3.04692" fill="#8B5D1D"/>
<ellipse opacity="0.3" cx="258.158" cy="55.6824" rx="3.44695" ry="3.56279" fill="#8B5D1D"/>
<ellipse opacity="0.3" cx="258.85" cy="55.6962" rx="2.62699" ry="2.71528" fill="#8B5D1D"/>
<ellipse opacity="0.3" cx="260.18" cy="55.6948" rx="2.62699" ry="2.71528" fill="#8B5D1D"/>
<ellipse opacity="0.4" cx="258.311" cy="47.0283" rx="4.65738" ry="4.81389" fill="#8B5D1D"/>
<ellipse opacity="0.6" cx="249.032" cy="60.7328" rx="4.65738" ry="4.81389" fill="#D9A45C"/>
<ellipse opacity="0.3" cx="263.646" cy="74.9648" rx="4.65738" ry="4.81389" fill="#D9A45C"/>
<ellipse opacity="0.3" cx="262.664" cy="58.433" rx="4.65738" ry="4.81389" fill="#D9A45C"/>
</g>
<mask id="mask7_278_26188" style="mask-type:alpha" maskUnits="userSpaceOnUse" x="231" y="8" width="50" height="46">
<path d="M256.108 28.228C258.659 25.1833 262.346 23.269 266.45 23.269C267.693 23.269 268.898 23.4451 270.045 23.7759C270.002 15.5066 263.779 8.81934 256.109 8.81934C248.439 8.81934 242.216 15.5081 242.172 23.7759C243.32 23.4465 244.523 23.2704 245.767 23.2704C249.87 23.2704 253.558 25.1847 256.109 28.2294L256.108 28.228Z" fill="#5FE1B7"/>
<path d="M236.279 47.5169C236.279 43.7465 243.283 39.8838 252.528 39.0672C252.518 38.8471 252.513 38.6255 252.513 38.4026C246.558 36.6913 242.17 30.8305 242.17 23.8649C242.17 23.8351 242.17 23.8067 242.17 23.7769C236.216 25.4867 231.827 31.3475 231.827 38.3145C231.827 44.5829 235.379 49.9552 240.43 52.216C237.829 50.918 236.279 49.2892 236.279 47.5154V47.5169Z" fill="#00D6A2"/>
<path d="M252.512 38.4013C252.512 38.3714 252.512 38.343 252.512 38.3132C252.512 34.4335 253.873 30.896 256.107 28.2276C253.556 25.1829 249.868 23.2686 245.765 23.2686C244.522 23.2686 243.318 23.4446 242.171 23.7741C242.171 23.8039 242.171 23.8323 242.171 23.8622C242.171 30.8292 246.558 36.6886 252.513 38.3998L252.512 38.4013Z" fill="#00CF91"/>
<path d="M280.387 38.3145C280.387 31.3475 275.999 25.4881 270.045 23.7769C270.045 23.8067 270.045 23.8351 270.045 23.8649C270.045 30.832 265.656 36.6928 259.701 38.404C259.701 38.627 259.695 38.8485 259.685 39.0686C268.933 39.8838 275.94 43.7465 275.94 47.5183C275.94 49.2963 274.372 50.9351 271.742 52.2373C276.815 49.9879 280.387 44.6028 280.387 38.316V38.3145Z" fill="#02BDA5"/>
<path d="M256.107 28.2275C258.342 30.8959 259.702 34.4334 259.702 38.3132C259.702 38.343 259.702 38.3714 259.702 38.4012C265.658 36.69 270.046 30.8306 270.046 23.8621C270.046 23.8323 270.046 23.8039 270.046 23.7741C268.899 23.4446 267.693 23.2671 266.45 23.2671C262.347 23.2671 258.659 25.1814 256.108 28.2261L256.107 28.2275Z" fill="#00AB8E"/>
<path d="M252.51 38.4023C252.51 38.6252 252.516 38.8468 252.525 39.0669C253.687 38.9646 254.884 38.9092 256.107 38.9092C257.329 38.9092 258.522 38.9632 259.682 39.0654C259.693 38.8453 259.698 38.6238 259.698 38.4008C258.551 38.7303 257.347 38.9064 256.104 38.9064C254.861 38.9064 253.656 38.7303 252.508 38.3994L252.51 38.4023Z" fill="#00AC8E"/>
<path d="M256.107 28.2285C253.872 30.8969 252.511 34.4344 252.511 38.3141C252.511 38.344 252.511 38.3724 252.511 38.4022C253.659 38.7317 254.864 38.9092 256.107 38.9092C257.35 38.9092 258.554 38.7331 259.701 38.4036C259.701 38.3738 259.701 38.3454 259.701 38.3156C259.701 34.4358 258.34 30.8983 256.106 28.2299L256.107 28.2285Z" fill="#00B38E"/>
<path d="M256.106 48.3994C254.017 45.9042 252.691 42.6508 252.528 39.0664C243.283 39.8815 236.279 43.7443 236.279 47.5161C236.279 49.2884 237.827 50.9187 240.429 52.2166C242.073 52.9523 243.875 53.3598 245.764 53.3598C249.868 53.3598 253.555 51.4455 256.106 48.4008V48.3994Z" fill="#00D6A2"/>
<path d="M275.94 47.5161C275.94 43.7443 268.933 39.8815 259.685 39.0664C259.522 42.6508 258.196 45.9057 256.107 48.3994C258.658 51.4441 262.345 53.3584 266.449 53.3584C268.322 53.3584 270.11 52.9579 271.742 52.2351C274.372 50.9329 275.94 49.294 275.94 47.5161Z" fill="#02BDA5"/>
<path d="M252.527 39.0673C252.69 42.6517 254.017 45.9052 256.106 48.4003C258.195 45.9052 259.521 42.6517 259.684 39.0673C258.524 38.9651 257.329 38.9111 256.108 38.9111C254.888 38.9111 253.689 38.9665 252.527 39.0688V39.0673Z" fill="#00AB8E"/>
</mask>
<g mask="url(#mask7_278_26188)">
<path d="M266.448 37.5127C268.999 34.4679 272.687 32.5536 276.791 32.5536C278.034 32.5536 279.239 32.7297 280.386 33.0606C280.343 24.7913 274.12 18.104 266.45 18.104C258.78 18.104 252.557 24.7927 252.513 33.0606C253.66 32.7312 254.864 32.5551 256.107 32.5551C260.211 32.5551 263.899 34.4694 266.45 37.5141L266.448 37.5127Z" fill="#5FE1B7"/>
<path d="M246.62 56.8015C246.62 53.0311 253.624 49.1684 262.869 48.3519C262.858 48.1317 262.853 47.9102 262.853 47.6872C256.899 45.976 252.511 40.1152 252.511 33.1496C252.511 33.1197 252.511 33.0913 252.511 33.0615C246.556 34.7713 242.167 40.6321 242.167 47.5992C242.167 53.8676 245.72 59.2399 250.77 61.5007C248.169 60.2027 246.62 58.5738 246.62 56.8001V56.8015Z" fill="#00D6A2"/>
<path d="M262.852 47.6879C262.852 47.6581 262.852 47.6297 262.852 47.5998C262.852 43.7201 264.214 40.1826 266.448 37.5142C263.897 34.4695 260.209 32.5552 256.106 32.5552C254.863 32.5552 253.659 32.7313 252.511 33.0607C252.511 33.0906 252.511 33.119 252.511 33.1488C252.511 40.1158 256.899 45.9752 262.854 47.6865L262.852 47.6879Z" fill="#00CF91"/>
<path d="M290.728 47.5992C290.728 40.6321 286.34 34.7728 280.385 33.0615C280.385 33.0913 280.385 33.1197 280.385 33.1496C280.385 40.1166 275.996 45.9774 270.042 47.6887C270.042 47.9116 270.035 48.1332 270.026 48.3533C279.274 49.1684 286.281 53.0311 286.281 56.8029C286.281 58.5809 284.713 60.2197 282.083 61.522C287.156 59.2725 290.728 53.8875 290.728 47.6006V47.5992Z" fill="#02BDA5"/>
<path d="M266.448 37.5122C268.683 40.1806 270.043 43.7181 270.043 47.5978C270.043 47.6277 270.043 47.6561 270.043 47.6859C275.999 45.9747 280.387 40.1153 280.387 33.1468C280.387 33.117 280.387 33.0886 280.387 33.0587C279.239 32.7293 278.034 32.5518 276.791 32.5518C272.688 32.5518 269 34.4661 266.449 37.5108L266.448 37.5122Z" fill="#00AB8E"/>
<path d="M262.852 47.6869C262.852 47.9099 262.859 48.1314 262.868 48.3515C264.03 48.2493 265.227 48.1939 266.449 48.1939C267.671 48.1939 268.865 48.2479 270.025 48.3501C270.035 48.13 270.041 47.9085 270.041 47.6855C268.894 48.015 267.69 48.1911 266.446 48.1911C265.203 48.1911 263.998 48.015 262.851 47.6841L262.852 47.6869Z" fill="#00AC8E"/>
<path d="M266.448 37.5132C264.213 40.1816 262.852 43.7191 262.852 47.5988C262.852 47.6286 262.852 47.657 262.852 47.6869C264 48.0163 265.205 48.1938 266.448 48.1938C267.691 48.1938 268.895 48.0177 270.042 47.6883C270.042 47.6585 270.042 47.6301 270.042 47.6002C270.042 43.7205 268.681 40.183 266.447 37.5146L266.448 37.5132Z" fill="#00B38E"/>
<path d="M266.447 57.684C264.358 55.1889 263.032 51.9354 262.869 48.3511C253.624 49.1662 246.619 53.0289 246.619 56.8007C246.619 58.573 248.168 60.2033 250.77 61.5013C252.413 62.2369 254.216 62.6445 256.105 62.6445C260.209 62.6445 263.896 60.7302 266.447 57.6855V57.684Z" fill="#00D6A2"/>
<path d="M286.281 56.8007C286.281 53.0289 279.274 49.1662 270.026 48.3511C269.863 51.9354 268.537 55.1903 266.448 57.684C268.999 60.7288 272.686 62.6431 276.79 62.6431C278.663 62.6431 280.451 62.2426 282.082 61.5198C284.712 60.2175 286.281 58.5787 286.281 56.8007Z" fill="#02BDA5"/>
<path d="M261.526 46.0864C261.745 50.8931 263.523 55.2561 266.325 58.6021C269.127 55.2561 270.905 50.8931 271.124 46.0864C269.568 45.9493 267.966 45.877 266.329 45.877C264.691 45.877 263.084 45.9512 261.526 46.0883V46.0864Z" fill="#00AB8E"/>
<ellipse opacity="0.7" cx="270.812" cy="25.4896" rx="6.73822" ry="6.96466" fill="#00997D"/>
<path d="M249.137 28.228C251.688 25.1833 255.375 23.269 259.479 23.269C260.722 23.269 261.927 23.4451 263.074 23.7759C263.031 15.5066 256.808 8.81934 249.138 8.81934C241.468 8.81934 235.245 15.5081 235.201 23.7759C236.349 23.4465 237.552 23.2704 238.796 23.2704C242.899 23.2704 246.587 25.1847 249.138 28.2294L249.137 28.228Z" fill="#5FE1B7"/>
<path d="M229.31 47.5169C229.31 43.7465 236.314 39.8838 245.559 39.0672C245.549 38.8471 245.543 38.6255 245.543 38.4026C239.589 36.6913 235.201 30.8305 235.201 23.8649C235.201 23.8351 235.201 23.8067 235.201 23.7769C229.247 25.4867 224.858 31.3475 224.858 38.3145C224.858 44.5829 228.41 49.9552 233.461 52.216C230.86 50.918 229.31 49.2892 229.31 47.5154V47.5169Z" fill="#00D6A2"/>
<path d="M245.541 38.4013C245.541 38.3714 245.541 38.343 245.541 38.3132C245.541 34.4335 246.902 30.896 249.136 28.2276C246.585 25.1829 242.898 23.2686 238.794 23.2686C237.551 23.2686 236.347 23.4446 235.2 23.7741C235.2 23.8039 235.2 23.8323 235.2 23.8622C235.2 30.8292 239.588 36.6886 245.542 38.3998L245.541 38.4013Z" fill="#00CF91"/>
<path d="M273.418 38.3145C273.418 31.3475 269.03 25.4881 263.075 23.7769C263.075 23.8067 263.075 23.8351 263.075 23.8649C263.075 30.832 258.686 36.6928 252.732 38.404C252.732 38.627 252.725 38.8485 252.716 39.0686C261.964 39.8838 268.971 43.7465 268.971 47.5183C268.971 49.2963 267.402 50.9351 264.773 52.2373C269.846 49.9879 273.418 44.6028 273.418 38.316V38.3145Z" fill="#02BDA5"/>
<path d="M249.138 28.2275C251.373 30.8959 252.734 34.4334 252.734 38.3132C252.734 38.343 252.734 38.3714 252.734 38.4012C258.689 36.69 263.077 30.8306 263.077 23.8621C263.077 23.8323 263.077 23.8039 263.077 23.7741C261.93 23.4446 260.725 23.2671 259.481 23.2671C255.378 23.2671 251.69 25.1814 249.139 28.2261L249.138 28.2275Z" fill="#00AB8E"/>
<path d="M245.542 38.4023C245.542 38.6252 245.548 38.8468 245.558 39.0669C246.719 38.9646 247.917 38.9092 249.139 38.9092C250.361 38.9092 251.554 38.9632 252.715 39.0654C252.725 38.8453 252.73 38.6238 252.73 38.4008C251.583 38.7303 250.379 38.9064 249.136 38.9064C247.893 38.9064 246.688 38.7303 245.541 38.3994L245.542 38.4023Z" fill="#00AC8E"/>
<path d="M249.138 28.23C246.903 30.8984 245.542 34.4359 245.542 38.3156C245.542 38.3454 245.542 38.3738 245.542 38.4037C246.689 38.7331 247.895 38.9106 249.138 38.9106C250.381 38.9106 251.585 38.7345 252.732 38.4051C252.732 38.3753 252.732 38.3469 252.732 38.317C252.732 34.4373 251.37 30.8998 249.137 28.2314L249.138 28.23Z" fill="#00B38E"/>
<path d="M249.137 48.4008C247.048 45.9057 245.722 42.6522 245.558 39.0679C236.314 39.883 229.309 43.7457 229.309 47.5175C229.309 49.2898 230.858 50.9201 233.46 52.2181C235.103 52.9537 236.906 53.3613 238.795 53.3613C242.898 53.3613 246.586 51.447 249.137 48.4023V48.4008Z" fill="#00D6A2"/>
<path d="M268.971 47.518C268.971 43.7462 261.964 39.8835 252.716 39.0684C252.553 42.6527 251.227 45.9076 249.138 48.4013C251.689 51.446 255.377 53.3604 259.48 53.3604C261.354 53.3604 263.142 52.9599 264.773 52.237C267.403 50.9348 268.971 49.296 268.971 47.518Z" fill="#02BDA5"/>
<path d="M245.558 39.0673C245.721 42.6517 247.047 45.9052 249.137 48.4003C251.226 45.9052 252.552 42.6517 252.715 39.0673C251.555 38.9651 250.36 38.9111 249.139 38.9111C247.918 38.9111 246.72 38.9665 245.558 39.0688V39.0673Z" fill="#00AB8E"/>
<path d="M222.863 37.5112C225.414 34.4665 229.102 32.5522 233.206 32.5522C234.449 32.5522 235.654 32.7283 236.801 33.0592C236.758 24.7898 230.535 18.1025 222.865 18.1025C215.195 18.1025 208.972 24.7913 208.928 33.0592C210.075 32.7297 211.279 32.5536 212.523 32.5536C216.626 32.5536 220.314 34.4679 222.865 37.5126L222.863 37.5112Z" fill="#5FE1B7"/>
<path d="M247.143 47.5977C247.143 40.6307 242.755 34.7713 236.8 33.0601C236.8 33.0899 236.8 33.1183 236.8 33.1481C236.8 40.1152 232.411 45.976 226.457 47.6872C226.457 47.9102 226.45 48.1317 226.441 48.3518C235.689 49.167 242.696 53.0297 242.696 56.8015C242.696 58.5795 241.128 60.2183 238.498 61.5205C243.571 59.2711 247.143 53.886 247.143 47.5992V47.5977Z" fill="#02BDA5"/>
<path d="M222.863 37.5107C225.098 40.1791 226.458 43.7166 226.458 47.5964C226.458 47.6262 226.458 47.6546 226.458 47.6844C232.414 45.9732 236.802 40.1138 236.802 33.1453C236.802 33.1155 236.802 33.0871 236.802 33.0573C235.654 32.7278 234.449 32.5503 233.206 32.5503C229.103 32.5503 225.415 34.4646 222.864 37.5093L222.863 37.5107Z" fill="#00AB8E"/>
<path d="M242.696 56.8002C242.696 53.0284 235.689 49.1657 226.441 48.3506C226.278 51.9349 224.952 55.1898 222.863 57.6836C225.414 60.7283 229.101 62.6426 233.205 62.6426C235.078 62.6426 236.866 62.2421 238.498 61.5193C241.127 60.217 242.696 58.5782 242.696 56.8002Z" fill="#02BDA5"/>
<g opacity="0.8">
<path d="M266.024 10.955C268.575 7.91033 272.263 5.99602 276.366 5.99602C277.609 5.99602 278.815 6.17211 279.962 6.503C279.918 -1.76631 273.695 -8.45361 266.025 -8.45361C258.355 -8.45361 252.132 -1.76489 252.089 6.503C253.236 6.17353 254.44 5.99744 255.683 5.99744C259.787 5.99744 263.474 7.91175 266.025 10.9565L266.024 10.955Z" fill="#5FE1B7"/>
<path d="M246.196 30.2424C246.196 26.472 253.2 22.6093 262.445 21.7928C262.434 21.5727 262.429 21.3511 262.429 21.1282C256.475 19.4169 252.087 13.5561 252.087 6.59049C252.087 6.56067 252.087 6.53226 252.087 6.50244C246.132 8.21226 241.743 14.0731 241.743 21.0401C241.743 27.3085 245.296 32.6808 250.346 34.9416C247.745 33.6436 246.196 32.0147 246.196 30.241V30.2424Z" fill="#00D6A2"/>
<path d="M262.428 21.1283C262.428 21.0985 262.428 21.0701 262.428 21.0403C262.428 17.1605 263.79 13.623 266.024 10.9546C263.473 7.90991 259.785 5.99561 255.681 5.99561C254.438 5.99561 253.234 6.1717 252.087 6.50116C252.087 6.53099 252.087 6.55939 252.087 6.58921C252.087 13.5563 256.475 19.4157 262.429 21.1269L262.428 21.1283Z" fill="#00CF91"/>
<path d="M290.303 21.0401C290.303 14.0731 285.916 8.21368 279.961 6.50244C279.961 6.53226 279.961 6.56067 279.961 6.59049C279.961 13.5576 275.572 19.4184 269.618 21.1296C269.618 21.3525 269.611 21.5741 269.602 21.7942C278.849 22.6093 285.856 26.472 285.856 30.2439C285.856 32.0218 284.288 33.6607 281.658 34.9629C286.731 32.7134 290.303 27.3284 290.303 21.0415V21.0401Z" fill="#02BDA5"/>
<path d="M266.023 10.9546C268.258 13.623 269.619 17.1605 269.619 21.0402C269.619 21.07 269.619 21.0984 269.619 21.1283C275.575 19.417 279.962 13.5577 279.962 6.58917C279.962 6.55935 279.962 6.53094 279.962 6.50112C278.815 6.17165 277.61 5.99414 276.367 5.99414C272.263 5.99414 268.576 7.90845 266.025 10.9532L266.023 10.9546Z" fill="#00AB8E"/>
<path d="M262.426 21.1293C262.426 21.3523 262.433 21.5738 262.442 21.7939C263.604 21.6917 264.801 21.6363 266.023 21.6363C267.245 21.6363 268.439 21.6902 269.599 21.7925C269.609 21.5724 269.615 21.3508 269.615 21.1279C268.468 21.4574 267.264 21.6334 266.02 21.6334C264.777 21.6334 263.572 21.4574 262.425 21.1265L262.426 21.1293Z" fill="#00AC8E"/>
<path d="M266.024 10.9556C263.788 13.624 262.428 17.1615 262.428 21.0412C262.428 21.071 262.428 21.0994 262.428 21.1292C263.575 21.4587 264.78 21.6362 266.024 21.6362C267.267 21.6362 268.471 21.4601 269.618 21.1307C269.618 21.1008 269.618 21.0724 269.618 21.0426C269.618 17.1629 268.256 13.6254 266.022 10.957L266.024 10.9556Z" fill="#00B38E"/>
<path d="M266.023 31.1264C263.934 28.6313 262.608 25.3778 262.444 21.7935C253.199 22.6086 246.195 26.4713 246.195 30.2431C246.195 32.0154 247.744 33.6457 250.346 34.9437C251.989 35.6793 253.792 36.0869 255.681 36.0869C259.784 36.0869 263.472 34.1726 266.023 31.1278V31.1264Z" fill="#00D6A2"/>
<path d="M285.856 30.2431C285.856 26.4713 278.849 22.6086 269.602 21.7935C269.439 25.3778 268.112 28.6327 266.023 31.1264C268.574 34.1711 272.262 36.0855 276.365 36.0855C278.239 36.0855 280.027 35.685 281.658 34.9621C284.288 33.6599 285.856 32.0211 285.856 30.2431Z" fill="#02BDA5"/>
<path d="M262.444 21.7939C262.607 25.3783 263.933 28.6317 266.022 31.1269C268.112 28.6317 269.438 25.3783 269.601 21.7939C268.44 21.6917 267.246 21.6377 266.025 21.6377C264.804 21.6377 263.606 21.6931 262.444 21.7953V21.7939Z" fill="#00AB8E"/>
</g>
<ellipse opacity="0.6" cx="247.102" cy="14.6209" rx="6.73822" ry="6.96466" fill="#0DA98E"/>
<ellipse opacity="0.6" cx="254.125" cy="9.4295" rx="6.73822" ry="6.96466" fill="#45B9A2"/>
<ellipse opacity="0.7" cx="260.864" cy="19.2711" rx="5.23956" ry="5.41564" fill="#038F7E"/>
<ellipse opacity="0.7" cx="272.205" cy="46.3426" rx="6.73822" ry="6.96466" fill="#00997D"/>
</g>
<mask id="mask8_278_26188" style="mask-type:alpha" maskUnits="userSpaceOnUse" x="251" y="4" width="13" height="19">
<path fill-rule="evenodd" clip-rule="evenodd" d="M258.87 4.72895C258.268 5.17795 257.393 6.19172 257.265 7.07746C257.023 8.74754 257.963 8.93078 258.254 8.97545C258.545 9.02012 259.506 9.10307 259.744 7.45825C259.878 6.53819 259.263 5.34406 258.87 4.72895ZM256.364 22.0397C259.679 22.5488 262.768 20.1898 263.264 16.7707C263.76 13.3517 261.475 10.1673 258.16 9.65819C254.846 9.14912 251.756 11.5081 251.261 14.9272C250.765 18.3463 253.05 21.5306 256.364 22.0397Z" fill="#FF5D53"/>
</mask>
<g mask="url(#mask8_278_26188)">
<ellipse opacity="0.7" cx="3.0848" cy="3.46894" rx="3.0848" ry="3.46894" transform="matrix(0.988685 0.151846 -0.143502 0.989379 259.25 14.7085)" fill="#FE5348"/>
<ellipse opacity="0.6" cx="4.41429" cy="4.96398" rx="4.41429" ry="4.96398" transform="matrix(0.988685 0.151846 -0.143502 0.989379 253.005 15.3735)" fill="#FE5348"/>
<ellipse opacity="0.8" cx="6.4041" cy="7.2266" rx="6.4041" ry="7.2266" transform="matrix(0.988685 0.151846 -0.143502 0.989379 248.656 4.69922)" fill="#FE5348"/>
<ellipse opacity="0.4" cx="4.3776" cy="4.93982" rx="4.3776" ry="4.93982" transform="matrix(0.988685 0.151846 -0.143502 0.989379 248.494 7.12646)" fill="#EB2706"/>
<ellipse opacity="0.3" cx="6.62002" cy="7.44438" rx="6.62002" ry="7.44438" transform="matrix(0.988685 0.151846 -0.143502 0.989379 253.378 9.25586)" fill="#FE5348"/>
<ellipse opacity="0.3" cx="4.25764" cy="4.78783" rx="4.25764" ry="4.78783" transform="matrix(0.988685 0.151846 -0.143502 0.989379 260.652 3.90869)" fill="#FE5348"/>
<path opacity="0.6" fill-rule="evenodd" clip-rule="evenodd" d="M258.979 4.08607L257.159 3.80664L256.454 8.66753L258.253 8.94371L258.253 8.94407L260.072 9.22351L260.777 4.36262L258.979 4.08644L258.979 4.08607Z" fill="#00D6A2"/>
<rect width="1.84024" height="4.91307" transform="matrix(0.988685 0.151846 -0.143502 0.989379 258.892 4.33105)" fill="#038F7E"/>
<rect width="2.76364" height="1.70513" transform="matrix(0.777856 -0.620626 0.60026 0.805905 257.63 8.11865)" fill="#0DA98E"/>
<rect width="1.84024" height="4.91307" transform="matrix(0.988685 0.151846 -0.143502 0.989379 257.098 4.04199)" fill="#00D6A2"/>
<ellipse opacity="0.5" cx="1.15502" cy="0.553234" rx="1.15502" ry="0.553234" transform="matrix(0.717582 -0.690413 0.673602 0.744828 252.689 12.4722)" fill="white"/>
<ellipse opacity="0.5" cx="1.16824" cy="0.546739" rx="1.16824" ry="0.546739" transform="matrix(0.188812 -0.981341 0.980504 0.199999 252.514 14.3159)" fill="white"/>
</g>
<mask id="mask9_278_26188" style="mask-type:alpha" maskUnits="userSpaceOnUse" x="251" y="5" width="13" height="18">
<path fill-rule="evenodd" clip-rule="evenodd" d="M262.604 5.16246C262.002 5.61146 261.127 6.62524 260.998 7.51097C260.756 9.18105 261.697 9.3643 261.988 9.40897C262.279 9.45364 263.239 9.53658 263.478 7.89177C263.611 6.9717 262.996 5.77757 262.604 5.16246ZM256.364 22.0411C259.679 22.5502 262.768 20.1911 263.264 16.7721C263.76 13.353 261.475 10.1686 258.16 9.65954C254.845 9.15046 251.756 11.5095 251.26 14.9285C250.765 18.3476 253.05 21.532 256.364 22.0411Z" fill="#FF5D53"/>
</mask>
<g mask="url(#mask9_278_26188)">
<path opacity="0.5" d="M263.268 16.1051C262.903 18.6213 260.459 19.6683 258.231 19.3261C256.002 18.9839 254.492 16.6666 254.857 14.1503C255.222 11.6341 257.324 9.87167 259.552 10.2139C261.781 10.5561 263.632 13.5888 263.268 16.1051Z" fill="#FE5348"/>
<ellipse opacity="0.6" cx="5.19953" cy="5.36777" rx="5.19953" ry="5.36777" transform="matrix(0.99716 0.0687784 -0.0644566 0.998368 253.405 14.5474)" fill="#EB2706"/>
<ellipse opacity="0.5" cx="4.70442" cy="4.85664" rx="4.70442" ry="4.85664" transform="matrix(0.99716 0.0687784 -0.0644566 0.998368 254.069 15.7827)" fill="#EB2706"/>
<ellipse opacity="0.5" cx="3.0848" cy="3.46894" rx="3.0848" ry="3.46894" transform="matrix(0.988685 0.151846 -0.143502 0.989379 259.138 14.8525)" fill="#FE5348"/>
<ellipse opacity="0.5" cx="2.46573" cy="2.77278" rx="2.46573" ry="2.77278" transform="matrix(0.988685 0.151846 -0.143502 0.989379 260.341 15.6865)" fill="#FE5348"/>
<ellipse opacity="0.7" cx="3.51003" cy="3.62359" rx="3.51003" ry="3.62359" transform="matrix(0.99716 0.0687784 -0.0644566 0.998368 255.289 16.9727)" fill="#EB2706"/>
</g>
<g clip-path="url(#clip3_278_26188)">
<ellipse opacity="0.7" cx="237.013" cy="39.5013" rx="4.95541" ry="5.12194" fill="#00997D"/>
<mask id="mask10_278_26188" style="mask-type:alpha" maskUnits="userSpaceOnUse" x="230" y="25" width="13" height="17">
<path fill-rule="evenodd" clip-rule="evenodd" d="M232.72 25.5484C232.419 26.2261 232.147 27.5173 232.448 28.3308C233.016 29.8648 233.897 29.5548 234.164 29.4488C234.431 29.3428 235.283 28.9382 234.724 27.4274C234.411 26.5824 233.338 25.8751 232.72 25.5484ZM238.61 41.447C241.652 40.2392 243.176 36.7144 242.014 33.574C240.851 30.4337 237.443 28.867 234.4 30.0747C231.358 31.2824 229.834 34.8072 230.996 37.9476C232.159 41.088 235.567 42.6547 238.61 41.447Z" fill="#FF5D53"/>
</mask>
<g mask="url(#mask10_278_26188)">
<ellipse opacity="0.7" cx="3.0159" cy="3.35694" rx="3.0159" ry="3.35694" transform="matrix(0.928201 -0.368465 0.347574 0.93905 237.66 33.8115)" fill="#FE5348"/>
<ellipse opacity="0.6" cx="4.31569" cy="4.80371" rx="4.31569" ry="4.80371" transform="matrix(0.928201 -0.368465 0.347574 0.93905 232.681 37.4609)" fill="#FE5348"/>
<ellipse opacity="0.8" cx="6.26106" cy="6.99329" rx="6.26106" ry="6.99329" transform="matrix(0.928201 -0.368465 0.347574 0.93905 224.057 30.5728)" fill="#FE5348"/>
<ellipse opacity="0.4" cx="4.27982" cy="4.78034" rx="4.27982" ry="4.78034" transform="matrix(0.928201 -0.368465 0.347574 0.93905 225.044 32.7075)" fill="#EB2706"/>
<ellipse opacity="0.6" cx="3.0159" cy="3.35694" rx="3.0159" ry="3.35694" transform="matrix(0.928201 -0.368465 0.347574 0.93905 235.089 43.8027)" fill="#FE5348"/>
<ellipse opacity="0.3" cx="6.47216" cy="7.20403" rx="6.47216" ry="7.20403" transform="matrix(0.928201 -0.368465 0.347574 0.93905 230.166 32.0962)" fill="#FE5348"/>
<ellipse opacity="0.3" cx="4.16254" cy="4.63325" rx="4.16254" ry="4.63325" transform="matrix(0.928201 -0.368465 0.347574 0.93905 233.849 23.9707)" fill="#FE5348"/>
<path opacity="0.6" fill-rule="evenodd" clip-rule="evenodd" d="M234.165 24.2926L232.495 24.9555L232.496 24.9575L230.845 25.6129L232.498 30.0775L234.168 29.4146L234.167 29.4126L235.818 28.7572L234.165 24.2926Z" fill="#00D6A2"/>
<rect width="1.79914" height="4.75445" transform="matrix(0.928201 -0.368465 0.347574 0.93905 232.556 25.1997)" fill="#038F7E"/>
<rect width="2.6872" height="1.65863" transform="matrix(0.382023 -0.936 0.905951 0.39646 233.239 29.0308)" fill="#0DA98E"/>
<rect width="1.79914" height="4.75445" transform="matrix(0.928201 -0.368465 0.347574 0.93905 230.903 25.8433)" fill="#00D6A2"/>
<ellipse opacity="0.5" cx="1.12203" cy="0.53867" rx="1.12203" ry="0.53867" transform="matrix(0.296592 -0.967024 0.939824 0.305716 231.069 35.1597)" fill="white"/>
<ellipse opacity="0.5" cx="1.13054" cy="0.534514" rx="1.13054" ry="0.534514" transform="matrix(-0.304076 -0.955144 0.943931 -0.32263 231.776 36.8086)" fill="white"/>
</g>
<mask id="mask11_278_26188" style="mask-type:alpha" maskUnits="userSpaceOnUse" x="230" y="24" width="13" height="18">
<path fill-rule="evenodd" clip-rule="evenodd" d="M236.082 24.0666C235.78 24.7443 235.508 26.0354 235.809 26.849C236.377 28.3829 237.258 28.0729 237.525 27.9669C237.792 27.861 238.644 27.4563 238.085 25.9456C237.772 25.1005 236.699 24.3933 236.082 24.0666ZM238.608 41.4438C241.651 40.2361 243.175 36.7112 242.012 33.5709C240.85 30.4305 237.441 28.8638 234.399 30.0715C231.357 31.2792 229.833 34.804 230.995 37.9444C232.157 41.0848 235.566 42.6515 238.608 41.4438Z" fill="#FF5D53"/>
</mask>
<g mask="url(#mask11_278_26188)">
<path opacity="0.5" d="M241.708 33.0058C242.563 35.317 240.978 37.4117 238.933 38.2236C236.888 39.0355 234.536 37.8201 233.681 35.5089C232.826 33.1978 233.79 30.666 235.835 29.8541C237.881 29.0422 240.852 30.6946 241.708 33.0058Z" fill="#FE5348"/>
<ellipse opacity="0.6" cx="3.0159" cy="3.35694" rx="3.0159" ry="3.35694" transform="matrix(0.928201 -0.368465 0.347574 0.93905 235.089 43.8013)" fill="#FE5348"/>
<ellipse opacity="0.6" cx="5.08304" cy="5.19481" rx="5.08304" ry="5.19481" transform="matrix(0.896284 -0.44473 0.421013 0.906473 232.635 36.562)" fill="#EB2706"/>
<ellipse opacity="0.5" cx="4.59902" cy="4.70015" rx="4.59902" ry="4.70015" transform="matrix(0.896284 -0.44473 0.421013 0.906473 233.77 37.2803)" fill="#EB2706"/>
<ellipse opacity="0.5" cx="3.0159" cy="3.35694" rx="3.0159" ry="3.35694" transform="matrix(0.928201 -0.368465 0.347574 0.93905 237.632 33.9858)" fill="#FE5348"/>
<ellipse opacity="0.5" cx="2.41066" cy="2.68326" rx="2.41066" ry="2.68326" transform="matrix(0.928201 -0.368465 0.347574 0.93905 239.036 34.0991)" fill="#FE5348"/>
<ellipse opacity="0.7" cx="3.43138" cy="3.50683" rx="3.43138" ry="3.50683" transform="matrix(0.896284 -0.44473 0.421013 0.906473 235.353 37.6831)" fill="#EB2706"/>
</g>
</g>
<g clip-path="url(#clip4_278_26188)">
<mask id="mask12_278_26188" style="mask-type:alpha" maskUnits="userSpaceOnUse" x="262" y="31" width="13" height="18">
<path fill-rule="evenodd" clip-rule="evenodd" d="M271.896 31.4211C271.221 31.7396 270.171 32.5565 269.877 33.3991C269.323 34.9877 270.211 35.3579 270.487 35.4606C270.764 35.5633 271.69 35.8391 272.236 34.2745C272.541 33.3993 272.165 32.1038 271.896 31.4211ZM266.157 47.888C269.311 49.0584 272.787 47.3705 273.921 44.1181C275.056 40.8656 273.418 37.2803 270.265 36.11C267.111 34.9396 263.634 36.6275 262.5 39.8799C261.366 43.1324 263.003 46.7177 266.157 47.888Z" fill="#FF5D53"/>
</mask>
<g mask="url(#mask12_278_26188)">
<ellipse opacity="0.7" cx="3.09259" cy="3.46071" rx="3.09259" ry="3.46071" transform="matrix(0.938385 0.348202 -0.329005 0.943395 270.376 41.2837)" fill="#FE5348"/>
<ellipse opacity="0.6" cx="4.42543" cy="4.9522" rx="4.42543" ry="4.9522" transform="matrix(0.938385 0.348202 -0.329005 0.943395 264.126 40.6724)" fill="#FE5348"/>
<ellipse opacity="0.8" cx="6.42027" cy="7.20946" rx="6.42027" ry="7.20946" transform="matrix(0.938385 0.348202 -0.329005 0.943395 261.885 29.3232)" fill="#FE5348"/>
<ellipse opacity="0.4" cx="4.38865" cy="4.9281" rx="4.38865" ry="4.9281" transform="matrix(0.938385 0.348202 -0.329005 0.943395 261.266 31.6704)" fill="#EB2706"/>
<ellipse opacity="0.6" cx="3.09259" cy="3.46071" rx="3.09259" ry="3.46071" transform="matrix(0.938385 0.348202 -0.329005 0.943395 261.884 47.2822)" fill="#FE5348"/>
<ellipse opacity="0.3" cx="6.63673" cy="7.42672" rx="6.63673" ry="7.42672" transform="matrix(0.938385 0.348202 -0.329005 0.943395 265.653 34.7485)" fill="#FE5348"/>
<ellipse opacity="0.3" cx="4.26839" cy="4.77647" rx="4.26839" ry="4.77647" transform="matrix(0.938385 0.348202 -0.329005 0.943395 273.799 30.9746)" fill="#FE5348"/>
<path opacity="0.6" fill-rule="evenodd" clip-rule="evenodd" d="M273.835 31.4474L272.104 30.805L272.104 30.8059L270.393 30.1713L268.781 34.7953L270.512 35.4377L270.512 35.4368L272.223 36.0714L273.835 31.4474Z" fill="#00D6A2"/>
<rect width="1.84489" height="4.90141" transform="matrix(0.938385 0.348202 -0.329005 0.943395 271.994 31.0352)" fill="#038F7E"/>
<rect width="2.76337" height="1.70529" transform="matrix(0.880491 -0.451157 0.435859 0.911741 270.038 34.4927)" fill="#0DA98E"/>
<rect width="1.84489" height="4.90141" transform="matrix(0.938385 0.348202 -0.329005 0.943395 270.289 30.3887)" fill="#00D6A2"/>
<ellipse opacity="0.5" cx="1.15439" cy="0.553543" rx="1.15439" ry="0.553543" transform="matrix(0.834976 -0.53204 0.519106 0.866297 264.368 37.7612)" fill="white"/>
<ellipse opacity="0.5" cx="1.16548" cy="0.548113" rx="1.16548" ry="0.548113" transform="matrix(0.372012 -0.926289 0.921291 0.393655 263.847 39.5352)" fill="white"/>
</g>
<mask id="mask13_278_26188" style="mask-type:alpha" maskUnits="userSpaceOnUse" x="262" y="32" width="14" height="17">
<path fill-rule="evenodd" clip-rule="evenodd" d="M275.474 32.6011C274.799 32.9195 273.748 33.7365 273.455 34.579C272.9 36.1677 273.788 36.5379 274.065 36.6406C274.342 36.7433 275.268 37.0191 275.814 35.4545C276.119 34.5792 275.742 33.2838 275.474 32.6011ZM266.156 47.8878C269.31 49.0581 272.786 47.3702 273.921 44.1178C275.055 40.8654 273.418 37.28 270.264 36.1097C267.11 34.9394 263.633 36.6273 262.499 39.8797C261.365 43.1321 263.002 46.7175 266.156 47.8878Z" fill="#FF5D53"/>
</mask>
<g mask="url(#mask13_278_26188)">
<path opacity="0.5" d="M274.051 43.466C273.216 45.8596 270.622 46.3916 268.501 45.6049C266.381 44.8181 265.339 42.2399 266.174 39.8462C267.008 37.4526 269.404 36.15 271.524 36.9368C273.644 37.7235 274.886 41.0724 274.051 43.466Z" fill="#FE5348"/>
<ellipse opacity="0.6" cx="3.09259" cy="3.46071" rx="3.09259" ry="3.46071" transform="matrix(0.938385 0.348202 -0.329005 0.943395 261.885 47.2822)" fill="#FE5348"/>
<ellipse opacity="0.6" cx="5.21248" cy="5.3552" rx="5.21248" ry="5.3552" transform="matrix(0.962411 0.268669 -0.253006 0.968244 264.674 39.9414)" fill="#EB2706"/>
<ellipse opacity="0.5" cx="4.71614" cy="4.84527" rx="4.71614" ry="4.84527" transform="matrix(0.962411 0.268669 -0.253006 0.968244 265.091 41.2866)" fill="#EB2706"/>
<ellipse opacity="0.5" cx="3.09259" cy="3.46071" rx="3.09259" ry="3.46071" transform="matrix(0.938385 0.348202 -0.329005 0.943395 270.239 41.4014)" fill="#FE5348"/>
<ellipse opacity="0.5" cx="2.47196" cy="2.7662" rx="2.47196" ry="2.7662" transform="matrix(0.938385 0.348202 -0.329005 0.943395 271.26 42.4619)" fill="#FE5348"/>
<ellipse opacity="0.7" cx="3.51877" cy="3.61511" rx="3.51877" ry="3.61511" transform="matrix(0.962411 0.268669 -0.253006 0.968244 266.063 42.7002)" fill="#EB2706"/>
</g>
</g>
</g>
<defs>
<clipPath id="clip0_278_26188">
<rect width="45.22" height="45.22" fill="white" transform="translate(113.96 27.6396)"/>
</clipPath>
<clipPath id="clip1_278_26188">
<rect width="41.2722" height="52.7566" fill="white" transform="translate(173.357 20.2432)"/>
</clipPath>
<clipPath id="clip2_278_26188">
<rect width="59.6296" height="72.4074" fill="white" transform="translate(225.611 0.592773)"/>
</clipPath>
<clipPath id="clip3_278_26188">
<rect width="15.0857" height="21.5932" fill="white" transform="matrix(0.908833 -0.417159 0.394751 0.918788 224.526 28.0654)"/>
</clipPath>
<clipPath id="clip4_278_26188">
<rect width="16.6269" height="23.0448" fill="white" transform="matrix(0.95453 0.298116 -0.280594 0.959827 262.228 26.8789)"/>
</clipPath>
</defs>
</svg>
