<svg width="292" height="50" viewBox="0 0 292 50" fill="none" xmlns="http://www.w3.org/2000/svg">
<rect width="292" height="50" rx="8" fill="#03C75A"/>
<path d="M23.9028 24.1752L19.4499 17.8082H15.7606V29.7091H19.6284V23.3421L24.0714 29.7091H27.7606V17.8082H23.9028V24.1752Z" fill="white"/>
<path d="M110.104 12.004V18.78C111.252 18.766 112.288 18.668 113.464 18.416L113.688 19.9C112.162 20.222 110.818 20.278 109.208 20.292H108.34V12.004H110.104ZM111.84 16.148V14.748H114.332V11.052H115.984V22.7H114.332V16.148H111.84ZM117.02 23.26V10.8H118.644V23.26H117.02ZM130.38 10.8V23.288H128.616V10.8H130.38ZM120.328 16.12C120.328 13.404 121.728 11.696 123.632 11.696C125.508 11.696 126.894 13.404 126.908 16.12C126.894 18.85 125.508 20.572 123.632 20.572C121.728 20.572 120.328 18.85 120.328 16.12ZM122.008 16.12C122.008 17.982 122.666 18.976 123.632 18.976C124.57 18.976 125.214 17.982 125.228 16.12C125.214 14.272 124.57 13.264 123.632 13.264C122.666 13.264 122.008 14.272 122.008 16.12ZM142.563 10.8V23.288H140.855V16.624H138.531V20.32H132.539V11.78H134.275V14.804H136.823V11.78H138.531V15.196H140.855V10.8H142.563ZM134.275 18.948H136.823V16.148H134.275V18.948ZM158.785 20.432V21.86H147.389V20.432H152.205V18.556H148.705V14.384H155.733V13.012H148.677V11.612H157.469V15.756H150.441V17.156H157.749V18.556H153.913V20.432H158.785ZM169.457 11.948V13.46C169.443 15.168 169.443 16.848 169.009 19.424L167.245 19.284C167.707 16.89 167.707 15.112 167.721 13.46V13.376H160.665V11.948H169.457ZM159.489 21.636V20.208H170.857V21.636H159.489ZM182.005 10.828V19.76H180.269V10.828H182.005ZM171.785 14.748C171.785 12.928 173.283 11.612 175.201 11.612C177.105 11.612 178.589 12.928 178.589 14.748C178.589 16.61 177.105 17.912 175.201 17.912C173.283 17.912 171.785 16.61 171.785 14.748ZM173.493 14.748C173.479 15.798 174.221 16.386 175.201 16.4C176.139 16.386 176.867 15.798 176.853 14.748C176.867 13.74 176.139 13.138 175.201 13.124C174.221 13.138 173.479 13.74 173.493 14.748ZM173.661 23.036V18.864H175.425V21.636H182.341V23.036H173.661Z" fill="white"/>
<path d="M106.284 30.646V35.776H102.594V30.646H106.284ZM103.404 35.092H105.438V31.312H103.404V35.092ZM107.598 37.738V29.872H108.426V32.95H109.686V33.67H108.426V37.738H107.598ZM112.694 32.194C112.694 33.508 113.558 34.867 114.782 35.38L114.314 36.046C113.387 35.632 112.658 34.768 112.289 33.724C111.92 34.84 111.182 35.803 110.264 36.244L109.778 35.578C110.966 35.029 111.848 33.544 111.848 32.194V31.348H110.048V30.664H114.494V31.348H112.694V32.194ZM115.484 37.738V29.872H116.33V37.738H115.484ZM121.301 30.448V33.994H117.611V30.448H121.301ZM118.295 35.596V34.93H123.497V37.756H122.669V35.596H118.295ZM118.421 33.328H120.473V31.114H118.421V33.328ZM122.669 34.534V29.872H123.497V31.87H124.631V32.554H123.497V34.534H122.669ZM128.395 30.34C130.051 30.349 131.311 31.222 131.311 32.536C131.311 33.877 130.051 34.75 128.395 34.75C126.748 34.75 125.497 33.877 125.497 32.536C125.497 31.222 126.748 30.349 128.395 30.34ZM124.813 36.73V36.046H132.031V36.73H124.813ZM126.307 32.536C126.298 33.463 127.198 34.057 128.395 34.066C129.61 34.057 130.501 33.463 130.501 32.536C130.501 31.627 129.61 31.015 128.395 31.024C127.198 31.015 126.298 31.627 126.307 32.536ZM139.539 36.1V36.802H132.321V36.1H135.489V34.714H133.203V32.212H137.829V31.114H133.185V30.43H138.657V32.896H134.031V34.03H138.837V34.714H136.317V36.1H139.539ZM148.975 36.1V36.802H141.757V36.1H144.925V34.714H142.639V32.212H147.265V31.114H142.621V30.43H148.093V32.896H143.467V34.03H148.273V34.714H145.753V36.1H148.975ZM155.511 30.664V31.51C155.502 32.536 155.502 33.643 155.223 35.326L154.377 35.254C154.683 33.67 154.683 32.509 154.683 31.51V31.348H150.039V30.664H155.511ZM149.265 36.622V35.938H156.447V36.622H149.265ZM163.308 29.872V35.596H162.48V29.872H163.308ZM156.936 32.356C156.936 31.222 157.845 30.412 159.042 30.412C160.221 30.412 161.13 31.222 161.13 32.356C161.13 33.517 160.221 34.318 159.042 34.318C157.845 34.318 156.936 33.517 156.936 32.356ZM157.746 32.356C157.746 33.103 158.304 33.589 159.042 33.598C159.753 33.589 160.311 33.103 160.302 32.356C160.311 31.636 159.753 31.141 159.042 31.132C158.304 31.141 157.746 31.636 157.746 32.356ZM158.16 37.576V35.02H158.988V36.91H163.542V37.576H158.16ZM170.474 29.872V32.41H171.608V33.112H170.474V35.776H169.646V29.872H170.474ZM164.3 31.474V30.79H166.226V29.872H167.054V30.79H168.98V31.474H164.3ZM164.732 33.346C164.723 32.437 165.497 31.843 166.64 31.852C167.774 31.843 168.548 32.437 168.548 33.346C168.548 34.228 167.774 34.813 166.64 34.804C165.497 34.813 164.723 34.228 164.732 33.346ZM165.488 37.576V35.308H166.316V36.91H170.816V37.576H165.488ZM165.524 33.346C165.524 33.85 165.974 34.165 166.64 34.156C167.306 34.165 167.756 33.85 167.756 33.346C167.756 32.815 167.306 32.491 166.64 32.5C165.974 32.491 165.524 32.815 165.524 33.346ZM180.485 29.872V37.738H179.693V29.872H180.485ZM173.681 35.47C175.346 34.48 176.147 33.148 176.291 31.528H174.059V30.844H177.119C177.119 31.249 177.092 31.645 177.029 32.032H178.091V30.07H178.883V37.36H178.091V34.678H176.741V33.994H178.091V32.716H176.867C176.489 34.039 175.643 35.182 174.167 36.064L173.681 35.47ZM187.796 29.872V34.552H186.968V32.572H185.492V31.888H186.968V29.872H187.796ZM181.226 33.85C182.45 33.418 183.197 32.356 183.206 31.276V31.096H181.496V30.412H185.744V31.096H184.052V31.258C184.043 32.257 184.754 33.229 185.942 33.634L185.51 34.3C184.628 33.985 183.98 33.355 183.647 32.581C183.296 33.463 182.603 34.174 181.658 34.516L181.226 33.85ZM182.486 36.262C182.486 35.326 183.503 34.777 185.15 34.786C186.806 34.777 187.814 35.326 187.814 36.262C187.814 37.198 186.806 37.738 185.15 37.738C183.503 37.738 182.486 37.198 182.486 36.262ZM183.314 36.262C183.314 36.793 183.998 37.099 185.15 37.09C186.302 37.099 186.986 36.793 186.986 36.262C186.986 35.731 186.302 35.425 185.15 35.416C183.998 35.425 183.314 35.731 183.314 36.262Z" fill="#F8F9FA"/>
</svg>
