<svg width="291" height="42" viewBox="0 0 291 42" fill="none" xmlns="http://www.w3.org/2000/svg">
<rect width="291" height="42" rx="8" fill="#03C75A"/>
<path d="M23.9028 21.1752L19.4499 14.8082H15.7606V26.7091H19.6284V20.3421L24.0714 26.7091H27.7606V14.8082H23.9028V21.1752Z" fill="white"/>
<path d="M98.0923 16.004V22.78C99.2403 22.766 100.276 22.668 101.452 22.416L101.676 23.9C100.15 24.222 98.8063 24.278 97.1963 24.292H96.3283V16.004H98.0923ZM99.8283 20.148V18.748H102.32V15.052H103.972V26.7H102.32V20.148H99.8283ZM105.008 27.26V14.8H106.632V27.26H105.008ZM118.368 14.8V27.288H116.604V14.8H118.368ZM108.316 20.12C108.316 17.404 109.716 15.696 111.62 15.696C113.496 15.696 114.882 17.404 114.896 20.12C114.882 22.85 113.496 24.572 111.62 24.572C109.716 24.572 108.316 22.85 108.316 20.12ZM109.996 20.12C109.996 21.982 110.654 22.976 111.62 22.976C112.558 22.976 113.202 21.982 113.216 20.12C113.202 18.272 112.558 17.264 111.62 17.264C110.654 17.264 109.996 18.272 109.996 20.12ZM130.552 14.8V27.288H128.844V20.624H126.52V24.32H120.528V15.78H122.264V18.804H124.812V15.78H126.52V19.196H128.844V14.8H130.552ZM122.264 22.948H124.812V20.148H122.264V22.948ZM143.547 24.432V25.86H132.151V24.432H136.967V22.556H133.467V18.384H140.495V17.012H133.439V15.612H142.231V19.756H135.203V21.156H142.511V22.556H138.675V24.432H143.547ZM152.321 17.628C152.321 19.924 153.357 22.206 155.485 23.088L154.449 24.488C153.021 23.844 152.027 22.612 151.467 21.072C150.907 22.752 149.885 24.11 148.373 24.796L147.309 23.34C149.493 22.43 150.543 20.05 150.557 17.628V15.78H152.321V17.628ZM156.129 27.288V14.8H157.893V27.288H156.129ZM166.661 15.528V16.928H164.169C164.183 18.384 165.051 19.882 167.081 20.54L166.185 21.884C164.813 21.436 163.861 20.554 163.315 19.434C162.769 20.652 161.775 21.632 160.333 22.108L159.409 20.736C161.453 20.078 162.391 18.482 162.405 16.928H159.885V15.528H166.661ZM161.089 24.236V22.864H169.461V27.26H167.697V24.236H161.089ZM167.697 22.332V14.8H169.461V17.824H171.141V19.28H169.461V22.332H167.697ZM181.505 14.8V19.7H183.325V21.128H181.505V27.26H179.769V14.8H181.505ZM171.621 18.076V16.676H174.421V14.996H176.185V16.676H178.929V18.076H171.621ZM172.125 21.744C172.111 19.994 173.469 18.762 175.317 18.776C177.123 18.762 178.481 19.994 178.481 21.744C178.481 23.466 177.123 24.698 175.317 24.684C173.469 24.698 172.111 23.466 172.125 21.744ZM173.805 21.744C173.791 22.696 174.421 23.27 175.317 23.256C176.171 23.27 176.801 22.696 176.801 21.744C176.801 20.778 176.171 20.19 175.317 20.176C174.421 20.19 173.791 20.778 173.805 21.744ZM194.248 14.8V27.26H192.484V14.8H194.248ZM183.832 23.732C187.038 22.206 188.452 20.246 188.732 17.488H184.476V16.116H190.496C190.51 19.882 189.18 23.032 184.728 25.132L183.832 23.732Z" fill="white"/>
</svg>
