<svg width="21" height="21" viewBox="0 0 21 21" fill="none" xmlns="http://www.w3.org/2000/svg">
<circle cx="10.5" cy="10.7734" r="9" fill="#A9AEB3"/>
<path d="M6.71571 6.98936C6.78516 6.91982 6.86763 6.86465 6.95841 6.82701C7.0492 6.78936 7.14651 6.76999 7.24479 6.76999C7.34307 6.76999 7.44039 6.78936 7.53117 6.82701C7.62196 6.86465 7.70443 6.91982 7.77387 6.98936L10.4892 9.70365L13.2044 6.98936C13.2739 6.91988 13.3564 6.86477 13.4472 6.82717C13.538 6.78956 13.6353 6.77021 13.7335 6.77021C13.8318 6.77021 13.9291 6.78956 14.0199 6.82717C14.1106 6.86477 14.1931 6.91988 14.2626 6.98936C14.3321 7.05884 14.3872 7.14133 14.4248 7.23211C14.4624 7.32289 14.4818 7.42018 14.4818 7.51844C14.4818 7.6167 14.4624 7.714 14.4248 7.80478C14.3872 7.89556 14.3321 7.97804 14.2626 8.04752L11.5483 10.7628L14.2626 13.4781C14.4029 13.6184 14.4818 13.8087 14.4818 14.0072C14.4818 14.2056 14.4029 14.3959 14.2626 14.5363C14.1223 14.6766 13.932 14.7554 13.7335 14.7554C13.5351 14.7554 13.3448 14.6766 13.2044 14.5363L10.4892 11.822L7.77387 14.5363C7.63355 14.6766 7.44324 14.7554 7.24479 14.7554C7.04635 14.7554 6.85603 14.6766 6.71571 14.5363C6.57539 14.3959 6.49656 14.2056 6.49656 14.0072C6.49656 13.8087 6.57539 13.6184 6.71571 13.4781L9.43 10.7628L6.71571 8.04752C6.64617 7.97808 6.591 7.89561 6.55336 7.80482C6.51571 7.71404 6.49634 7.61672 6.49634 7.51844C6.49634 7.42016 6.51571 7.32285 6.55336 7.23206C6.591 7.14128 6.64617 7.05881 6.71571 6.98936Z" fill="#F1F3F5"/>
</svg>
