<svg width="92" height="64" viewBox="0 0 92 64" fill="none" xmlns="http://www.w3.org/2000/svg">
<rect width="92" height="64" rx="8" fill="#FEE500"/>
<path fill-rule="evenodd" clip-rule="evenodd" d="M46 14.9761C41.0292 14.9761 37 18.1055 37 21.9651C37 24.3655 38.5584 26.4815 40.9315 27.7401L39.933 31.4069C39.8448 31.7309 40.2134 31.9892 40.4965 31.8014L44.8734 28.8974C45.2427 28.9333 45.6181 28.9542 46 28.9542C50.9705 28.9542 54.9999 25.8249 54.9999 21.9651C54.9999 18.1055 50.9705 14.9761 46 14.9761Z" fill="black"/>
<path d="M17.3499 45.5732H18.7069V46.3363H17.3499V50.8184H16.421V42.0787H17.3499V45.5732ZM11.0826 42.9662H15.0778C15.0743 45.5525 14.2801 47.8419 11.0895 49.4164L10.5785 48.7189C12.1634 47.942 13.1061 46.9993 13.6275 45.8909L10.7649 46.1602L10.6337 45.3591L13.9072 45.145C14.0419 44.6927 14.1178 44.2196 14.1524 43.7224H11.0826V42.9662ZM25.9924 45.5732H27.3495V46.3363H25.9924V50.8184H25.0636V42.0787H25.9924V45.5732ZM19.7252 42.9662H23.7203C23.7169 45.5525 22.9227 47.8419 19.7321 49.4164L19.221 48.7189C20.806 47.942 21.7487 46.9993 22.2701 45.8909L19.4075 46.1602L19.2763 45.3591L22.5498 45.145C22.6844 44.6927 22.7604 44.2196 22.7949 43.7224H19.7252V42.9662ZM32.2593 47.2514V48.971H35.8263V49.7376H27.8187V48.971H31.3408V47.2479C29.7179 47.1133 28.5749 46.2431 28.5749 44.9344C28.5749 43.5359 29.9389 42.6139 31.8001 42.6105C33.6716 42.6139 35.0356 43.5359 35.0356 44.9344C35.0356 46.2431 33.8892 47.1133 32.2593 47.2514ZM29.4762 44.9344C29.4762 45.9151 30.4534 46.5228 31.8001 46.5297C33.1571 46.5228 34.1309 45.9151 34.1309 44.9344C34.1309 43.9848 33.1571 43.3598 31.8001 43.3633C30.4534 43.3598 29.4762 43.9848 29.4762 44.9344ZM40.9019 45.9358V46.7714H44.4378V47.5138H36.444V46.7714H39.973V45.9358H37.4869V42.3032H43.4641V43.0318H38.4192V43.7465H43.2396V44.4544H38.4192V45.221H43.5228V45.9358H40.9019ZM42.48 48.9572H37.3453V48.2113H43.4192V50.8287H42.48V48.9572ZM49.0852 42.6036C50.9223 42.607 52.3207 43.5773 52.3207 45.0483C52.3207 46.5262 50.9223 47.4965 49.0852 47.4896C47.2551 47.4965 45.8601 46.5262 45.8601 45.0483C45.8601 43.5773 47.2551 42.607 49.0852 42.6036ZM49.0852 43.3598C47.7455 43.3529 46.7475 44.0366 46.751 45.0483C46.7475 46.0704 47.7455 46.73 49.0852 46.73C50.425 46.73 51.416 46.0704 51.416 45.0483C51.416 44.0366 50.425 43.3529 49.0852 43.3598ZM45.1039 48.9296H53.1115V49.6961H45.1039V48.9296ZM58.1871 47.4689V49.009H61.7541V49.779H53.7465V49.009H57.2686V47.4689H54.7202V44.6858H59.8583V43.4565H54.703V42.7003H60.7734V45.4316H55.6422V46.7093H60.9771V47.4689H58.1871ZM71.5604 45.5663L70.6488 45.4731C70.8836 44.5718 70.8836 43.933 70.8836 43.2528H65.7697V42.5069H71.8056V43.2424C71.8056 43.9399 71.8056 44.6651 71.5604 45.5663ZM68.943 44.4613V46.1015H72.7966V46.8543H64.8408V46.1015H68.0314V44.4613H68.943ZM68.7773 47.5794C70.6695 47.5794 71.8643 48.1768 71.8712 49.2023C71.8643 50.2175 70.6695 50.8149 68.7773 50.8149C66.8988 50.8149 65.6972 50.2175 65.6972 49.2023C65.6972 48.1768 66.8988 47.5794 68.7773 47.5794ZM68.7773 50.0932C70.1101 50.0932 70.9423 49.7652 70.9492 49.2023C70.9423 48.6257 70.1101 48.2838 68.7773 48.2804C67.4513 48.2838 66.6157 48.6257 66.6226 49.2023C66.6157 49.7652 67.4513 50.0932 68.7773 50.0932ZM77.444 46.2431C75.5932 46.25 74.3328 45.511 74.3328 44.3439C74.3328 43.163 75.5932 42.4137 77.444 42.4068C79.2948 42.4137 80.5656 43.163 80.5656 44.3439C80.5656 45.511 79.2948 46.25 77.444 46.2431ZM77.444 43.1595C76.1457 43.1595 75.279 43.6084 75.2859 44.3439C75.279 45.0622 76.1457 45.5041 77.444 45.5076C78.7458 45.5041 79.6091 45.0622 79.6091 44.3439C79.6091 43.6084 78.7458 43.1595 77.444 43.1595ZM73.4592 47.0235H81.4668V47.7831H79.4399V50.8287H78.5006V47.7831H76.4081V50.8287H75.4551V47.7831H73.4592V47.0235Z" fill="black"/>
</svg>
