<svg width="92" height="64" viewBox="0 0 92 64" fill="none" xmlns="http://www.w3.org/2000/svg">
<rect width="92" height="64" rx="8" fill="#F1F3F5"/>
<path d="M49.4999 21.2003H51.2499C51.714 21.2003 52.1591 21.3847 52.4873 21.7129C52.8155 22.0411 52.9998 22.4862 52.9998 22.9503V31.3502C52.9998 31.8143 52.8155 32.2595 52.4873 32.5876C52.1591 32.9158 51.714 33.1002 51.2499 33.1002H40.75C40.2859 33.1002 39.8407 32.9158 39.5126 32.5876C39.1844 32.2595 39 31.8143 39 31.3502V22.9503C39 22.4862 39.1844 22.0411 39.5126 21.7129C39.8407 21.3847 40.2859 21.2003 40.75 21.2003H42.5M49.4999 18.4004L45.9999 14.9004M45.9999 14.9004L42.5 18.4004M45.9999 14.9004V26.844" stroke="#757A80" stroke-width="2" stroke-linecap="round" stroke-linejoin="round"/>
<path d="M16.1292 45.4662H17.5311V46.2362H16.1292V50.846H15.2003V42.0787H16.1292V45.4662ZM10.6078 43.674V47.9006C12.0753 47.8936 13.1768 47.8315 14.4303 47.6036L14.5408 48.3943C13.1734 48.6326 12.0097 48.6775 10.3868 48.674H9.68234V42.9213H13.7742V43.674H10.6078ZM18.9706 43.9123H24.0155V43.0767H18.9465V42.3446H24.9409V44.5925H19.8891V45.4489H25.1205V46.1602H18.9706V43.9123ZM17.9416 47.6416V46.8888H25.9492V47.6416H17.9416ZM18.9879 48.2597H19.9202V49.8895H25.1309V50.6492H18.9879V48.2597ZM35.9144 42.0787V44.2231H37.1817V45.0069H35.9144V47.3066H34.9856V42.0787H35.9144ZM32.5822 42.6243H33.5008V46.6851H29.3744V42.6243H30.2894V43.8881H32.5822V42.6243ZM30.2894 45.9461H32.5822V44.6133H30.2894V45.9461ZM33.0864 47.5311C34.8923 47.5311 35.9938 48.1319 35.9938 49.1713C35.9938 50.2175 34.8923 50.8218 33.0864 50.8287C31.2666 50.8218 30.1513 50.2175 30.1513 49.1713C30.1513 48.1319 31.2666 47.5311 33.0864 47.5311ZM33.0864 50.0898C34.3468 50.0898 35.0857 49.7548 35.0857 49.1713C35.0857 48.5877 34.3468 48.2631 33.0864 48.2562C31.8226 48.2631 31.0733 48.5877 31.0802 49.1713C31.0733 49.7548 31.8226 50.0898 33.0864 50.0898ZM44.0494 44.1782V42.0787H44.9748V46.8577H44.0494V44.9517H42.1364V46.5608H38.0964V42.5311H39.0252V43.8052H41.2179V42.5311H42.1364V44.1782H44.0494ZM39.0252 45.8115H41.2179V44.5304H39.0252V45.8115ZM40.1924 48.2493H44.0494V47.2686H44.9679V50.7079H39.2704V47.2686H40.1924V48.2493ZM40.1924 49.9517H44.0494V48.9744H40.1924V49.9517ZM50.3059 42.6036C52.143 42.607 53.5414 43.5773 53.5414 45.0483C53.5414 46.5262 52.143 47.4965 50.3059 47.4896C48.4758 47.4965 47.0808 46.5262 47.0808 45.0483C47.0808 43.5773 48.4758 42.607 50.3059 42.6036ZM50.3059 43.3598C48.9662 43.3529 47.9682 44.0366 47.9717 45.0483C47.9682 46.0704 48.9662 46.73 50.3059 46.73C51.6457 46.73 52.6367 46.0704 52.6367 45.0483C52.6367 44.0366 51.6457 43.3529 50.3059 43.3598ZM46.3246 48.9296H54.3322V49.6961H46.3246V48.9296ZM59.4078 47.4689V49.009H62.9748V49.779H54.9672V49.009H58.4893V47.4689H55.9409V44.6858H61.079V43.4565H55.9237V42.7003H61.9941V45.4316H56.8629V46.7093H62.1978V47.4689H59.4078ZM72.7811 45.5663L71.8695 45.4731C72.1043 44.5718 72.1043 43.933 72.1043 43.2528H66.9904V42.5069H73.0263V43.2424C73.0263 43.9399 73.0263 44.6651 72.7811 45.5663ZM70.1637 44.4613V46.1015H74.0173V46.8543H66.0615V46.1015H69.2521V44.4613H70.1637ZM69.998 47.5794C71.8902 47.5794 73.085 48.1768 73.0919 49.2023C73.085 50.2175 71.8902 50.8149 69.998 50.8149C68.1195 50.8149 66.9179 50.2175 66.9179 49.2023C66.9179 48.1768 68.1195 47.5794 69.998 47.5794ZM69.998 50.0932C71.3308 50.0932 72.163 49.7652 72.1699 49.2023C72.163 48.6257 71.3308 48.2838 69.998 48.2804C68.672 48.2838 67.8364 48.6257 67.8433 49.2023C67.8364 49.7652 68.672 50.0932 69.998 50.0932ZM78.6647 46.2431C76.8139 46.25 75.5535 45.511 75.5535 44.3439C75.5535 43.163 76.8139 42.4137 78.6647 42.4068C80.5155 42.4137 81.7863 43.163 81.7863 44.3439C81.7863 45.511 80.5155 46.25 78.6647 46.2431ZM78.6647 43.1595C77.3664 43.1595 76.4997 43.6084 76.5066 44.3439C76.4997 45.0622 77.3664 45.5041 78.6647 45.5076C79.9665 45.5041 80.8298 45.0622 80.8298 44.3439C80.8298 43.6084 79.9665 43.1595 78.6647 43.1595ZM74.6799 47.0235H82.6875V47.7831H80.6606V50.8287H79.7214V47.7831H77.6288V50.8287H76.6758V47.7831H74.6799V47.0235Z" fill="#757A80"/>
</svg>
