<svg width="92" height="64" viewBox="0 0 92 64" fill="none" xmlns="http://www.w3.org/2000/svg">
<rect width="92" height="64" rx="8" fill="#DFF3EF"/>
<path d="M54 17H38C37.4477 17 37 17.4477 37 18V30C37 30.5523 37.4477 31 38 31H54C54.5523 31 55 30.5523 55 30V18C55 17.4477 54.5523 17 54 17Z" stroke="#45B9A2" stroke-width="2" stroke-linecap="round" stroke-linejoin="round"/>
<path d="M37 18L46.2571 25L55 18" stroke="#45B9A2" stroke-width="2" stroke-linecap="round" stroke-linejoin="round"/>
<path d="M11.5488 42.4896H17.4914V45.5974H11.5488V42.4896ZM12.4569 44.8653H16.5764V43.2217H12.4569V44.8653ZM10.5198 47.2583V46.5021H18.5274V47.2583H15.0571V48.9537H14.1385V47.2583H10.5198ZM11.5177 48.125H12.4431V49.8895H17.6399V50.6492H11.5177V48.125ZM25.9924 45.549H27.3944V46.3329H25.9924V50.8287H25.0636V42.0787H25.9924V45.549ZM22.2252 43.7258V44.6616C22.2183 46.0394 23.1299 47.5829 24.4558 48.2079L23.931 48.9399C22.9469 48.4669 22.1699 47.4793 21.7728 46.3363C21.3723 47.5829 20.5539 48.6637 19.5594 49.1575L19.0104 48.4254C20.3364 47.7901 21.2998 46.1395 21.3067 44.6616V43.7258H19.335V42.9593H24.1244V43.7258H22.2252ZM34.452 50.8287V42.0787H35.3429V50.8287H34.452ZM31.51 45.3384H32.6806V42.2479H33.5646V50.3971H32.6806V46.1015H31.51V48.5221H28.1122V43.0628H31.51V45.3384ZM28.9859 47.7866H30.6399V43.7983H28.9859V47.7866ZM43.0946 50.8287V42.0787H43.9855V50.8287H43.0946ZM39.9316 45.1554H41.2956V42.2479H42.1692V50.3971H41.2956V45.9254H39.9316V45.1554ZM39.1271 42.8764V44.4682C39.1271 45.8702 39.7106 47.3584 40.8846 48.0732L40.3632 48.7914C39.5449 48.2977 38.9924 47.4206 38.692 46.4088C38.3708 47.5173 37.77 48.4634 36.9206 48.9814L36.3404 48.2907C37.5801 47.5518 38.2293 46.0014 38.2293 44.5097V42.8764H39.1271ZM51.4195 50.8287V42.0787H52.3518V50.8287H51.4195ZM48.3221 43.7258V44.6616C48.3221 46.1222 49.2821 47.6347 50.6287 48.2079L50.1211 48.9399C49.0887 48.4841 48.2738 47.5173 47.8663 46.357C47.4589 47.6001 46.637 48.6637 45.6218 49.1575L45.0797 48.4254C46.3988 47.8108 47.376 46.1637 47.3829 44.6616V43.7258H45.387V42.9593H50.318V43.7258H48.3221ZM58.1871 47.4689V49.009H61.7541V49.779H53.7465V49.009H57.2686V47.4689H54.7202V44.6858H59.8583V43.4565H54.703V42.7003H60.7734V45.4316H55.6422V46.7093H60.9771V47.4689H58.1871ZM71.5604 45.5663L70.6488 45.4731C70.8836 44.5718 70.8836 43.933 70.8836 43.2528H65.7697V42.5069H71.8056V43.2424C71.8056 43.9399 71.8056 44.6651 71.5604 45.5663ZM68.943 44.4613V46.1015H72.7966V46.8543H64.8408V46.1015H68.0314V44.4613H68.943ZM68.7773 47.5794C70.6695 47.5794 71.8643 48.1768 71.8712 49.2023C71.8643 50.2175 70.6695 50.8149 68.7773 50.8149C66.8988 50.8149 65.6972 50.2175 65.6972 49.2023C65.6972 48.1768 66.8988 47.5794 68.7773 47.5794ZM68.7773 50.0932C70.1101 50.0932 70.9423 49.7652 70.9492 49.2023C70.9423 48.6257 70.1101 48.2838 68.7773 48.2804C67.4513 48.2838 66.6157 48.6257 66.6226 49.2023C66.6157 49.7652 67.4513 50.0932 68.7773 50.0932ZM77.444 46.2431C75.5932 46.25 74.3328 45.511 74.3328 44.3439C74.3328 43.163 75.5932 42.4137 77.444 42.4068C79.2948 42.4137 80.5656 43.163 80.5656 44.3439C80.5656 45.511 79.2948 46.25 77.444 46.2431ZM77.444 43.1595C76.1457 43.1595 75.279 43.6084 75.2859 44.3439C75.279 45.0622 76.1457 45.5041 77.444 45.5076C78.7458 45.5041 79.6091 45.0622 79.6091 44.3439C79.6091 43.6084 78.7458 43.1595 77.444 43.1595ZM73.4592 47.0235H81.4668V47.7831H79.4399V50.8287H78.5006V47.7831H76.4081V50.8287H75.4551V47.7831H73.4592V47.0235Z" fill="black"/>
</svg>
