<svg width="321" height="386" viewBox="0 0 321 386" fill="none" xmlns="http://www.w3.org/2000/svg">
<circle opacity="0.08" cx="160.285" cy="179.478" r="52" fill="#00D6A2"/>
<circle opacity="0.08" cx="160.285" cy="179.478" r="39.438" fill="#00D6A2"/>
<circle opacity="0.08" cx="160.285" cy="179.478" r="27.0896" fill="#00D6A2"/>
<g opacity="0.9">
<circle opacity="0.08" cx="317.285" cy="233.478" r="74" fill="#00D6A2"/>
<circle opacity="0.08" cx="317.285" cy="233.478" r="56.1233" fill="#00D6A2"/>
<circle opacity="0.08" cx="317.285" cy="233.478" r="38.5505" fill="#00D6A2"/>
</g>
<g opacity="0.9">
<ellipse opacity="0.08" cx="42.2852" cy="301.997" rx="86" ry="83.5192" fill="#00D6A2"/>
<ellipse opacity="0.08" cx="42.2854" cy="301.997" rx="65.2243" ry="63.3428" fill="#00D6A2"/>
<ellipse opacity="0.08" cx="42.2849" cy="301.997" rx="44.802" ry="43.5096" fill="#00D6A2"/>
</g>
<g opacity="0.8">
<circle opacity="0.08" cx="299.285" cy="44.478" r="44" fill="#00D6A2"/>
<circle opacity="0.08" cx="299.285" cy="44.478" r="33.3706" fill="#00D6A2"/>
<circle opacity="0.08" cx="299.285" cy="44.4781" r="22.9219" fill="#00D6A2"/>
</g>
<g opacity="0.6">
<circle opacity="0.08" cx="66.2852" cy="113.478" r="26" fill="#00D6A2"/>
<circle opacity="0.08" cx="66.2849" cy="113.478" r="19.719" fill="#00D6A2"/>
<circle opacity="0.08" cx="66.285" cy="113.478" r="13.5448" fill="#00D6A2"/>
</g>
<g opacity="0.8">
<path d="M161.077 183.138C167.51 183.138 172.725 177.736 172.725 171.072C172.725 164.408 167.51 159.006 161.077 159.006C154.644 159.006 149.429 164.408 149.429 171.072C149.429 177.736 154.644 183.138 161.077 183.138Z" fill="#6CDDAF"/>
</g>
<path opacity="0.8" d="M152.433 194.726C158.866 194.726 164.081 189.324 164.081 182.66C164.081 175.997 158.866 170.595 152.433 170.595C146 170.595 140.785 175.997 140.785 182.66C140.785 189.324 146 194.726 152.433 194.726Z" fill="#00C78F"/>
<path d="M169.718 194.726C176.151 194.726 181.366 189.324 181.366 182.66C181.366 175.997 176.151 170.595 169.718 170.595C163.285 170.595 158.07 175.997 158.07 182.66C158.07 189.324 163.285 194.726 169.718 194.726Z" fill="#00AB8E"/>
<path opacity="0.8" d="M177.65 190.041C177.65 193.435 170.233 196.193 161.078 196.193C151.922 196.193 144.505 193.445 144.505 190.041C144.505 186.637 151.922 183.139 161.078 183.139C170.233 183.139 177.65 186.637 177.65 190.041Z" fill="#008855"/>
<path d="M161.076 174.572C163.208 172.13 166.29 170.595 169.719 170.595C170.758 170.595 171.765 170.736 172.724 171.001C172.688 164.37 167.487 159.006 161.077 159.006C154.667 159.006 149.466 164.371 149.43 171.001C150.389 170.737 151.395 170.596 152.434 170.596C155.863 170.596 158.945 172.131 161.077 174.573L161.076 174.572Z" fill="#5FE1B7"/>
<path d="M144.506 190.041C144.506 187.017 150.359 183.919 158.086 183.264C158.077 183.088 158.072 182.91 158.072 182.731C153.096 181.359 149.429 176.658 149.429 171.072C149.429 171.048 149.429 171.025 149.429 171.001C144.453 172.373 140.785 177.073 140.785 182.661C140.785 187.688 143.754 191.996 147.975 193.81C145.801 192.769 144.506 191.462 144.506 190.04V190.041Z" fill="#00D6A2"/>
<path d="M158.071 182.731C158.071 182.707 158.071 182.684 158.071 182.66C158.071 179.549 159.209 176.712 161.076 174.572C158.944 172.13 155.862 170.595 152.433 170.595C151.394 170.595 150.388 170.736 149.429 171C149.429 171.024 149.429 171.047 149.429 171.071C149.429 176.658 153.096 181.358 158.072 182.73L158.071 182.731Z" fill="#00CF91"/>
<path d="M181.367 182.661C181.367 177.073 177.7 172.374 172.724 171.001C172.724 171.025 172.724 171.048 172.724 171.072C172.724 176.66 169.056 181.36 164.08 182.732C164.08 182.911 164.075 183.089 164.067 183.265C171.795 183.919 177.651 187.017 177.651 190.042C177.651 191.468 176.34 192.782 174.143 193.827C178.382 192.023 181.367 187.704 181.367 182.662V182.661Z" fill="#02BDA5"/>
<path d="M161.076 174.572C162.944 176.712 164.081 179.549 164.081 182.661C164.081 182.685 164.081 182.707 164.081 182.731C169.058 181.359 172.725 176.66 172.725 171.071C172.725 171.047 172.725 171.024 172.725 171C171.766 170.736 170.759 170.594 169.72 170.594C166.291 170.594 163.209 172.129 161.077 174.571L161.076 174.572Z" fill="#00AB8E"/>
<path d="M158.071 182.731C158.071 182.91 158.076 183.088 158.084 183.264C159.055 183.182 160.055 183.138 161.077 183.138C162.098 183.138 163.096 183.181 164.065 183.263C164.074 183.087 164.079 182.909 164.079 182.73C163.12 182.994 162.114 183.136 161.075 183.136C160.036 183.136 159.029 182.994 158.07 182.729L158.071 182.731Z" fill="#00AC8E"/>
<path d="M161.076 174.572C159.208 176.712 158.071 179.549 158.071 182.66C158.071 182.684 158.071 182.707 158.071 182.731C159.03 182.995 160.037 183.138 161.076 183.138C162.115 183.138 163.121 182.996 164.08 182.732C164.08 182.708 164.08 182.685 164.08 182.662C164.08 179.55 162.942 176.713 161.075 174.573L161.076 174.572Z" fill="#00B38E"/>
<path d="M161.076 190.749C158.944 193.191 155.862 194.726 152.433 194.726C150.853 194.726 149.348 194.399 147.975 193.809C151.006 195.26 155.747 196.192 161.078 196.192C166.41 196.192 171.11 195.265 174.142 193.824C172.778 194.405 171.285 194.725 169.719 194.725C166.29 194.725 163.208 193.19 161.076 190.748V190.749Z" fill="#009980"/>
<path d="M161.076 190.749C159.33 188.748 158.221 186.139 158.085 183.264C150.359 183.918 144.505 187.016 144.505 190.041C144.505 191.462 145.799 192.77 147.974 193.811C149.347 194.401 150.854 194.727 152.433 194.727C155.862 194.727 158.944 193.192 161.076 190.75V190.749Z" fill="#00906D"/>
<path d="M177.651 190.041C177.651 187.016 171.795 183.918 164.067 183.264C163.93 186.139 162.822 188.749 161.076 190.749C163.208 193.191 166.29 194.726 169.719 194.726C171.285 194.726 172.779 194.405 174.142 193.825C176.34 192.781 177.651 191.467 177.651 190.041Z" fill="#008B6E"/>
<path d="M158.085 183.264C158.222 186.139 159.33 188.748 161.076 190.749C162.822 188.748 163.93 186.139 164.067 183.264C163.097 183.182 162.099 183.139 161.078 183.139C160.058 183.139 159.056 183.184 158.085 183.266V183.264Z" fill="#008A68"/>
<path d="M165.875 157.451C165.875 154.71 163.731 152.478 161.076 152.478C158.421 152.478 156.277 154.699 156.277 157.451C159.373 156.267 162.779 156.267 165.875 157.451H165.875Z" fill="#32E2BD"/>
<path d="M154.475 199.668H154.485C154.485 203.448 157.44 206.509 161.088 206.509C164.736 206.509 167.691 203.448 167.691 199.668C163.43 198.044 158.747 198.044 154.476 199.668H154.475Z" fill="#008A74"/>
</svg>
